<?xml version="1.0" encoding="utf-8"?>
<!-- Generator: Adobe Illustrator 20.0.0, SVG Export Plug-In . SVG Version: 6.00 Build 0)  -->
<svg version="1.1" id="Layer_1" xmlns="http://www.w3.org/2000/svg" xmlns:xlink="http://www.w3.org/1999/xlink" x="0px" y="0px"
	 viewBox="0 0 259.2 201.9" style="enable-background:new 0 0 259.2 201.9;" xml:space="preserve">
<style type="text/css">
	.st0{fill:#F9CBC2;}
	.st1{fill:#297BCE;}
	.st2{font-family:'AkzidenzGroteskBQ-Bold';}
	.st3{font-size:48px;}
	.st4{letter-spacing:1;}
	.st5{letter-spacing:2;}
	.st6{letter-spacing:3;}
	.st7{letter-spacing:-4;}
	.st8{letter-spacing:-1;}
	.st9{letter-spacing:-3;}
</style>
<title>010217_pwd_logo_02light</title>
<g id="Layer_2">
	<g id="Layer_1-2">
		<circle class="st0" cx="214.2" cy="39.5" r="39.5"/>
		<circle class="st0" cx="121.8" cy="39.5" r="39.5"/>
		<circle class="st1" cx="121.8" cy="39.5" r="22.9"/>
		<circle class="st1" cx="34.4" cy="39.5" r="34.4"/>
		<text transform="matrix(1 0 0 1 0 138.8)" class="st0 st2 st3">P</text>
		<text transform="matrix(1 0 0 1 32.78 138.8)" class="st0 st2 st3 st4">A</text>
		<text transform="matrix(1 0 0 1 68.02 138.8)" class="st0 st2 st3 st5">INT</text>
		<text transform="matrix(1 0 0 1 151.63 138.8)" class="st0 st2 st3 st6">IN</text>
		<text transform="matrix(1 0 0 1 207.98 138.8)" class="st0 st2 st3 st4">G</text>
		<text transform="matrix(1 0 0 1 245.23 138.8)" class="st0 st2 st3"> </text>
		<text transform="matrix(1 0 0 1 0 190.8)" class="st0 st2 st3">WI</text>
		<text transform="matrix(1 0 0 1 62.01 190.8)" class="st0 st2 st3">T</text>
		<text transform="matrix(1 0 0 1 88.03 190.8)" class="st0 st2 st3">H</text>
		<text transform="matrix(1 0 0 1 124.03 190.8)" class="st0 st2 st3 st7"> </text>
		<text transform="matrix(1 0 0 1 133.25 190.8)" class="st0 st2 st3 st8">D</text>
		<text transform="matrix(1 0 0 1 166.3201 190.8)" class="st0 st2 st3 st9">A</text>
		<text transform="matrix(1 0 0 1 196.8 190.8)" class="st0 st2 st3 st9">T</text>
		<text transform="matrix(1 0 0 1 220.3201 190.8)" class="st0 st2 st3">A</text>
	</g>
</g>
</svg>
