<svg xmlns="http://www.w3.org/2000/svg" viewBox="0 0 1723.49 1409.87"><defs><style>.cls-1{fill:#25258b;}.cls-1,.cls-2{opacity:0.8;}.cls-2{fill:none;}</style></defs><title>blue_circles_3</title><g id="Layer_2" data-name="Layer 2"><g id="Blue_dots" data-name="Blue dots"><circle class="cls-1" cx="655" cy="1047.93" r="30"/><circle class="cls-1" cx="755" cy="1047.93" r="35"/><circle class="cls-1" cx="855" cy="1047.93" r="40"/><circle class="cls-1" cx="655" cy="947.93" r="35"/><circle class="cls-1" cx="755" cy="947.93" r="35"/><circle class="cls-1" cx="855" cy="947.93" r="40"/><circle class="cls-1" cx="655" cy="847.93" r="40"/><circle class="cls-1" cx="755" cy="847.93" r="40"/><circle class="cls-1" cx="855" cy="847.93" r="40"/><circle class="cls-1" cx="955" cy="1047.93" r="40"/><circle class="cls-1" cx="955" cy="947.93" r="40"/><circle class="cls-1" cx="955" cy="847.93" r="40"/><circle class="cls-1" cx="1055" cy="1047.93" r="35"/><circle class="cls-1" cx="1055" cy="947.93" r="35"/><circle class="cls-1" cx="1055" cy="847.93" r="35"/><circle class="cls-1" cx="1155" cy="1047.93" r="30"/><circle class="cls-1" cx="1155" cy="947.93" r="30"/><circle class="cls-1" cx="1155" cy="847.93" r="30"/><circle class="cls-1" cx="1255" cy="1047.93" r="25"/><circle class="cls-1" cx="655" cy="1147.93" r="30"/><circle class="cls-1" cx="755" cy="1147.93" r="35"/><circle class="cls-1" cx="855" cy="1147.93" r="40"/><circle class="cls-1" cx="955" cy="1147.93" r="40"/><circle class="cls-1" cx="1055" cy="1147.93" r="35"/><circle class="cls-1" cx="1155" cy="1147.93" r="30"/><circle class="cls-1" cx="1255" cy="1147.93" r="25"/><circle class="cls-1" cx="655" cy="1247.93" r="30"/><circle class="cls-1" cx="755" cy="1247.93" r="35"/><circle class="cls-1" cx="855" cy="1247.93" r="40"/><circle class="cls-1" cx="955" cy="1247.93" r="40"/><circle class="cls-1" cx="1055" cy="1247.93" r="35"/><circle class="cls-1" cx="1155" cy="1247.93" r="30"/><circle class="cls-1" cx="1255" cy="1247.93" r="25"/><circle class="cls-1" cx="655" cy="1347.93" r="30"/><circle class="cls-1" cx="755" cy="1347.93" r="35"/><circle class="cls-1" cx="855" cy="1347.93" r="40"/><circle class="cls-1" cx="955" cy="1347.93" r="40"/><circle class="cls-1" cx="1055" cy="1347.93" r="35"/><circle class="cls-1" cx="1155" cy="1347.93" r="30"/><circle class="cls-1" cx="1255" cy="947.93" r="25"/><circle class="cls-1" cx="1255" cy="847.93" r="25"/><circle class="cls-1" cx="655" cy="747.93" r="35"/><circle class="cls-1" cx="755" cy="747.93" r="35"/><circle class="cls-1" cx="855" cy="747.93" r="35"/><circle class="cls-1" cx="955" cy="747.93" r="35"/><circle class="cls-1" cx="1055" cy="747.93" r="35"/><circle class="cls-1" cx="1155" cy="747.93" r="30"/><circle class="cls-1" cx="1255" cy="747.93" r="25"/><circle class="cls-1" cx="655" cy="647.93" r="30"/><circle class="cls-1" cx="755" cy="647.93" r="30"/><circle class="cls-1" cx="855" cy="647.93" r="30"/><circle class="cls-1" cx="955" cy="647.93" r="30"/><circle class="cls-1" cx="1055" cy="647.93" r="35"/><circle class="cls-1" cx="1155" cy="647.93" r="30"/><circle class="cls-1" cx="1255" cy="647.93" r="25"/><circle class="cls-1" cx="655" cy="547.93" r="25"/><circle class="cls-1" cx="555" cy="1047.93" r="30"/><circle class="cls-1" cx="555" cy="947.93" r="35"/><circle class="cls-1" cx="555" cy="847.93" r="40"/><circle class="cls-1" cx="555" cy="1147.93" r="25"/><circle class="cls-1" cx="555" cy="1247.93" r="25"/><circle class="cls-1" cx="555" cy="1347.93" r="25"/><circle class="cls-1" cx="555" cy="747.93" r="35"/><circle class="cls-1" cx="555" cy="647.93" r="30"/><circle class="cls-1" cx="555" cy="547.93" r="25"/><circle class="cls-1" cx="455" cy="1047.93" r="30"/><circle class="cls-1" cx="455" cy="947.93" r="35"/><circle class="cls-1" cx="455" cy="847.93" r="40"/><circle class="cls-1" cx="455" cy="1147.93" r="25"/><circle class="cls-1" cx="455" cy="1247.93" r="20"/><circle class="cls-1" cx="455" cy="1347.93" r="20"/><circle class="cls-1" cx="455" cy="747.93" r="35"/><circle class="cls-1" cx="455" cy="647.93" r="30"/><circle class="cls-1" cx="455" cy="547.93" r="25"/><circle class="cls-1" cx="355" cy="1047.93" r="30"/><circle class="cls-1" cx="355" cy="947.93" r="35"/><circle class="cls-1" cx="355" cy="847.93" r="40"/><circle class="cls-1" cx="355" cy="1147.93" r="25"/><circle class="cls-1" cx="355" cy="1247.93" r="20"/><circle class="cls-1" cx="355" cy="1347.93" r="15"/><circle class="cls-1" cx="355" cy="747.93" r="35"/><circle class="cls-1" cx="355" cy="647.93" r="30"/><circle class="cls-1" cx="355" cy="547.93" r="25"/><circle class="cls-1" cx="255" cy="1047.93" r="30"/><circle class="cls-1" cx="255" cy="947.93" r="35"/><circle class="cls-1" cx="255" cy="847.93" r="40"/><circle class="cls-1" cx="255" cy="1147.93" r="25"/><circle class="cls-1" cx="255" cy="1247.93" r="20"/><circle class="cls-1" cx="255" cy="1347.93" r="15"/><circle class="cls-1" cx="255" cy="747.93" r="35"/><circle class="cls-1" cx="255" cy="647.93" r="30"/><circle class="cls-1" cx="255" cy="547.93" r="25"/><circle class="cls-1" cx="155" cy="1047.93" r="30"/><circle class="cls-1" cx="155" cy="947.93" r="35"/><circle class="cls-1" cx="155" cy="847.93" r="40"/><circle class="cls-1" cx="155" cy="1147.93" r="25"/><circle class="cls-1" cx="155" cy="1247.93" r="20"/><circle class="cls-1" cx="155" cy="1347.93" r="15"/><circle class="cls-1" cx="155" cy="747.93" r="35"/><circle class="cls-1" cx="155" cy="647.93" r="30"/><circle class="cls-1" cx="155" cy="547.93" r="25"/><circle class="cls-1" cx="55" cy="1047.93" r="30"/><circle class="cls-1" cx="55" cy="947.93" r="35"/><circle class="cls-1" cx="55" cy="847.93" r="40"/><circle class="cls-1" cx="55" cy="1147.93" r="25"/><circle class="cls-1" cx="55" cy="1247.93" r="20"/><circle class="cls-1" cx="55" cy="1347.93" r="15"/><circle class="cls-1" cx="55" cy="747.93" r="35"/><circle class="cls-1" cx="55" cy="647.93" r="30"/><circle class="cls-1" cx="55" cy="547.93" r="25"/><circle class="cls-1" cx="755" cy="547.93" r="25"/><circle class="cls-1" cx="855" cy="547.93" r="25"/><circle class="cls-1" cx="955" cy="547.93" r="25"/><circle class="cls-1" cx="1055" cy="547.93" r="35"/><circle class="cls-1" cx="1155" cy="547.93" r="30"/><circle class="cls-1" cx="1255" cy="547.93" r="25"/><circle class="cls-1" cx="655" cy="447.93" r="20"/><circle class="cls-1" cx="555" cy="447.93" r="20"/><circle class="cls-1" cx="455" cy="447.93" r="20"/><circle class="cls-1" cx="355" cy="447.93" r="20"/><circle class="cls-1" cx="255" cy="447.93" r="20"/><circle class="cls-1" cx="155" cy="447.93" r="20"/><circle class="cls-1" cx="55" cy="447.93" r="20"/><circle class="cls-1" cx="755" cy="447.93" r="20"/><circle class="cls-1" cx="855" cy="447.93" r="20"/><circle class="cls-1" cx="955" cy="447.93" r="20"/><circle class="cls-1" cx="655" cy="352.93" r="15"/><circle class="cls-1" cx="555" cy="352.93" r="15"/><circle class="cls-1" cx="455" cy="352.93" r="15"/><circle class="cls-1" cx="355" cy="352.93" r="15"/><circle class="cls-1" cx="255" cy="352.93" r="15"/><circle class="cls-1" cx="155" cy="352.93" r="15"/><circle class="cls-1" cx="55" cy="352.93" r="15"/><circle class="cls-1" cx="755" cy="352.93" r="15"/><circle class="cls-1" cx="855" cy="352.93" r="15"/><circle class="cls-1" cx="955" cy="352.93" r="15"/><circle class="cls-1" cx="655" cy="257.93" r="10"/><circle class="cls-1" cx="555" cy="257.93" r="10"/><circle class="cls-1" cx="455" cy="257.93" r="10"/><circle class="cls-1" cx="355" cy="257.93" r="10"/><circle class="cls-1" cx="255" cy="257.93" r="10"/><circle class="cls-1" cx="155" cy="257.93" r="10"/><circle class="cls-1" cx="55" cy="257.93" r="10"/><circle class="cls-1" cx="755" cy="257.93" r="10"/><circle class="cls-1" cx="855" cy="257.93" r="10"/><circle class="cls-1" cx="955" cy="257.93" r="10"/><circle class="cls-1" cx="1055" cy="447.93" r="30"/><circle class="cls-1" cx="1155" cy="447.93" r="25"/><circle class="cls-1" cx="1255" cy="447.93" r="20"/><circle class="cls-1" cx="1055" cy="352.93" r="25"/><circle class="cls-1" cx="1155" cy="352.93" r="20"/><circle class="cls-1" cx="1255" cy="352.93" r="10"/><rect class="cls-2" width="1723.49" height="1409.87"/></g></g></svg>