<svg xmlns="http://www.w3.org/2000/svg" viewBox="0 0 1678.97 1160"><defs><style>.cls-1{opacity:0.9;}.cls-2{fill:#25258b;}.cls-3{fill:none;}</style></defs><title>blue_circles</title><g id="Layer_2" data-name="Layer 2"><g id="Blue_dots" data-name="Blue dots"><g class="cls-1"><circle class="cls-2" cx="640" cy="820" r="30"/><circle class="cls-2" cx="740" cy="820" r="35"/><circle class="cls-2" cx="840" cy="820" r="40"/><circle class="cls-2" cx="640" cy="720" r="35"/><circle class="cls-2" cx="740" cy="720" r="35"/><circle class="cls-2" cx="840" cy="720" r="40"/><circle class="cls-2" cx="640" cy="620" r="40"/><circle class="cls-2" cx="740" cy="620" r="40"/><circle class="cls-2" cx="840" cy="620" r="40"/><circle class="cls-2" cx="940" cy="820" r="40"/><circle class="cls-2" cx="940" cy="720" r="40"/><circle class="cls-2" cx="940" cy="620" r="40"/><circle class="cls-2" cx="1040" cy="820" r="35"/><circle class="cls-2" cx="1040" cy="720" r="35"/><circle class="cls-2" cx="1040" cy="620" r="35"/><circle class="cls-2" cx="1140" cy="820" r="30"/><circle class="cls-2" cx="1140" cy="720" r="30"/><circle class="cls-2" cx="1140" cy="620" r="30"/><circle class="cls-2" cx="1240" cy="820" r="25"/><circle class="cls-2" cx="640" cy="920" r="30"/><circle class="cls-2" cx="740" cy="920" r="35"/><circle class="cls-2" cx="840" cy="920" r="40"/><circle class="cls-2" cx="940" cy="920" r="40"/><circle class="cls-2" cx="1040" cy="920" r="35"/><circle class="cls-2" cx="1140" cy="920" r="30"/><circle class="cls-2" cx="1240" cy="920" r="25"/><circle class="cls-2" cx="640" cy="1020" r="30"/><circle class="cls-2" cx="740" cy="1020" r="35"/><circle class="cls-2" cx="840" cy="1020" r="40"/><circle class="cls-2" cx="940" cy="1020" r="40"/><circle class="cls-2" cx="1040" cy="1020" r="35"/><circle class="cls-2" cx="1140" cy="1020" r="30"/><circle class="cls-2" cx="1240" cy="1020" r="25"/><circle class="cls-2" cx="640" cy="1120" r="30"/><circle class="cls-2" cx="740" cy="1120" r="35"/><circle class="cls-2" cx="840" cy="1120" r="40"/><circle class="cls-2" cx="940" cy="1120" r="40"/><circle class="cls-2" cx="1040" cy="1120" r="35"/><circle class="cls-2" cx="1140" cy="1120" r="30"/><circle class="cls-2" cx="1240" cy="1120" r="25"/><circle class="cls-2" cx="1240" cy="720" r="25"/><circle class="cls-2" cx="1240" cy="620" r="25"/><circle class="cls-2" cx="640" cy="520" r="35"/><circle class="cls-2" cx="740" cy="520" r="35"/><circle class="cls-2" cx="840" cy="520" r="35"/><circle class="cls-2" cx="940" cy="520" r="35"/><circle class="cls-2" cx="1040" cy="520" r="35"/><circle class="cls-2" cx="1140" cy="520" r="30"/><circle class="cls-2" cx="1240" cy="520" r="25"/><circle class="cls-2" cx="640" cy="420" r="30"/><circle class="cls-2" cx="740" cy="420" r="30"/><circle class="cls-2" cx="840" cy="420" r="30"/><circle class="cls-2" cx="940" cy="420" r="30"/><circle class="cls-2" cx="1040" cy="420" r="35"/><circle class="cls-2" cx="1140" cy="420" r="30"/><circle class="cls-2" cx="1240" cy="420" r="25"/><circle class="cls-2" cx="640" cy="320" r="25"/><circle class="cls-2" cx="540" cy="820" r="30"/><circle class="cls-2" cx="540" cy="720" r="35"/><circle class="cls-2" cx="540" cy="620" r="40"/><circle class="cls-2" cx="540" cy="920" r="25"/><circle class="cls-2" cx="540" cy="1020" r="25"/><circle class="cls-2" cx="540" cy="1120" r="25"/><circle class="cls-2" cx="540" cy="520" r="35"/><circle class="cls-2" cx="540" cy="420" r="30"/><circle class="cls-2" cx="540" cy="320" r="25"/><circle class="cls-2" cx="440" cy="820" r="30"/><circle class="cls-2" cx="440" cy="720" r="35"/><circle class="cls-2" cx="440" cy="620" r="40"/><circle class="cls-2" cx="440" cy="920" r="25"/><circle class="cls-2" cx="440" cy="1020" r="20"/><circle class="cls-2" cx="440" cy="1120" r="20"/><circle class="cls-2" cx="440" cy="520" r="35"/><circle class="cls-2" cx="440" cy="420" r="30"/><circle class="cls-2" cx="440" cy="320" r="25"/><circle class="cls-2" cx="340" cy="820" r="30"/><circle class="cls-2" cx="340" cy="720" r="35"/><circle class="cls-2" cx="340" cy="620" r="40"/><circle class="cls-2" cx="340" cy="920" r="25"/><circle class="cls-2" cx="340" cy="1020" r="20"/><circle class="cls-2" cx="340" cy="1120" r="15"/><circle class="cls-2" cx="340" cy="520" r="35"/><circle class="cls-2" cx="340" cy="420" r="30"/><circle class="cls-2" cx="340" cy="320" r="25"/><circle class="cls-2" cx="240" cy="820" r="30"/><circle class="cls-2" cx="240" cy="720" r="35"/><circle class="cls-2" cx="240" cy="620" r="40"/><circle class="cls-2" cx="240" cy="920" r="25"/><circle class="cls-2" cx="240" cy="1020" r="20"/><circle class="cls-2" cx="240" cy="1120" r="15"/><circle class="cls-2" cx="240" cy="520" r="35"/><circle class="cls-2" cx="240" cy="420" r="30"/><circle class="cls-2" cx="240" cy="320" r="25"/><circle class="cls-2" cx="140" cy="820" r="30"/><circle class="cls-2" cx="140" cy="720" r="35"/><circle class="cls-2" cx="140" cy="620" r="40"/><circle class="cls-2" cx="140" cy="920" r="25"/><circle class="cls-2" cx="140" cy="1020" r="20"/><circle class="cls-2" cx="140" cy="1120" r="15"/><circle class="cls-2" cx="140" cy="520" r="35"/><circle class="cls-2" cx="140" cy="420" r="30"/><circle class="cls-2" cx="140" cy="320" r="25"/><circle class="cls-2" cx="40" cy="820" r="30"/><circle class="cls-2" cx="40" cy="720" r="35"/><circle class="cls-2" cx="40" cy="620" r="40"/><circle class="cls-2" cx="40" cy="920" r="25"/><circle class="cls-2" cx="40" cy="1020" r="20"/><circle class="cls-2" cx="40" cy="1120" r="15"/><circle class="cls-2" cx="40" cy="520" r="35"/><circle class="cls-2" cx="40" cy="420" r="30"/><circle class="cls-2" cx="40" cy="320" r="25"/><circle class="cls-2" cx="740" cy="320" r="25"/><circle class="cls-2" cx="840" cy="320" r="25"/><circle class="cls-2" cx="940" cy="320" r="25"/><circle class="cls-2" cx="1040" cy="320" r="35"/><circle class="cls-2" cx="1140" cy="320" r="30"/><circle class="cls-2" cx="1240" cy="320" r="25"/></g><rect class="cls-3" width="40" height="60"/><rect class="cls-3" x="1580" y="1140" width="98.97" height="0.01"/></g></g></svg>