<svg xmlns="http://www.w3.org/2000/svg" viewBox="0 0 772.23 482.4"><defs><style>.cls-1{fill:#0463e8;}.cls-2{fill:#fa7951;}.cls-3{fill:#195286;}.cls-4{fill:#001c65;}.cls-5{fill:#df3f26;}</style></defs><title>circle_background</title><g id="Layer_2" data-name="Layer 2"><g id="Dots"><g id="Blue"><circle class="cls-1" cx="546.61" cy="173.06" r="6.89"/><circle class="cls-1" cx="577.61" cy="175.43" r="6.89"/><circle class="cls-1" cx="584.74" cy="199.39" r="6.89"/><circle class="cls-1" cx="594.96" cy="178.15" r="6.89"/><circle class="cls-1" cx="590.05" cy="159.27" r="6.89"/><circle class="cls-1" cx="603.83" cy="166.16" r="6.89"/><circle class="cls-1" cx="609.6" cy="192.5" r="6.89"/><circle class="cls-1" cx="558.85" cy="197.28" r="6.89"/><circle class="cls-1" cx="488.32" cy="326.46" r="6.89"/><circle class="cls-1" cx="466.75" cy="317.19" r="6.89"/><circle class="cls-1" cx="478.07" cy="302.93" r="6.89"/><circle class="cls-1" cx="469.39" cy="289.14" r="6.89"/><circle class="cls-1" cx="686.74" cy="228.89" r="6.89"/><circle class="cls-1" cx="458.28" cy="298.19" r="6.89"/><circle class="cls-1" cx="693.63" cy="279.4" r="6.89"/><circle class="cls-1" cx="641.62" cy="362.1" r="6.89"/><circle class="cls-1" cx="714.03" cy="330.97" r="6.89"/><circle class="cls-1" cx="720.92" cy="304.6" r="6.89"/><circle class="cls-1" cx="719.42" cy="286.29" r="6.89"/><circle class="cls-1" cx="570.72" cy="306.27" r="6.89"/><circle class="cls-1" cx="702.69" cy="411.99" r="6.89"/></g><g id="Pink"><circle class="cls-2" cx="513.56" cy="240.11" r="8"/><circle class="cls-2" cx="663.95" cy="339.09" r="8"/><circle class="cls-2" cx="610.41" cy="199.46" r="8"/><circle class="cls-2" cx="580.21" cy="430.74" r="8"/><circle class="cls-2" cx="289.85" cy="177.74" r="8"/><circle class="cls-2" cx="248.44" cy="343.09" r="8"/></g><g id="Green"><circle class="cls-3" cx="505.56" cy="282.75" r="23.33"/><circle class="cls-3" cx="625.75" cy="322.77" r="23.33"/><circle class="cls-3" cx="655.95" cy="235.23" r="23.33"/><circle class="cls-3" cx="281.85" cy="398.75" r="23.33"/><circle class="cls-3" cx="458.9" cy="154.4" r="23.33"/><circle class="cls-3" cx="27.97" cy="355.09" r="23.33"/><circle class="cls-3" cx="748.9" cy="459.07" r="23.33"/></g><g id="Navy"><circle class="cls-4" cx="552.62" cy="223.23" r="12"/><circle class="cls-4" cx="625.66" cy="235.23" r="12"/><circle class="cls-4" cx="560.21" cy="343.09" r="12"/><circle class="cls-4" cx="691.29" cy="310.77" r="12"/></g><g id="Red"><circle class="cls-5" cx="421.19" cy="421.61" r="33.11"/><circle class="cls-5" cx="491.07" cy="238.59" r="33.11"/><circle class="cls-5" cx="686.31" cy="205.49" r="33.11"/><circle class="cls-5" cx="33.11" cy="33.11" r="33.11"/></g></g></g></svg>