<svg xmlns="http://www.w3.org/2000/svg" viewBox="0 0 767.59 351.33"><defs><style>.cls-1{fill:#0463e8;}.cls-2{fill:#fa7951;}.cls-3{fill:#195286;}.cls-4{fill:#001c65;}</style></defs><title>circle_background_1</title><g id="Layer_2" data-name="Layer 2"><g id="Dots"><g id="Blue"><circle class="cls-1" cx="541.97" cy="41.98" r="6.89"/><circle class="cls-1" cx="572.97" cy="44.36" r="6.89"/><circle class="cls-1" cx="580.1" cy="68.32" r="6.89"/><circle class="cls-1" cx="590.32" cy="47.08" r="6.89"/><circle class="cls-1" cx="585.4" cy="28.2" r="6.89"/><circle class="cls-1" cx="599.19" cy="35.09" r="6.89"/><circle class="cls-1" cx="604.96" cy="61.43" r="6.89"/><circle class="cls-1" cx="554.21" cy="66.21" r="6.89"/><circle class="cls-1" cx="483.68" cy="195.39" r="6.89"/><circle class="cls-1" cx="462.11" cy="186.12" r="6.89"/><circle class="cls-1" cx="473.43" cy="171.86" r="6.89"/><circle class="cls-1" cx="464.75" cy="158.07" r="6.89"/><circle class="cls-1" cx="682.1" cy="97.82" r="6.89"/><circle class="cls-1" cx="453.64" cy="167.11" r="6.89"/><circle class="cls-1" cx="688.99" cy="148.33" r="6.89"/><circle class="cls-1" cx="636.98" cy="231.03" r="6.89"/><circle class="cls-1" cx="709.39" cy="199.9" r="6.89"/><circle class="cls-1" cx="716.28" cy="173.53" r="6.89"/><circle class="cls-1" cx="714.77" cy="155.22" r="6.89"/><circle class="cls-1" cx="566.08" cy="175.19" r="6.89"/><circle class="cls-1" cx="698.05" cy="280.92" r="6.89"/></g><g id="Pink"><circle class="cls-2" cx="508.92" cy="109.04" r="8"/><circle class="cls-2" cx="659.31" cy="208.02" r="8"/><circle class="cls-2" cx="605.77" cy="68.39" r="8"/><circle class="cls-2" cx="575.57" cy="299.67" r="8"/><circle class="cls-2" cx="285.21" cy="46.67" r="8"/><circle class="cls-2" cx="243.8" cy="212.02" r="8"/></g><g id="Green"><circle class="cls-3" cx="500.92" cy="151.68" r="23.33"/><circle class="cls-3" cx="621.11" cy="191.7" r="23.33"/><circle class="cls-3" cx="651.31" cy="104.16" r="23.33"/><circle class="cls-3" cx="277.21" cy="267.68" r="23.33"/><circle class="cls-3" cx="454.26" cy="23.33" r="23.33"/><circle class="cls-3" cx="23.33" cy="224.02" r="23.33"/><circle class="cls-3" cx="744.26" cy="328" r="23.33"/></g><g id="Navy"><circle class="cls-4" cx="547.98" cy="92.16" r="12"/><circle class="cls-4" cx="621.02" cy="104.16" r="12"/><circle class="cls-4" cx="555.57" cy="212.02" r="12"/><circle class="cls-4" cx="686.65" cy="179.7" r="12"/></g></g></g></svg>