<svg xmlns="http://www.w3.org/2000/svg" viewBox="0 0 948.95 812.63"><defs><style>.cls-1{opacity:0.9;}.cls-2{fill:#283593;}.cls-3{fill:none;}</style></defs><title>circle_background_6</title><g id="Layer_2" data-name="Layer 2"><g id="Dots_3" data-name="Dots 3"><g class="cls-1"><circle class="cls-2" cx="920.38" cy="313.88" r="23.66"/><circle class="cls-2" cx="820.81" cy="313.88" r="23.66"/><circle class="cls-2" cx="721.25" cy="313.88" r="23.66"/><circle class="cls-2" cx="621.69" cy="313.88" r="23.66"/><circle class="cls-2" cx="597.46" cy="13.69" r="13.69" transform="matrix(0.87, -0.5, 0.5, 0.87, 396.11, 425.29)"/><circle class="cls-2" cx="497.9" cy="13.69" r="13.69" transform="translate(382.78 375.51) rotate(-30)"/><circle class="cls-2" cx="398.33" cy="13.69" r="13.69" transform="matrix(0.87, -0.5, 0.5, 0.87, 369.44, 325.72)"/><circle class="cls-2" cx="298.77" cy="13.69" r="13.69" transform="translate(356.1 275.94) rotate(-30)"/><circle class="cls-2" cx="920.38" cy="224.78" r="18.16"/><circle class="cls-2" cx="820.81" cy="224.78" r="18.16"/><circle class="cls-2" cx="721.25" cy="224.78" r="18.16"/><circle class="cls-2" cx="621.69" cy="224.78" r="18.16"/><circle class="cls-2" cx="920.38" cy="421.52" r="28.58"/><circle class="cls-2" cx="820.81" cy="421.52" r="28.58"/><circle class="cls-2" cx="721.25" cy="421.52" r="28.58"/><circle class="cls-2" cx="621.69" cy="421.52" r="28.58"/><circle class="cls-2" cx="512.07" cy="317.07" r="23.66"/><circle class="cls-2" cx="512.07" cy="416.63" r="23.66"/><circle class="cls-2" cx="13.69" cy="192.35" r="13.69" transform="matrix(0.87, -0.5, 0.5, 0.87, 228.58, 157.34)"/><circle class="cls-2" cx="13.69" cy="100.05" r="13.69" transform="translate(274.72 144.97) rotate(-30)"/><circle class="cls-2" cx="13.69" cy="291.91" r="13.69" transform="translate(178.79 170.68) rotate(-30)"/><circle class="cls-2" cx="422.97" cy="317.07" r="18.16"/><circle class="cls-2" cx="422.97" cy="416.63" r="18.16"/><circle class="cls-2" cx="189.71" cy="13.69" r="13.69" transform="translate(341.49 221.41) rotate(-30)"/><circle class="cls-2" cx="100.05" cy="13.69" r="13.69" transform="translate(329.47 176.58) rotate(-30)"/><circle class="cls-2" cx="512.62" cy="224.78" r="18.16"/><circle class="cls-2" cx="422.97" cy="224.78" r="18.16"/><circle class="cls-2" cx="920.38" cy="623.47" r="23.66"/><circle class="cls-2" cx="820.81" cy="623.47" r="23.66"/><circle class="cls-2" cx="721.25" cy="623.47" r="23.66"/><circle class="cls-2" cx="621.69" cy="623.47" r="23.66"/><circle class="cls-2" cx="597.46" cy="674.21" r="13.69" transform="matrix(0.5, -0.87, 0.87, 0.5, 37.76, 979.24)"/><circle class="cls-2" cx="497.9" cy="674.21" r="13.69" transform="translate(-12.02 893.02) rotate(-60)"/><circle class="cls-2" cx="398.33" cy="674.21" r="13.69" transform="matrix(0.5, -0.87, 0.87, 0.5, -61.8, 806.8)"/><circle class="cls-2" cx="298.77" cy="674.21" r="13.69" transform="translate(-111.58 720.57) rotate(-60)"/><circle class="cls-2" cx="920.38" cy="712.57" r="18.16"/><circle class="cls-2" cx="820.81" cy="712.57" r="18.16"/><circle class="cls-2" cx="721.25" cy="712.57" r="18.16"/><circle class="cls-2" cx="621.69" cy="712.57" r="18.16"/><circle class="cls-2" cx="920.38" cy="515.83" r="28.58"/><circle class="cls-2" cx="820.81" cy="515.83" r="28.58"/><circle class="cls-2" cx="721.25" cy="515.83" r="28.58"/><circle class="cls-2" cx="621.69" cy="515.83" r="28.58"/><circle class="cls-2" cx="512.07" cy="620.28" r="23.66"/><circle class="cls-2" cx="512.07" cy="520.72" r="23.66"/><circle class="cls-2" cx="13.69" cy="495.56" r="13.69" transform="translate(-99.4 384.36) rotate(-60)"/><circle class="cls-2" cx="13.69" cy="587.85" r="13.69" transform="translate(-179.33 430.5) rotate(-60)"/><circle class="cls-2" cx="13.69" cy="395.99" r="13.69" transform="translate(-13.18 334.58) rotate(-60)"/><circle class="cls-2" cx="422.97" cy="620.28" r="18.16"/><circle class="cls-2" cx="422.97" cy="520.72" r="18.16"/><circle class="cls-2" cx="189.71" cy="674.21" r="13.69" transform="translate(-166.12 626.12) rotate(-60)"/><circle class="cls-2" cx="100.05" cy="674.21" r="13.69" transform="matrix(0.5, -0.87, 0.87, 0.5, -210.94, 548.48)"/><circle class="cls-2" cx="512.62" cy="712.57" r="18.16"/><circle class="cls-2" cx="422.97" cy="712.57" r="18.16"/></g><rect class="cls-3" width="85" height="70.89"/></g></g></svg>