<?xml version="1.0" encoding="utf-8"?>
<!-- Generator: Adobe Illustrator 22.0.1, SVG Export Plug-In . SVG Version: 6.00 Build 0)  -->
<svg version="1.1" id="Layer_1" xmlns="http://www.w3.org/2000/svg" xmlns:xlink="http://www.w3.org/1999/xlink" x="0px" y="0px"
	 viewBox="0 0 243.4 28.7" style="enable-background:new 0 0 243.4 28.7;" xml:space="preserve">
<title>homepage-title_bw2</title>
<path d="M3.7,5.8l0.1,1.6c1.4-1.3,2.3-1.8,3.5-1.8c0.8,0,1.7,0.3,2.2,1c0.5,0.6,0.6,1.2,0.6,3V19c0,1.7-0.1,2.4-0.6,3
	c-0.5,0.7-1.4,1-2.2,1c-1.1,0-2.1-0.5-3.5-1.8v7.4H0V5.8H3.7z M3.7,19.5c0.8,0.5,1.1,0.7,1.7,0.7s0.9-0.4,0.9-1.3V9.5
	c0-0.8-0.3-1.3-0.9-1.3C4.8,8.3,4.2,8.5,3.7,8.9L3.7,19.5z"/>
<path d="M23.8,22.7c-0.1-0.5-0.2-0.9-0.3-1.4c-0.7,1-1.9,1.6-3.1,1.6c-2.1,0-3.2-1.5-3.2-4.3c-0.1-1.6,0.6-3.1,1.8-4.2
	c0.9-0.8,0.9-0.8,3.9-2.3c0.2-0.1,0.5-0.3,0.7-0.4V9.8c0-1.3-0.2-1.5-1.1-1.5c-1.1,0-1.4,0.4-1.5,2.5h-3.6c0-1.2,0.3-2.4,1-3.4
	c1-1.3,2.6-1.9,4.2-1.8c3.1,0,4.8,1.4,4.8,4V20c-0.1,0.9,0,1.9,0.4,2.7H23.8z M23.5,14c-2,1.3-2.7,2.4-2.7,4.4
	c0,1.2,0.4,1.8,1.1,1.8c0.6,0,1.2-0.4,1.5-0.9V14H23.5z"/>
<path d="M38.4,3h-3.7V0h3.7L38.4,3z M38.4,22.7h-3.7V5.8h3.7L38.4,22.7z"/>
<path d="M49.4,5.8l0.1,1.5C51,6,51.8,5.6,52.9,5.6c0.9,0,1.7,0.4,2.3,1c0.5,0.6,0.6,1.2,0.6,2.9v13.3h-3.7V9.5
	c0-0.9-0.3-1.3-0.9-1.3c-0.6,0.1-1.2,0.3-1.7,0.7v13.7h-3.7V5.8H49.4z"/>
<path d="M67.7,8.5v9.9c0,1.1,0.6,1.6,1.9,1.6h0.7v2.7c-0.7,0.1-1.4,0.2-2.1,0.2c-2.7,0-4.2-1.2-4.2-3.5V8.5h-1.8V5.8H64V1.2h3.7v4.6
	h2.6v2.7H67.7z"/>
<path d="M80.2,3h-3.7V0h3.7L80.2,3z M80.2,22.7h-3.7V5.8h3.7L80.2,22.7z"/>
<path d="M91.2,5.8l0.1,1.5c1.5-1.3,2.4-1.7,3.4-1.7c0.9,0,1.7,0.4,2.3,1c0.5,0.6,0.6,1.2,0.6,2.9v13.3h-3.7V9.5
	c0-0.9-0.3-1.3-0.9-1.3c-0.6,0.1-1.2,0.3-1.7,0.7v13.7h-3.7V5.8H91.2z"/>
<path d="M116.3,8.3c-0.3-0.1-0.6-0.1-0.9-0.1c-0.4,0-0.8,0.1-1.1,0.3v5.3c0,2.9-1.6,4.6-4.4,4.6h-1c-0.7,0.1-1.1,0.4-1.1,0.8
	s0.3,0.7,1,0.9c0.5,0.1,0.5,0.1,3.3,0.4s4.3,1.7,4.3,3.8c0,2.6-2.6,4.4-6.5,4.4c-3.7,0-5.9-1.2-5.9-3.1c0-1.2,1-2.1,3.1-3
	c-1.9-0.5-2.5-1-2.5-2s0.8-2,2.5-2.8c-1.3-0.7-2.1-2.1-2.1-3.6V9.3c0-2.3,1.8-3.8,4.5-3.8c1.4-0.1,2.9,0.5,3.8,1.6
	c0.6-1,1.7-1.6,2.8-1.6v2.8H116.3z M107.8,24.7c0,1,1,1.5,2.5,1.5c1.7,0,2.8-0.7,2.8-1.7s-0.6-1.3-3.4-1.6
	C108.2,23.6,107.8,24,107.8,24.7z M111,9.5c0.1-0.7-0.4-1.2-1.1-1.3c-0.1,0-0.1,0-0.2,0c-0.9,0-1.3,0.4-1.3,1.3v4.9
	c-0.1,0.7,0.4,1.2,1.1,1.3c0.1,0,0.1,0,0.2,0c0.6,0.1,1.2-0.4,1.3-1c0-0.1,0-0.2,0-0.3V9.5z"/>
<path d="M137.4,21.8l-1.8-8.5l-1.8,8.5h-2.5l-2.9-14.9h2.9l1.5,8l1.6-8h2.4l1.7,8.1l1.5-8.1h2.9L140,21.8H137.4z"/>
<path d="M151.8,4.5h-3.3V1.8h3.3V4.5z M151.8,21.8h-3.3V6.9h3.3V21.8z"/>
<path d="M162.3,9.3v8.8c0,1,0.5,1.4,1.7,1.4h0.6v2.4c-0.6,0.1-1.3,0.2-1.9,0.2c-2.4,0-3.7-1-3.7-3.1V9.3h-1.6V6.9h1.7v-4h3.3v4h2.3
	v2.4H162.3z"/>
<path d="M170.1,1.8h3.3v6.5c0.8-1,1.9-1.5,3.1-1.6c0.8,0,1.5,0.3,2,0.9c0.4,0.5,0.5,1.1,0.5,2.6v11.6h-3.3V10.2
	c0-0.8-0.3-1.1-0.8-1.1c-0.5,0.1-1.1,0.3-1.5,0.6v12.1h-3.3V1.8z"/>
<path d="M197.3,21.8l-0.1-1.4c-0.8,1-1.9,1.5-3.1,1.6c-0.8,0-1.5-0.3-2-0.9c-0.4-0.5-0.5-1.1-0.5-2.6v-8.3c0-1.5,0.1-2.1,0.5-2.6
	c0.5-0.6,1.2-0.9,2-0.9c1,0,1.8,0.4,3.1,1.6V1.8h3.3v20H197.3z M197.2,9.7c-0.4-0.3-1-0.5-1.5-0.6c-0.6,0-0.8,0.4-0.8,1.1v8.3
	c0,0.7,0.3,1.1,0.8,1.1c0.5-0.1,1.1-0.3,1.5-0.6V9.7z"/>
<path d="M212.6,21.8c-0.1-0.4-0.2-0.8-0.2-1.2c-0.6,0.9-1.7,1.4-2.8,1.4c-1.9,0-2.9-1.3-2.9-3.8c-0.1-1.4,0.5-2.8,1.6-3.7
	c1.1-0.8,2.2-1.4,3.4-2c0.1,0,0.3-0.2,0.6-0.3v-1.7c0-1.1-0.1-1.4-1-1.4s-1.2,0.4-1.4,2.2h-3.2c0-1.1,0.3-2.1,0.9-3
	c0.9-1.1,2.3-1.8,3.7-1.6c2.7,0,4.2,1.3,4.2,3.6v9.1c-0.1,0.8,0,1.6,0.3,2.4L212.6,21.8z M212.3,14.2c-1.8,1.2-2.4,2.2-2.4,3.9
	c0,1,0.3,1.6,1,1.6c0.6,0,1.1-0.3,1.4-0.8V14.2z"/>
<path d="M226.2,9.3v8.8c0,1,0.5,1.4,1.7,1.4h0.6v2.4c-0.6,0.1-1.3,0.2-1.9,0.2c-2.4,0-3.7-1-3.7-3.1V9.3h-1.6V6.9h1.6v-4h3.3v4h2.3
	v2.4H226.2z"/>
<path d="M239.5,21.8c-0.1-0.4-0.2-0.8-0.2-1.2c-0.6,0.9-1.7,1.4-2.8,1.4c-1.9,0-2.9-1.3-2.9-3.8c-0.1-1.4,0.5-2.8,1.6-3.7
	c0.8-0.7,0.8-0.7,3.4-2.1c0.1,0,0.3-0.2,0.6-0.3v-1.7c0-1.1-0.1-1.4-1-1.4s-1.2,0.4-1.4,2.2h-3.2c0-1.1,0.3-2.1,0.9-3
	c0.9-1.1,2.3-1.8,3.7-1.6c2.7,0,4.2,1.3,4.2,3.6v9.1c-0.1,0.8,0,1.6,0.3,2.4h-3.2L239.5,21.8z M239.3,14.2c-1.8,1.2-2.4,2.2-2.4,3.9
	c0,1,0.3,1.6,1,1.6c0.6,0,1.1-0.3,1.4-0.8V14.2z"/>
</svg>
