<?xml version="1.0" encoding="utf-8"?>
<!-- Generator: Adobe Illustrator 22.0.1, SVG Export Plug-In . SVG Version: 6.00 Build 0)  -->
<svg version="1.1" id="Layer_1" xmlns="http://www.w3.org/2000/svg" xmlns:xlink="http://www.w3.org/1999/xlink" x="0px" y="0px"
	 viewBox="0 0 154.3 88" style="enable-background:new 0 0 154.3 88;" xml:space="preserve">
<style type="text/css">
	.st0{fill:#F3796B;}
</style>
<g>
	<path class="st0" d="M24.6,16.8l0.1,1.6c1.4-1.3,2.3-1.8,3.5-1.8c0.9,0,1.8,0.4,2.2,1c0.5,0.6,0.6,1.2,0.6,3V30
		c0,1.7-0.1,2.4-0.6,3c-0.4,0.6-1.3,1-2.2,1c-1.1,0-2.1-0.5-3.5-1.8v7.4H21V16.8H24.6z M24.7,30.5c0.8,0.5,1.1,0.7,1.7,0.7
		c0.6,0,0.9-0.4,0.9-1.3v-9.4c0-0.8-0.3-1.3-0.9-1.3c-0.5,0-0.9,0.2-1.7,0.7V30.5z"/>
	<path class="st0" d="M44.7,33.7c-0.1-0.3-0.2-0.8-0.3-1.4c-0.9,1.1-1.9,1.6-3.1,1.6c-2.1,0-3.2-1.5-3.2-4.3c0-1.8,0.6-3.1,1.8-4.2
		c0.9-0.8,0.9-0.8,3.9-2.3c0.1,0,0.3-0.2,0.7-0.4v-1.9c0-1.3-0.2-1.5-1.1-1.5c-1.1,0-1.4,0.4-1.5,2.5h-3.6c0.2-1.8,0.4-2.6,1-3.4
		c0.8-1.2,2.3-1.8,4.2-1.8c3.1,0,4.8,1.4,4.8,4V31c0,1.4,0,1.9,0.4,2.7H44.7z M44.5,25c-2,1.3-2.7,2.4-2.7,4.4
		c0,1.2,0.4,1.8,1.1,1.8c0.6,0,1-0.3,1.5-0.9V25z"/>
	<path class="st0" d="M59.3,14h-3.7v-3h3.7V14z M59.3,33.7h-3.7V16.8h3.7V33.7z"/>
	<path class="st0" d="M70.4,16.8l0.1,1.5c1.5-1.3,2.4-1.7,3.4-1.7c0.9,0,1.8,0.4,2.3,1c0.5,0.6,0.6,1.2,0.6,2.9v13.3H73V20.5
		c0-0.9-0.3-1.3-0.9-1.3c-0.5,0-0.9,0.2-1.7,0.7v13.7h-3.7V16.8H70.4z"/>
	<path class="st0" d="M88.7,19.5v9.9c0,1.1,0.6,1.6,1.9,1.6l0.7,0v2.7c-1.1,0.2-1.5,0.2-2.1,0.2c-2.7,0-4.2-1.2-4.2-3.5V19.5h-1.8
		v-2.7H85v-4.6h3.7v4.6h2.6v2.7H88.7z"/>
	<path class="st0" d="M101.2,14h-3.7v-3h3.7V14z M101.2,33.7h-3.7V16.8h3.7V33.7z"/>
	<path class="st0" d="M112.2,16.8l0.1,1.5c1.5-1.3,2.4-1.7,3.4-1.7c0.9,0,1.8,0.4,2.3,1c0.5,0.6,0.6,1.2,0.6,2.9v13.3h-3.7V20.5
		c0-0.9-0.3-1.3-0.9-1.3c-0.5,0-0.9,0.2-1.7,0.7v13.7h-3.7V16.8H112.2z"/>
	<path class="st0" d="M137.2,19.3c-0.4-0.1-0.6-0.1-0.9-0.1c-0.4,0-0.6,0.1-1.1,0.3v1.2v4.1c0,2.9-1.6,4.6-4.4,4.6c-0.3,0-0.6,0-1,0
		c-0.7,0.1-1.1,0.4-1.1,0.8c0,0.4,0.3,0.7,1,0.9c0.5,0.1,0.5,0.1,3.3,0.4c2.7,0.3,4.3,1.7,4.3,3.8c0,2.6-2.6,4.4-6.5,4.4
		c-3.7,0-5.9-1.2-5.9-3.1c0-1.2,1-2.1,3.1-3c-1.9-0.5-2.5-1-2.5-2c0-1.1,0.8-2,2.5-2.8c-1.4-0.9-2.1-2-2.1-3.6v-4.9
		c0-2.3,1.8-3.8,4.5-3.8c1.7,0,2.8,0.5,3.8,1.6c0.7-1,1.5-1.5,2.8-1.6V19.3z M128.7,35.7c0,1,1,1.5,2.5,1.5c1.7,0,2.8-0.7,2.8-1.7
		c0-1.1-0.6-1.3-3.4-1.6C129.2,34.6,128.7,35,128.7,35.7z M132,20.5c0-0.8-0.5-1.3-1.3-1.3c-0.9,0-1.3,0.4-1.3,1.3v4.9
		c0,0.8,0.5,1.3,1.3,1.3c0.8,0,1.3-0.4,1.3-1.3V20.5z"/>
</g>
<g>
	<path class="st0" d="M28.1,72.9l-1.8-8.5l-1.8,8.5H22L19.1,58H22l1.5,8l1.6-8h2.4l1.7,8.1l1.5-8.1h2.9l-2.9,14.9H28.1z"/>
	<path class="st0" d="M42.5,55.6h-3.3v-2.7h3.3V55.6z M42.5,72.9h-3.3V58h3.3V72.9z"/>
	<path class="st0" d="M53,60.4v8.8c0,1,0.5,1.4,1.7,1.4l0.6,0v2.4c-0.9,0.2-1.4,0.2-1.9,0.2c-2.4,0-3.7-1-3.7-3.1v-9.7h-1.6V58h1.6
		V54H53V58h2.3v2.4H53z"/>
	<path class="st0" d="M60.7,52.9H64v6.5c1.2-1.2,2.1-1.6,3.1-1.6c0.8,0,1.6,0.4,2,0.9c0.4,0.5,0.5,1.1,0.5,2.6v11.6h-3.3V61.3
		c0-0.8-0.3-1.1-0.8-1.1c-0.4,0-0.8,0.2-1.5,0.6v12.1h-3.3V52.9z"/>
	<path class="st0" d="M91.9,72.9l-0.1-1.4c-1.2,1.2-2.1,1.6-3.1,1.6c-0.8,0-1.6-0.4-2-0.9c-0.4-0.5-0.5-1.1-0.5-2.6v-8.3
		c0-1.5,0.1-2.1,0.5-2.6c0.4-0.5,1.2-0.9,2-0.9c1,0,1.8,0.4,3.1,1.6v-6.5h3.3v20H91.9z M91.9,60.8c-0.7-0.4-1-0.6-1.5-0.6
		c-0.6,0-0.8,0.4-0.8,1.1v8.3c0,0.7,0.3,1.1,0.8,1.1c0.4,0,0.8-0.2,1.5-0.6V60.8z"/>
	<path class="st0" d="M107.2,72.9c-0.1-0.3-0.2-0.8-0.2-1.2c-0.8,1-1.7,1.4-2.8,1.4c-1.9,0-2.9-1.3-2.9-3.8c0-1.6,0.5-2.7,1.6-3.7
		c0.8-0.7,0.8-0.7,3.4-2.1c0.1,0,0.3-0.2,0.6-0.3v-1.7c0-1.1-0.1-1.4-1-1.4c-1,0-1.2,0.4-1.4,2.2h-3.2c0.2-1.6,0.4-2.3,0.9-3
		c0.7-1.1,2-1.6,3.7-1.6c2.7,0,4.2,1.3,4.2,3.6v9.1c0,1.3,0,1.6,0.3,2.4H107.2z M107,65.3c-1.8,1.2-2.4,2.2-2.4,3.9
		c0,1,0.3,1.6,1,1.6c0.5,0,0.9-0.2,1.4-0.8V65.3z"/>
	<path class="st0" d="M120.9,60.4v8.8c0,1,0.5,1.4,1.7,1.4l0.6,0v2.4c-0.9,0.2-1.4,0.2-1.9,0.2c-2.4,0-3.7-1-3.7-3.1v-9.7H116V58
		h1.6V54h3.3V58h2.3v2.4H120.9z"/>
	<path class="st0" d="M134.2,72.9c-0.1-0.3-0.2-0.8-0.2-1.2c-0.8,1-1.7,1.4-2.8,1.4c-1.9,0-2.9-1.3-2.9-3.8c0-1.6,0.5-2.7,1.6-3.7
		c0.8-0.7,0.8-0.7,3.4-2.1c0.1,0,0.3-0.2,0.6-0.3v-1.7c0-1.1-0.1-1.4-1-1.4c-1,0-1.2,0.4-1.4,2.2h-3.2c0.2-1.6,0.4-2.3,0.9-3
		c0.7-1.1,2-1.6,3.7-1.6c2.7,0,4.2,1.3,4.2,3.6v9.1c0,1.3,0,1.6,0.3,2.4H134.2z M134,65.3c-1.8,1.2-2.4,2.2-2.4,3.9
		c0,1,0.3,1.6,1,1.6c0.5,0,0.9-0.2,1.4-0.8V65.3z"/>
</g>
</svg>
