<svg id="Layer_1" data-name="Layer 1" xmlns="http://www.w3.org/2000/svg" viewBox="0 0 250.21 28.69"><defs><style>.cls-1{fill:#231f20;}</style></defs><title>homepage-title_bw_cap</title><path class="cls-1" d="M4.77,1c3.45,0,4.72.34,5.87,1.49s1.53,2.38,1.53,5.27S11.83,12,10.68,13s-2.76,1.46-5.14,1.46H5v9.21H1V1Zm.77,10.54c2.34,0,2.8-.61,2.8-3.81S7.88,4,5.54,4H5v7.58Z" transform="translate(-1.03 -1.02)"/><path class="cls-1" d="M25.47,23.69a5.33,5.33,0,0,1-.25-1.36,3.92,3.92,0,0,1-3.15,1.6c-2.12,0-3.23-1.46-3.23-4.28a5.24,5.24,0,0,1,1.79-4.22c.89-.78.89-.78,3.86-2.34l.73-.38v-1.9c0-1.29-.17-1.53-1.15-1.53s-1.36.44-1.53,2.48H19a6.53,6.53,0,0,1,1-3.4,4.72,4.72,0,0,1,4.16-1.8c3.1,0,4.8,1.43,4.8,4V21a6,6,0,0,0,.38,2.72ZM25.22,15c-2,1.33-2.68,2.45-2.68,4.39,0,1.16.38,1.77,1.15,1.77a2,2,0,0,0,1.53-.89Z" transform="translate(-1.03 -1.02)"/><path class="cls-1" d="M40.09,4h-3.7V1h3.7Zm0,19.65h-3.7V6.8h3.7Z" transform="translate(-1.03 -1.02)"/><path class="cls-1" d="M51.1,6.8l.08,1.46c1.53-1.29,2.38-1.7,3.44-1.7a3.06,3.06,0,0,1,2.26,1c.46.58.59,1.23.59,2.93V23.69h-3.7V10.54c0-.85-.29-1.26-.93-1.26a2.85,2.85,0,0,0-1.66.68V23.69H47.49V6.8Z" transform="translate(-1.03 -1.02)"/><path class="cls-1" d="M69.46,9.52v9.92c0,1.09.59,1.57,1.91,1.57l.68,0v2.72a12.7,12.7,0,0,1-2.13.24c-2.71,0-4.16-1.19-4.16-3.47V9.52H64V6.8h1.78V2.17h3.7V6.8h2.59V9.52Z" transform="translate(-1.03 -1.02)"/><path class="cls-1" d="M81.91,4h-3.7V1h3.7Zm0,19.65h-3.7V6.8h3.7Z" transform="translate(-1.03 -1.02)"/><path class="cls-1" d="M92.92,6.8,93,8.26c1.53-1.29,2.38-1.7,3.44-1.7a3.06,3.06,0,0,1,2.26,1c.46.58.59,1.23.59,2.93V23.69h-3.7V10.54c0-.85-.29-1.26-.93-1.26A2.85,2.85,0,0,0,93,10V23.69H89.3V6.8Z" transform="translate(-1.03 -1.02)"/><path class="cls-1" d="M118,9.35a3.35,3.35,0,0,0-.89-.14,2.16,2.16,0,0,0-1.11.31v5.3c0,2.89-1.61,4.56-4.37,4.56a8.71,8.71,0,0,1-1,0c-.72.14-1.06.38-1.06.82s.34.71,1,.92a20,20,0,0,0,3.32.44c2.68.27,4.33,1.73,4.33,3.84,0,2.62-2.59,4.35-6.5,4.35-3.65,0-5.86-1.15-5.86-3.06,0-1.15,1-2.07,3.14-3-1.87-.51-2.5-1-2.5-2s.8-2,2.5-2.76a3.87,3.87,0,0,1-2.08-3.63V10.4c0-2.31,1.79-3.84,4.5-3.84a4.71,4.71,0,0,1,3.83,1.56A3.33,3.33,0,0,1,118,6.56Zm-8.5,16.35c0,.95,1,1.53,2.51,1.53s2.76-.68,2.76-1.7-.64-1.33-3.4-1.56C109.92,24.58,109.49,25,109.49,25.7Zm3.27-15.2a1.32,1.32,0,0,0-2.63,0v4.9a1.32,1.32,0,0,0,2.63,0Z" transform="translate(-1.03 -1.02)"/><path class="cls-1" d="M140.47,23.69l-1.76-8.55-1.84,8.55H134.4l-2.93-14.9h2.93l1.5,8,1.57-8h2.4l1.65,8.12L143,8.79h2.85L143,23.69Z" transform="translate(-1.03 -1.02)"/><path class="cls-1" d="M154.87,6.35h-3.26V3.69h3.26Zm0,17.34h-3.26V8.79h3.26Z" transform="translate(-1.03 -1.02)"/><path class="cls-1" d="M165.41,11.19v8.75c0,1,.52,1.38,1.69,1.38l.6,0v2.4a11.21,11.21,0,0,1-1.88.21c-2.4,0-3.67-1-3.67-3.06V11.19h-1.58V8.79h1.58V4.71h3.26V8.79h2.29v2.4Z" transform="translate(-1.03 -1.02)"/><path class="cls-1" d="M173.13,3.69h3.27v6.5c1.23-1.17,2.06-1.61,3.07-1.61a2.59,2.59,0,0,1,1.95.86c.41.52.53,1.08.53,2.64V23.69h-3.27V12.08c0-.75-.26-1.11-.82-1.11a2.55,2.55,0,0,0-1.46.6V23.69h-3.27Z" transform="translate(-1.03 -1.02)"/><path class="cls-1" d="M202.53,3.69c2.44,0,3.57.27,4.62,1.1a4.22,4.22,0,0,1,1.57,3.52V19.07a4.2,4.2,0,0,1-1.57,3.51c-1.05.84-2.18,1.11-4.62,1.11h-3.71v-20Zm.23,17.39c1.91,0,2.47-.45,2.47-2V8.31c0-1.54-.6-2-2.47-2h-.45V21.08Z" transform="translate(-1.03 -1.02)"/><path class="cls-1" d="M220.91,23.69a5.11,5.11,0,0,1-.23-1.2,3.42,3.42,0,0,1-2.77,1.41c-1.88,0-2.85-1.29-2.85-3.78a4.62,4.62,0,0,1,1.57-3.72c.79-.69.79-.69,3.42-2.07l.63-.33V12.32c0-1.13-.15-1.35-1-1.35s-1.2.39-1.35,2.19h-3.15a5.77,5.77,0,0,1,.86-3,4.17,4.17,0,0,1,3.68-1.59c2.74,0,4.24,1.25,4.24,3.57v9.14a5.3,5.3,0,0,0,.33,2.4ZM220.68,16c-1.76,1.17-2.36,2.16-2.36,3.87,0,1,.34,1.56,1,1.56a1.73,1.73,0,0,0,1.35-.78Z" transform="translate(-1.03 -1.02)"/><path class="cls-1" d="M234.56,11.19v8.75c0,1,.52,1.38,1.69,1.38l.6,0v2.4a11.21,11.21,0,0,1-1.88.21c-2.4,0-3.68-1-3.68-3.06V11.19h-1.57V8.79h1.57V4.71h3.27V8.79h2.29v2.4Z" transform="translate(-1.03 -1.02)"/><path class="cls-1" d="M247.87,23.69a4.68,4.68,0,0,1-.22-1.2,3.45,3.45,0,0,1-2.78,1.41c-1.88,0-2.85-1.29-2.85-3.78a4.63,4.63,0,0,1,1.58-3.72c.78-.69.78-.69,3.41-2.07l.64-.33V12.32c0-1.13-.15-1.35-1-1.35s-1.2.39-1.35,2.19h-3.15a5.86,5.86,0,0,1,.86-3,4.17,4.17,0,0,1,3.68-1.59c2.74,0,4.24,1.25,4.24,3.57v9.14a5.28,5.28,0,0,0,.34,2.4ZM247.65,16c-1.77,1.17-2.37,2.16-2.37,3.87,0,1,.34,1.56,1,1.56a1.75,1.75,0,0,0,1.35-.78Z" transform="translate(-1.03 -1.02)"/></svg>