<svg id="Layer_1" data-name="Layer 1" xmlns="http://www.w3.org/2000/svg" viewBox="0 0 242.7 28.7"><title>homepage-title_bw2</title><path d="M5.9,6.8,6,8.4C7.4,7.1,8.3,6.6,9.5,6.6a2.72,2.72,0,0,1,2.2,1c.5.6.6,1.2.6,3V20c0,1.7-.1,2.4-.6,3a2.72,2.72,0,0,1-2.2,1c-1.1,0-2.1-.5-3.5-1.8v7.4H2.2V6.8Zm0,13.7c.8.5,1.1.7,1.7.7s.9-.4.9-1.3V10.5c0-.8-.3-1.3-.9-1.3a3.19,3.19,0,0,0-1.7.7Z" transform="translate(-2.2 -1)"/><path d="M26,23.7a10.63,10.63,0,0,1-.3-1.4,3.84,3.84,0,0,1-3.1,1.6c-2.1,0-3.2-1.5-3.2-4.3a5.3,5.3,0,0,1,1.8-4.2c.9-.8.9-.8,3.9-2.3a7.76,7.76,0,0,0,.7-.4V10.8c0-1.3-.2-1.5-1.1-1.5-1.1,0-1.4.4-1.5,2.5H19.6a6.22,6.22,0,0,1,1-3.4,4.79,4.79,0,0,1,4.2-1.8c3.1,0,4.8,1.4,4.8,4V21a5.12,5.12,0,0,0,.4,2.7ZM25.7,15c-2,1.3-2.7,2.4-2.7,4.4,0,1.2.4,1.8,1.1,1.8a1.89,1.89,0,0,0,1.5-.9V15Z" transform="translate(-2.2 -1)"/><path d="M40.6,4H36.9V1h3.7Zm0,19.7H36.9V6.8h3.7Z" transform="translate(-2.2 -1)"/><path d="M51.6,6.8l.1,1.5C53.2,7,54,6.6,55.1,6.6a3.08,3.08,0,0,1,2.3,1c.5.6.6,1.2.6,2.9V23.8H54.3V10.5c0-.9-.3-1.3-.9-1.3a3.19,3.19,0,0,0-1.7.7V23.6H48V6.8Z" transform="translate(-2.2 -1)"/><path d="M69.9,9.5v9.9c0,1.1.6,1.6,1.9,1.6h.7v2.7a9.48,9.48,0,0,1-2.1.2c-2.7,0-4.2-1.2-4.2-3.5V9.5H64.4V6.8h1.8V2.2h3.7V6.8h2.6V9.5Z" transform="translate(-2.2 -1)"/><path d="M82.4,4H78.7V1h3.7Zm0,19.7H78.7V6.8h3.7Z" transform="translate(-2.2 -1)"/><path d="M93.4,6.8l.1,1.5C95,7,95.9,6.6,96.9,6.6a3.08,3.08,0,0,1,2.3,1c.5.6.6,1.2.6,2.9V23.8H96.1V10.5c0-.9-.3-1.3-.9-1.3a3.19,3.19,0,0,0-1.7.7V23.6H89.8V6.8Z" transform="translate(-2.2 -1)"/><path d="M118.5,9.3a3.08,3.08,0,0,0-.9-.1,2.61,2.61,0,0,0-1.1.3v5.3c0,2.9-1.6,4.6-4.4,4.6h-1c-.7.1-1.1.4-1.1.8s.3.7,1,.9c.5.1.5.1,3.3.4s4.3,1.7,4.3,3.8c0,2.6-2.6,4.4-6.5,4.4-3.7,0-5.9-1.2-5.9-3.1,0-1.2,1-2.1,3.1-3-1.9-.5-2.5-1-2.5-2s.8-2,2.5-2.8a4,4,0,0,1-2.1-3.6V10.3c0-2.3,1.8-3.8,4.5-3.8a4.64,4.64,0,0,1,3.8,1.6,3.41,3.41,0,0,1,2.8-1.6V9.3ZM110,25.7c0,1,1,1.5,2.5,1.5,1.7,0,2.8-.7,2.8-1.7s-.6-1.3-3.4-1.6C110.4,24.6,110,25,110,25.7Zm3.2-15.2a1.21,1.21,0,0,0-1.3-1.3c-.9,0-1.3.4-1.3,1.3v4.9a1.21,1.21,0,0,0,1.3,1.3,1.16,1.16,0,0,0,1.3-1.3Z" transform="translate(-2.2 -1)"/><path d="M135.6,22.8l-1.8-8.5L132,22.8h-2.5L126.6,7.9h2.9l1.5,8,1.6-8H135l1.7,8.1,1.5-8.1h2.9l-2.9,14.9Z" transform="translate(-2.2 -1)"/><path d="M150,5.5h-3.3V2.8H150Zm0,17.3h-3.3V7.9H150Z" transform="translate(-2.2 -1)"/><path d="M160.5,10.3v8.8c0,1,.5,1.4,1.7,1.4h.6v2.4a7.57,7.57,0,0,1-1.9.2c-2.4,0-3.7-1-3.7-3.1V10.3h-1.6V7.9h1.7v-4h3.3v4h2.3v2.4Z" transform="translate(-2.2 -1)"/><path d="M168.3,2.8h3.3V9.3a4.25,4.25,0,0,1,3.1-1.6,2.69,2.69,0,0,1,2,.9c.4.5.5,1.1.5,2.6V22.8h-3.3V11.2c0-.8-.3-1.1-.8-1.1a3.27,3.27,0,0,0-1.5.6V22.8h-3.3Z" transform="translate(-2.2 -1)"/><path d="M199.5,22.8l-.1-1.4a4.25,4.25,0,0,1-3.1,1.6,2.69,2.69,0,0,1-2-.9c-.4-.5-.5-1.1-.5-2.6V11.2c0-1.5.1-2.1.5-2.6a2.69,2.69,0,0,1,2-.9c1,0,1.8.4,3.1,1.6V2.8h3.3v20Zm-.1-12.1a2.92,2.92,0,0,0-1.5-.6c-.6,0-.8.4-.8,1.1v8.3c0,.7.3,1.1.8,1.1a3.27,3.27,0,0,0,1.5-.6Z" transform="translate(-2.2 -1)"/><path d="M214.8,22.8a4.3,4.3,0,0,1-.2-1.2,3.36,3.36,0,0,1-2.8,1.4c-1.9,0-2.9-1.3-2.9-3.8a4.57,4.57,0,0,1,1.6-3.7,20.09,20.09,0,0,1,3.4-2c.1,0,.3-.2.6-.3V11.5c0-1.1-.1-1.4-1-1.4s-1.2.4-1.4,2.2h-3.2a5.89,5.89,0,0,1,.9-3,4.09,4.09,0,0,1,3.7-1.6c2.7,0,4.2,1.3,4.2,3.6v9.1a5.38,5.38,0,0,0,.3,2.4Zm-.3-7.6c-1.8,1.2-2.4,2.2-2.4,3.9,0,1,.3,1.6,1,1.6a1.73,1.73,0,0,0,1.4-.8Z" transform="translate(-2.2 -1)"/><path d="M228.4,10.3v8.8c0,1,.5,1.4,1.7,1.4h.6v2.4a7.57,7.57,0,0,1-1.9.2c-2.4,0-3.7-1-3.7-3.1V10.3h-1.6V7.9h1.6v-4h3.3v4h2.3v2.4Z" transform="translate(-2.2 -1)"/><path d="M241.7,22.8a4.3,4.3,0,0,1-.2-1.2,3.36,3.36,0,0,1-2.8,1.4c-1.9,0-2.9-1.3-2.9-3.8a4.57,4.57,0,0,1,1.6-3.7c.8-.7.8-.7,3.4-2.1.1,0,.3-.2.6-.3V11.4c0-1.1-.1-1.4-1-1.4s-1.2.4-1.4,2.2h-3.2a5.89,5.89,0,0,1,.9-3,4.09,4.09,0,0,1,3.7-1.6c2.7,0,4.2,1.3,4.2,3.6v9.1a5.38,5.38,0,0,0,.3,2.4h-3.2Zm-.2-7.6c-1.8,1.2-2.4,2.2-2.4,3.9,0,1,.3,1.6,1,1.6a1.73,1.73,0,0,0,1.4-.8Z" transform="translate(-2.2 -1)"/></svg>