<?xml version="1.0" encoding="utf-8"?>
<!-- Generator: Adobe Illustrator 22.0.1, SVG Export Plug-In . SVG Version: 6.00 Build 0)  -->
<svg version="1.1" xmlns="http://www.w3.org/2000/svg" xmlns:xlink="http://www.w3.org/1999/xlink" x="0px" y="0px"
	 viewBox="0 0 61.9 61.2" style="enable-background:new 0 0 61.9 61.2;" xml:space="preserve">
<style type="text/css">
	.st0{fill:#FE7A6A;}
	.st1{clip-path:url(#SVGID_2_);}
	.st2{fill:#E6E7E8;}
</style>
<g id="Layer_2">
	<circle class="st0" cx="30.5" cy="30.6" r="30.3"/>
</g>
<g id="Layer_1">
	<g>
		<defs>
			<circle id="SVGID_1_" cx="30.5" cy="30.6" r="30.3"/>
		</defs>
		<clipPath id="SVGID_2_">
			<use xlink:href="#SVGID_1_"  style="overflow:visible;"/>
		</clipPath>
		<g class="st1">
			<g>
				<circle class="st2" cx="-1" cy="1.6" r="1.2"/>
			</g>
			<g>
				<circle class="st2" cx="30.6" cy="1.6" r="1.2"/>
			</g>
			<g>
				<circle class="st2" cx="26.6" cy="1.6" r="1.2"/>
			</g>
			<g>
				<circle class="st2" cx="22.7" cy="1.6" r="1.2"/>
			</g>
			<g>
				<circle class="st2" cx="18.7" cy="1.6" r="1.2"/>
			</g>
			<g>
				<circle class="st2" cx="14.8" cy="1.6" r="1.2"/>
			</g>
			<g>
				<circle class="st2" cx="10.8" cy="1.6" r="1.2"/>
			</g>
			<g>
				<circle class="st2" cx="6.9" cy="1.6" r="1.2"/>
			</g>
			<g>
				<circle class="st2" cx="2.9" cy="1.6" r="1.2"/>
			</g>
			<g>
				<circle class="st2" cx="34.5" cy="1.6" r="1.2"/>
			</g>
			<g>
				<circle class="st2" cx="42.5" cy="1.6" r="1.2"/>
			</g>
			<g>
				<circle class="st2" cx="38.5" cy="1.6" r="1.2"/>
			</g>
			<g>
				<circle class="st2" cx="46.4" cy="1.6" r="1.2"/>
			</g>
			<g>
				<circle class="st2" cx="50.4" cy="1.6" r="1.2"/>
			</g>
			<g>
				<circle class="st2" cx="82" cy="1.6" r="1.2"/>
			</g>
			<g>
				<circle class="st2" cx="78" cy="1.6" r="1.2"/>
			</g>
			<g>
				<circle class="st2" cx="74.1" cy="1.6" r="1.2"/>
			</g>
			<g>
				<circle class="st2" cx="70.1" cy="1.6" r="1.2"/>
			</g>
			<g>
				<circle class="st2" cx="66.2" cy="1.6" r="1.2"/>
			</g>
			<g>
				<circle class="st2" cx="62.2" cy="1.6" r="1.2"/>
			</g>
			<g>
				<circle class="st2" cx="58.3" cy="1.6" r="1.2"/>
			</g>
			<g>
				<circle class="st2" cx="54.3" cy="1.6" r="1.2"/>
			</g>
			<g>
				<circle class="st2" cx="86" cy="1.6" r="1.2"/>
			</g>
			<g>
				<circle class="st2" cx="89.9" cy="1.6" r="1.2"/>
			</g>
			<g>
				<circle class="st2" cx="93.9" cy="1.6" r="1.2"/>
			</g>
			<g>
				<circle class="st2" cx="-1" cy="5.5" r="1.2"/>
			</g>
			<g>
				<circle class="st2" cx="30.6" cy="5.5" r="1.2"/>
			</g>
			<g>
				<circle class="st2" cx="26.6" cy="5.5" r="1.2"/>
			</g>
			<g>
				<circle class="st2" cx="22.7" cy="5.5" r="1.2"/>
			</g>
			<g>
				<circle class="st2" cx="18.7" cy="5.5" r="1.2"/>
			</g>
			<g>
				<circle class="st2" cx="14.8" cy="5.5" r="1.2"/>
			</g>
			<g>
				<circle class="st2" cx="10.8" cy="5.5" r="1.2"/>
			</g>
			<g>
				<circle class="st2" cx="6.9" cy="5.5" r="1.2"/>
			</g>
			<g>
				<circle class="st2" cx="2.9" cy="5.5" r="1.2"/>
			</g>
			<g>
				<circle class="st2" cx="34.5" cy="5.5" r="1.2"/>
			</g>
			<g>
				<circle class="st2" cx="42.5" cy="5.5" r="1.2"/>
			</g>
			<g>
				<circle class="st2" cx="38.5" cy="5.5" r="1.2"/>
			</g>
			<g>
				<circle class="st2" cx="46.4" cy="5.5" r="1.2"/>
			</g>
			<g>
				<circle class="st2" cx="50.4" cy="5.5" r="1.2"/>
			</g>
			<g>
				<circle class="st2" cx="82" cy="5.5" r="1.2"/>
			</g>
			<g>
				<circle class="st2" cx="78" cy="5.5" r="1.2"/>
			</g>
			<g>
				<circle class="st2" cx="74.1" cy="5.5" r="1.2"/>
			</g>
			<g>
				<circle class="st2" cx="70.1" cy="5.5" r="1.2"/>
			</g>
			<g>
				<circle class="st2" cx="66.2" cy="5.5" r="1.2"/>
			</g>
			<g>
				<circle class="st2" cx="62.2" cy="5.5" r="1.2"/>
			</g>
			<g>
				<circle class="st2" cx="58.3" cy="5.5" r="1.2"/>
			</g>
			<g>
				<circle class="st2" cx="54.3" cy="5.5" r="1.2"/>
			</g>
			<g>
				<circle class="st2" cx="86" cy="5.5" r="1.2"/>
			</g>
			<g>
				<circle class="st2" cx="89.9" cy="5.5" r="1.2"/>
			</g>
			<g>
				<circle class="st2" cx="93.9" cy="5.5" r="1.2"/>
			</g>
			<g>
				<circle class="st2" cx="-1" cy="9.3" r="1.2"/>
			</g>
			<g>
				<circle class="st2" cx="30.6" cy="9.3" r="1.2"/>
			</g>
			<g>
				<circle class="st2" cx="26.6" cy="9.3" r="1.2"/>
			</g>
			<g>
				<circle class="st2" cx="22.7" cy="9.3" r="1.2"/>
			</g>
			<g>
				<circle class="st2" cx="18.7" cy="9.3" r="1.2"/>
			</g>
			<g>
				<circle class="st2" cx="14.8" cy="9.3" r="1.2"/>
			</g>
			<g>
				<circle class="st2" cx="10.8" cy="9.3" r="1.2"/>
			</g>
			<g>
				<circle class="st2" cx="6.9" cy="9.3" r="1.2"/>
			</g>
			<g>
				<circle class="st2" cx="2.9" cy="9.3" r="1.2"/>
			</g>
			<g>
				<circle class="st2" cx="34.5" cy="9.3" r="1.2"/>
			</g>
			<g>
				<circle class="st2" cx="42.5" cy="9.3" r="1.2"/>
			</g>
			<g>
				<circle class="st2" cx="38.5" cy="9.3" r="1.2"/>
			</g>
			<g>
				<circle class="st2" cx="46.4" cy="9.3" r="1.2"/>
			</g>
			<g>
				<circle class="st2" cx="50.4" cy="9.3" r="1.2"/>
			</g>
			<g>
				<circle class="st2" cx="82" cy="9.3" r="1.2"/>
			</g>
			<g>
				<circle class="st2" cx="78" cy="9.3" r="1.2"/>
			</g>
			<g>
				<circle class="st2" cx="74.1" cy="9.3" r="1.2"/>
			</g>
			<g>
				<circle class="st2" cx="70.1" cy="9.3" r="1.2"/>
			</g>
			<g>
				<circle class="st2" cx="66.2" cy="9.3" r="1.2"/>
			</g>
			<g>
				<circle class="st2" cx="62.2" cy="9.3" r="1.2"/>
			</g>
			<g>
				<circle class="st2" cx="58.3" cy="9.3" r="1.2"/>
			</g>
			<g>
				<circle class="st2" cx="54.3" cy="9.3" r="1.2"/>
			</g>
			<g>
				<circle class="st2" cx="86" cy="9.3" r="1.2"/>
			</g>
			<g>
				<circle class="st2" cx="89.9" cy="9.3" r="1.2"/>
			</g>
			<g>
				<circle class="st2" cx="93.9" cy="9.3" r="1.2"/>
			</g>
			<g>
				<circle class="st2" cx="-1" cy="13.2" r="1.2"/>
			</g>
			<g>
				<circle class="st2" cx="30.6" cy="13.2" r="1.2"/>
			</g>
			<g>
				<circle class="st2" cx="26.6" cy="13.2" r="1.2"/>
			</g>
			<g>
				<circle class="st2" cx="22.7" cy="13.2" r="1.2"/>
			</g>
			<g>
				<circle class="st2" cx="18.7" cy="13.2" r="1.2"/>
			</g>
			<g>
				<circle class="st2" cx="14.8" cy="13.2" r="1.2"/>
			</g>
			<g>
				<circle class="st2" cx="10.8" cy="13.2" r="1.2"/>
			</g>
			<g>
				<circle class="st2" cx="6.9" cy="13.2" r="1.2"/>
			</g>
			<g>
				<circle class="st2" cx="2.9" cy="13.2" r="1.2"/>
			</g>
			<g>
				<circle class="st2" cx="34.5" cy="13.2" r="1.2"/>
			</g>
			<g>
				<circle class="st2" cx="42.5" cy="13.2" r="1.2"/>
			</g>
			<g>
				<circle class="st2" cx="38.5" cy="13.2" r="1.2"/>
			</g>
			<g>
				<circle class="st2" cx="46.4" cy="13.2" r="1.2"/>
			</g>
			<g>
				<circle class="st2" cx="50.4" cy="13.2" r="1.2"/>
			</g>
			<g>
				<circle class="st2" cx="82" cy="13.2" r="1.2"/>
			</g>
			<g>
				<circle class="st2" cx="78" cy="13.2" r="1.2"/>
			</g>
			<g>
				<circle class="st2" cx="74.1" cy="13.2" r="1.2"/>
			</g>
			<g>
				<circle class="st2" cx="70.1" cy="13.2" r="1.2"/>
			</g>
			<g>
				<circle class="st2" cx="66.2" cy="13.2" r="1.2"/>
			</g>
			<g>
				<circle class="st2" cx="62.2" cy="13.2" r="1.2"/>
			</g>
			<g>
				<circle class="st2" cx="58.3" cy="13.2" r="1.2"/>
			</g>
			<g>
				<circle class="st2" cx="54.3" cy="13.2" r="1.2"/>
			</g>
			<g>
				<circle class="st2" cx="86" cy="13.2" r="1.2"/>
			</g>
			<g>
				<circle class="st2" cx="89.9" cy="13.2" r="1.2"/>
			</g>
			<g>
				<circle class="st2" cx="93.9" cy="13.2" r="1.2"/>
			</g>
			<g>
				<circle class="st2" cx="-1" cy="17" r="1.2"/>
			</g>
			<g>
				<circle class="st2" cx="30.6" cy="17" r="1.2"/>
			</g>
			<g>
				<circle class="st2" cx="26.6" cy="17" r="1.2"/>
			</g>
			<g>
				<circle class="st2" cx="22.7" cy="17" r="1.2"/>
			</g>
			<g>
				<circle class="st2" cx="18.7" cy="17" r="1.2"/>
			</g>
			<g>
				<circle class="st2" cx="14.8" cy="17" r="1.2"/>
			</g>
			<g>
				<circle class="st2" cx="10.8" cy="17" r="1.2"/>
			</g>
			<g>
				<circle class="st2" cx="34.5" cy="17" r="1.2"/>
			</g>
			<g>
				<circle class="st2" cx="42.5" cy="17" r="1.2"/>
			</g>
			<g>
				<circle class="st2" cx="38.5" cy="17" r="1.2"/>
			</g>
			<g>
				<circle class="st2" cx="46.4" cy="17" r="1.2"/>
			</g>
			<g>
				<circle class="st2" cx="50.4" cy="17" r="1.2"/>
			</g>
			<g>
				<circle class="st2" cx="82" cy="17" r="1.2"/>
			</g>
			<g>
				<circle class="st2" cx="78" cy="17" r="1.2"/>
			</g>
			<g>
				<circle class="st2" cx="74.1" cy="17" r="1.2"/>
			</g>
			<g>
				<circle class="st2" cx="70.1" cy="17" r="1.2"/>
			</g>
			<g>
				<circle class="st2" cx="66.2" cy="17" r="1.2"/>
			</g>
			<g>
				<circle class="st2" cx="62.2" cy="17" r="1.2"/>
			</g>
			<g>
				<circle class="st2" cx="58.3" cy="17" r="1.2"/>
			</g>
			<g>
				<circle class="st2" cx="54.3" cy="17" r="1.2"/>
			</g>
			<g>
				<circle class="st2" cx="86" cy="17" r="1.2"/>
			</g>
			<g>
				<circle class="st2" cx="89.9" cy="17" r="1.2"/>
			</g>
			<g>
				<circle class="st2" cx="93.9" cy="17" r="1.2"/>
			</g>
			<g>
				<circle class="st2" cx="-1" cy="20.8" r="1.2"/>
			</g>
			<g>
				<circle class="st2" cx="30.6" cy="20.8" r="1.2"/>
			</g>
			<g>
				<circle class="st2" cx="26.6" cy="20.8" r="1.2"/>
			</g>
			<g>
				<circle class="st2" cx="22.7" cy="20.8" r="1.2"/>
			</g>
			<g>
				<circle class="st2" cx="18.7" cy="20.8" r="1.2"/>
			</g>
			<g>
				<circle class="st2" cx="14.8" cy="20.8" r="1.2"/>
			</g>
			<g>
				<circle class="st2" cx="2.9" cy="20.8" r="1.2"/>
			</g>
			<g>
				<circle class="st2" cx="34.5" cy="20.8" r="1.2"/>
			</g>
			<g>
				<circle class="st2" cx="42.5" cy="20.8" r="1.2"/>
			</g>
			<g>
				<circle class="st2" cx="38.5" cy="20.8" r="1.2"/>
			</g>
			<g>
				<circle class="st2" cx="46.4" cy="20.8" r="1.2"/>
			</g>
			<g>
				<circle class="st2" cx="50.4" cy="20.8" r="1.2"/>
			</g>
			<g>
				<circle class="st2" cx="82" cy="20.8" r="1.2"/>
			</g>
			<g>
				<circle class="st2" cx="78" cy="20.8" r="1.2"/>
			</g>
			<g>
				<circle class="st2" cx="74.1" cy="20.8" r="1.2"/>
			</g>
			<g>
				<circle class="st2" cx="70.1" cy="20.8" r="1.2"/>
			</g>
			<g>
				<circle class="st2" cx="66.2" cy="20.8" r="1.2"/>
			</g>
			<g>
				<circle class="st2" cx="62.2" cy="20.8" r="1.2"/>
			</g>
			<g>
				<circle class="st2" cx="54.3" cy="20.8" r="1.2"/>
			</g>
			<g>
				<circle class="st2" cx="86" cy="20.8" r="1.2"/>
			</g>
			<g>
				<circle class="st2" cx="89.9" cy="20.8" r="1.2"/>
			</g>
			<g>
				<circle class="st2" cx="93.9" cy="20.8" r="1.2"/>
			</g>
			<g>
				<circle class="st2" cx="-1" cy="24.7" r="1.2"/>
			</g>
			<g>
				<circle class="st2" cx="30.6" cy="24.7" r="1.2"/>
			</g>
			<g>
				<circle class="st2" cx="26.6" cy="24.7" r="1.2"/>
			</g>
			<g>
				<circle class="st2" cx="22.7" cy="24.7" r="1.2"/>
			</g>
			<g>
				<circle class="st2" cx="18.7" cy="24.7" r="1.2"/>
			</g>
			<g>
				<circle class="st2" cx="6.9" cy="24.7" r="1.2"/>
			</g>
			<g>
				<circle class="st2" cx="2.9" cy="24.7" r="1.2"/>
			</g>
			<g>
				<circle class="st2" cx="34.5" cy="24.7" r="1.2"/>
			</g>
			<g>
				<circle class="st2" cx="42.5" cy="24.7" r="1.2"/>
			</g>
			<g>
				<circle class="st2" cx="38.5" cy="24.7" r="1.2"/>
			</g>
			<g>
				<circle class="st2" cx="46.4" cy="24.7" r="1.2"/>
			</g>
			<g>
				<circle class="st2" cx="50.4" cy="24.7" r="1.2"/>
			</g>
			<g>
				<circle class="st2" cx="82" cy="24.7" r="1.2"/>
			</g>
			<g>
				<circle class="st2" cx="78" cy="24.7" r="1.2"/>
			</g>
			<g>
				<circle class="st2" cx="74.1" cy="24.7" r="1.2"/>
			</g>
			<g>
				<circle class="st2" cx="70.1" cy="24.7" r="1.2"/>
			</g>
			<g>
				<circle class="st2" cx="66.2" cy="24.7" r="1.2"/>
			</g>
			<g>
				<circle class="st2" cx="62.2" cy="24.7" r="1.2"/>
			</g>
			<g>
				<circle class="st2" cx="86" cy="24.7" r="1.2"/>
			</g>
			<g>
				<circle class="st2" cx="89.9" cy="24.7" r="1.2"/>
			</g>
			<g>
				<circle class="st2" cx="93.9" cy="24.7" r="1.2"/>
			</g>
			<g>
				<circle class="st2" cx="-1" cy="28.5" r="1.2"/>
			</g>
			<g>
				<circle class="st2" cx="30.6" cy="28.5" r="1.2"/>
			</g>
			<g>
				<circle class="st2" cx="26.6" cy="28.5" r="1.2"/>
			</g>
			<g>
				<circle class="st2" cx="22.7" cy="28.5" r="1.2"/>
			</g>
			<g>
				<circle class="st2" cx="10.8" cy="28.5" r="1.2"/>
			</g>
			<g>
				<circle class="st2" cx="6.9" cy="28.5" r="1.2"/>
			</g>
			<g>
				<circle class="st2" cx="2.9" cy="28.5" r="1.2"/>
			</g>
			<g>
				<circle class="st2" cx="34.5" cy="28.5" r="1.2"/>
			</g>
			<g>
				<circle class="st2" cx="42.5" cy="28.5" r="1.2"/>
			</g>
			<g>
				<circle class="st2" cx="38.5" cy="28.5" r="1.2"/>
			</g>
			<g>
				<circle class="st2" cx="46.4" cy="28.5" r="1.2"/>
			</g>
			<g>
				<circle class="st2" cx="82" cy="28.5" r="1.2"/>
			</g>
			<g>
				<circle class="st2" cx="78" cy="28.5" r="1.2"/>
			</g>
			<g>
				<circle class="st2" cx="74.1" cy="28.5" r="1.2"/>
			</g>
			<g>
				<circle class="st2" cx="70.1" cy="28.5" r="1.2"/>
			</g>
			<g>
				<circle class="st2" cx="66.2" cy="28.5" r="1.2"/>
			</g>
			<g>
				<circle class="st2" cx="62.2" cy="28.5" r="1.2"/>
			</g>
			<g>
				<circle class="st2" cx="58.3" cy="28.5" r="1.2"/>
			</g>
			<g>
				<circle class="st2" cx="86" cy="28.5" r="1.2"/>
			</g>
			<g>
				<circle class="st2" cx="89.9" cy="28.5" r="1.2"/>
			</g>
			<g>
				<circle class="st2" cx="93.9" cy="28.5" r="1.2"/>
			</g>
			<g>
				<circle class="st2" cx="-1" cy="36.2" r="1.2"/>
			</g>
			<g>
				<circle class="st2" cx="30.6" cy="36.2" r="1.2"/>
			</g>
			<g>
				<circle class="st2" cx="18.7" cy="36.2" r="1.2"/>
			</g>
			<g>
				<circle class="st2" cx="14.8" cy="36.2" r="1.2"/>
			</g>
			<g>
				<circle class="st2" cx="10.8" cy="36.2" r="1.2"/>
			</g>
			<g>
				<circle class="st2" cx="6.9" cy="36.2" r="1.2"/>
			</g>
			<g>
				<circle class="st2" cx="2.9" cy="36.2" r="1.2"/>
			</g>
			<g>
				<circle class="st2" cx="34.5" cy="36.2" r="1.2"/>
			</g>
			<g>
				<circle class="st2" cx="38.5" cy="36.2" r="1.2"/>
			</g>
			<g>
				<circle class="st2" cx="50.4" cy="36.2" r="1.2"/>
			</g>
			<g>
				<circle class="st2" cx="82" cy="36.2" r="1.2"/>
			</g>
			<g>
				<circle class="st2" cx="78" cy="36.2" r="1.2"/>
			</g>
			<g>
				<circle class="st2" cx="74.1" cy="36.2" r="1.2"/>
			</g>
			<g>
				<circle class="st2" cx="70.1" cy="36.2" r="1.2"/>
			</g>
			<g>
				<circle class="st2" cx="66.2" cy="36.2" r="1.2"/>
			</g>
			<g>
				<circle class="st2" cx="62.2" cy="36.2" r="1.2"/>
			</g>
			<g>
				<circle class="st2" cx="58.3" cy="36.2" r="1.2"/>
			</g>
			<g>
				<circle class="st2" cx="54.3" cy="36.2" r="1.2"/>
			</g>
			<g>
				<circle class="st2" cx="86" cy="36.2" r="1.2"/>
			</g>
			<g>
				<circle class="st2" cx="89.9" cy="36.2" r="1.2"/>
			</g>
			<g>
				<circle class="st2" cx="93.9" cy="36.2" r="1.2"/>
			</g>
			<g>
				<circle class="st2" cx="-1" cy="40" r="1.2"/>
			</g>
			<g>
				<circle class="st2" cx="22.7" cy="40" r="1.2"/>
			</g>
			<g>
				<circle class="st2" cx="18.7" cy="40" r="1.2"/>
			</g>
			<g>
				<circle class="st2" cx="14.8" cy="40" r="1.2"/>
			</g>
			<g>
				<circle class="st2" cx="10.8" cy="40" r="1.2"/>
			</g>
			<g>
				<circle class="st2" cx="6.9" cy="40" r="1.2"/>
			</g>
			<g>
				<circle class="st2" cx="2.9" cy="40" r="1.2"/>
			</g>
			<g>
				<circle class="st2" cx="34.5" cy="40" r="1.2"/>
			</g>
			<g>
				<circle class="st2" cx="46.4" cy="40" r="1.2"/>
			</g>
			<g>
				<circle class="st2" cx="50.4" cy="40" r="1.2"/>
			</g>
			<g>
				<circle class="st2" cx="82" cy="40" r="1.2"/>
			</g>
			<g>
				<circle class="st2" cx="78" cy="40" r="1.2"/>
			</g>
			<g>
				<circle class="st2" cx="74.1" cy="40" r="1.2"/>
			</g>
			<g>
				<circle class="st2" cx="70.1" cy="40" r="1.2"/>
			</g>
			<g>
				<circle class="st2" cx="66.2" cy="40" r="1.2"/>
			</g>
			<g>
				<circle class="st2" cx="62.2" cy="40" r="1.2"/>
			</g>
			<g>
				<circle class="st2" cx="58.3" cy="40" r="1.2"/>
			</g>
			<g>
				<circle class="st2" cx="54.3" cy="40" r="1.2"/>
			</g>
			<g>
				<circle class="st2" cx="86" cy="40" r="1.2"/>
			</g>
			<g>
				<circle class="st2" cx="89.9" cy="40" r="1.2"/>
			</g>
			<g>
				<circle class="st2" cx="93.9" cy="40" r="1.2"/>
			</g>
			<g>
				<circle class="st2" cx="-1" cy="43.9" r="1.2"/>
			</g>
			<g>
				<circle class="st2" cx="26.6" cy="43.9" r="1.2"/>
			</g>
			<g>
				<circle class="st2" cx="22.7" cy="43.9" r="1.2"/>
			</g>
			<g>
				<circle class="st2" cx="18.7" cy="43.9" r="1.2"/>
			</g>
			<g>
				<circle class="st2" cx="14.8" cy="43.9" r="1.2"/>
			</g>
			<g>
				<circle class="st2" cx="10.8" cy="43.9" r="1.2"/>
			</g>
			<g>
				<circle class="st2" cx="6.9" cy="43.9" r="1.2"/>
			</g>
			<g>
				<circle class="st2" cx="2.9" cy="43.9" r="1.2"/>
			</g>
			<g>
				<circle class="st2" cx="42.5" cy="43.9" r="1.2"/>
			</g>
			<g>
				<circle class="st2" cx="46.4" cy="43.9" r="1.2"/>
			</g>
			<g>
				<circle class="st2" cx="50.4" cy="43.9" r="1.2"/>
			</g>
			<g>
				<circle class="st2" cx="82" cy="43.9" r="1.2"/>
			</g>
			<g>
				<circle class="st2" cx="78" cy="43.9" r="1.2"/>
			</g>
			<g>
				<circle class="st2" cx="74.1" cy="43.9" r="1.2"/>
			</g>
			<g>
				<circle class="st2" cx="70.1" cy="43.9" r="1.2"/>
			</g>
			<g>
				<circle class="st2" cx="66.2" cy="43.9" r="1.2"/>
			</g>
			<g>
				<circle class="st2" cx="62.2" cy="43.9" r="1.2"/>
			</g>
			<g>
				<circle class="st2" cx="58.3" cy="43.9" r="1.2"/>
			</g>
			<g>
				<circle class="st2" cx="54.3" cy="43.9" r="1.2"/>
			</g>
			<g>
				<circle class="st2" cx="86" cy="43.9" r="1.2"/>
			</g>
			<g>
				<circle class="st2" cx="89.9" cy="43.9" r="1.2"/>
			</g>
			<g>
				<circle class="st2" cx="93.9" cy="43.9" r="1.2"/>
			</g>
			<g>
				<circle class="st2" cx="-1" cy="47.7" r="1.2"/>
			</g>
			<g>
				<circle class="st2" cx="26.6" cy="47.7" r="1.2"/>
			</g>
			<g>
				<circle class="st2" cx="22.7" cy="47.7" r="1.2"/>
			</g>
			<g>
				<circle class="st2" cx="18.7" cy="47.7" r="1.2"/>
			</g>
			<g>
				<circle class="st2" cx="14.8" cy="47.7" r="1.2"/>
			</g>
			<g>
				<circle class="st2" cx="10.8" cy="47.7" r="1.2"/>
			</g>
			<g>
				<circle class="st2" cx="6.9" cy="47.7" r="1.2"/>
			</g>
			<g>
				<circle class="st2" cx="2.9" cy="47.7" r="1.2"/>
			</g>
			<g>
				<circle class="st2" cx="42.5" cy="47.7" r="1.2"/>
			</g>
			<g>
				<circle class="st2" cx="38.5" cy="47.7" r="1.2"/>
			</g>
			<g>
				<circle class="st2" cx="46.4" cy="47.7" r="1.2"/>
			</g>
			<g>
				<circle class="st2" cx="50.4" cy="47.7" r="1.2"/>
			</g>
			<g>
				<circle class="st2" cx="82" cy="47.7" r="1.2"/>
			</g>
			<g>
				<circle class="st2" cx="78" cy="47.7" r="1.2"/>
			</g>
			<g>
				<circle class="st2" cx="74.1" cy="47.7" r="1.2"/>
			</g>
			<g>
				<circle class="st2" cx="70.1" cy="47.7" r="1.2"/>
			</g>
			<g>
				<circle class="st2" cx="66.2" cy="47.7" r="1.2"/>
			</g>
			<g>
				<circle class="st2" cx="62.2" cy="47.7" r="1.2"/>
			</g>
			<g>
				<circle class="st2" cx="58.3" cy="47.7" r="1.2"/>
			</g>
			<g>
				<circle class="st2" cx="54.3" cy="47.7" r="1.2"/>
			</g>
			<g>
				<circle class="st2" cx="86" cy="47.7" r="1.2"/>
			</g>
			<g>
				<circle class="st2" cx="89.9" cy="47.7" r="1.2"/>
			</g>
			<g>
				<circle class="st2" cx="93.9" cy="47.7" r="1.2"/>
			</g>
			<g>
				<circle class="st2" cx="-1" cy="51.6" r="1.2"/>
			</g>
			<g>
				<circle class="st2" cx="22.7" cy="51.6" r="1.2"/>
			</g>
			<g>
				<circle class="st2" cx="18.7" cy="51.6" r="1.2"/>
			</g>
			<g>
				<circle class="st2" cx="14.8" cy="51.6" r="1.2"/>
			</g>
			<g>
				<circle class="st2" cx="10.8" cy="51.6" r="1.2"/>
			</g>
			<g>
				<circle class="st2" cx="6.9" cy="51.6" r="1.2"/>
			</g>
			<g>
				<circle class="st2" cx="2.9" cy="51.6" r="1.2"/>
			</g>
			<g>
				<circle class="st2" cx="34.5" cy="51.6" r="1.2"/>
			</g>
			<g>
				<circle class="st2" cx="42.5" cy="51.6" r="1.2"/>
			</g>
			<g>
				<circle class="st2" cx="38.5" cy="51.6" r="1.2"/>
			</g>
			<g>
				<circle class="st2" cx="46.4" cy="51.6" r="1.2"/>
			</g>
			<g>
				<circle class="st2" cx="50.4" cy="51.6" r="1.2"/>
			</g>
			<g>
				<circle class="st2" cx="82" cy="51.6" r="1.2"/>
			</g>
			<g>
				<circle class="st2" cx="78" cy="51.6" r="1.2"/>
			</g>
			<g>
				<circle class="st2" cx="74.1" cy="51.6" r="1.2"/>
			</g>
			<g>
				<circle class="st2" cx="70.1" cy="51.6" r="1.2"/>
			</g>
			<g>
				<circle class="st2" cx="66.2" cy="51.6" r="1.2"/>
			</g>
			<g>
				<circle class="st2" cx="62.2" cy="51.6" r="1.2"/>
			</g>
			<g>
				<circle class="st2" cx="58.3" cy="51.6" r="1.2"/>
			</g>
			<g>
				<circle class="st2" cx="54.3" cy="51.6" r="1.2"/>
			</g>
			<g>
				<circle class="st2" cx="86" cy="51.6" r="1.2"/>
			</g>
			<g>
				<circle class="st2" cx="89.9" cy="51.6" r="1.2"/>
			</g>
			<g>
				<circle class="st2" cx="93.9" cy="51.6" r="1.2"/>
			</g>
			<g>
				<circle class="st2" cx="-1" cy="55.4" r="1.2"/>
			</g>
			<g>
				<circle class="st2" cx="30.6" cy="55.4" r="1.2"/>
			</g>
			<g>
				<circle class="st2" cx="18.7" cy="55.4" r="1.2"/>
			</g>
			<g>
				<circle class="st2" cx="14.8" cy="55.4" r="1.2"/>
			</g>
			<g>
				<circle class="st2" cx="10.8" cy="55.4" r="1.2"/>
			</g>
			<g>
				<circle class="st2" cx="6.9" cy="55.4" r="1.2"/>
			</g>
			<g>
				<circle class="st2" cx="2.9" cy="55.4" r="1.2"/>
			</g>
			<g>
				<circle class="st2" cx="34.5" cy="55.4" r="1.2"/>
			</g>
			<g>
				<circle class="st2" cx="42.5" cy="55.4" r="1.2"/>
			</g>
			<g>
				<circle class="st2" cx="38.5" cy="55.4" r="1.2"/>
			</g>
			<g>
				<circle class="st2" cx="46.4" cy="55.4" r="1.2"/>
			</g>
			<g>
				<circle class="st2" cx="50.4" cy="55.4" r="1.2"/>
			</g>
			<g>
				<circle class="st2" cx="82" cy="55.4" r="1.2"/>
			</g>
			<g>
				<circle class="st2" cx="78" cy="55.4" r="1.2"/>
			</g>
			<g>
				<circle class="st2" cx="74.1" cy="55.4" r="1.2"/>
			</g>
			<g>
				<circle class="st2" cx="70.1" cy="55.4" r="1.2"/>
			</g>
			<g>
				<circle class="st2" cx="66.2" cy="55.4" r="1.2"/>
			</g>
			<g>
				<circle class="st2" cx="62.2" cy="55.4" r="1.2"/>
			</g>
			<g>
				<circle class="st2" cx="58.3" cy="55.4" r="1.2"/>
			</g>
			<g>
				<circle class="st2" cx="54.3" cy="55.4" r="1.2"/>
			</g>
			<g>
				<circle class="st2" cx="86" cy="55.4" r="1.2"/>
			</g>
			<g>
				<circle class="st2" cx="89.9" cy="55.4" r="1.2"/>
			</g>
			<g>
				<circle class="st2" cx="93.9" cy="55.4" r="1.2"/>
			</g>
			<g>
				<circle class="st2" cx="-1" cy="59.2" r="1.2"/>
			</g>
			<g>
				<circle class="st2" cx="30.6" cy="59.2" r="1.2"/>
			</g>
			<g>
				<circle class="st2" cx="26.6" cy="59.2" r="1.2"/>
			</g>
			<g>
				<circle class="st2" cx="14.8" cy="59.2" r="1.2"/>
			</g>
			<g>
				<circle class="st2" cx="10.8" cy="59.2" r="1.2"/>
			</g>
			<g>
				<circle class="st2" cx="6.9" cy="59.2" r="1.2"/>
			</g>
			<g>
				<circle class="st2" cx="2.9" cy="59.2" r="1.2"/>
			</g>
			<g>
				<circle class="st2" cx="34.5" cy="59.2" r="1.2"/>
			</g>
			<g>
				<circle class="st2" cx="42.5" cy="59.2" r="1.2"/>
			</g>
			<g>
				<circle class="st2" cx="38.5" cy="59.2" r="1.2"/>
			</g>
			<g>
				<circle class="st2" cx="46.4" cy="59.2" r="1.2"/>
			</g>
			<g>
				<circle class="st2" cx="50.4" cy="59.2" r="1.2"/>
			</g>
			<g>
				<circle class="st2" cx="82" cy="59.2" r="1.2"/>
			</g>
			<g>
				<circle class="st2" cx="78" cy="59.2" r="1.2"/>
			</g>
			<g>
				<circle class="st2" cx="74.1" cy="59.2" r="1.2"/>
			</g>
			<g>
				<circle class="st2" cx="70.1" cy="59.2" r="1.2"/>
			</g>
			<g>
				<circle class="st2" cx="66.2" cy="59.2" r="1.2"/>
			</g>
			<g>
				<circle class="st2" cx="62.2" cy="59.2" r="1.2"/>
			</g>
			<g>
				<circle class="st2" cx="58.3" cy="59.2" r="1.2"/>
			</g>
			<g>
				<circle class="st2" cx="54.3" cy="59.2" r="1.2"/>
			</g>
			<g>
				<circle class="st2" cx="86" cy="59.2" r="1.2"/>
			</g>
			<g>
				<circle class="st2" cx="89.9" cy="59.2" r="1.2"/>
			</g>
			<g>
				<circle class="st2" cx="93.9" cy="59.2" r="1.2"/>
			</g>
			<g>
				<circle class="st2" cx="-1" cy="32.4" r="1.2"/>
			</g>
			<g>
				<circle class="st2" cx="30.6" cy="32.4" r="1.2"/>
			</g>
			<g>
				<circle class="st2" cx="26.6" cy="32.4" r="1.2"/>
			</g>
			<g>
				<circle class="st2" cx="14.8" cy="32.4" r="1.2"/>
			</g>
			<g>
				<circle class="st2" cx="10.8" cy="32.4" r="1.2"/>
			</g>
			<g>
				<circle class="st2" cx="6.9" cy="32.4" r="1.2"/>
			</g>
			<g>
				<circle class="st2" cx="2.9" cy="32.4" r="1.2"/>
			</g>
			<g>
				<circle class="st2" cx="34.5" cy="32.4" r="1.2"/>
			</g>
			<g>
				<circle class="st2" cx="42.5" cy="32.4" r="1.2"/>
			</g>
			<g>
				<circle class="st2" cx="38.5" cy="32.4" r="1.2"/>
			</g>
			<g>
				<circle class="st2" cx="82" cy="32.4" r="1.2"/>
			</g>
			<g>
				<circle class="st2" cx="78" cy="32.4" r="1.2"/>
			</g>
			<g>
				<circle class="st2" cx="74.1" cy="32.4" r="1.2"/>
			</g>
			<g>
				<circle class="st2" cx="70.1" cy="32.4" r="1.2"/>
			</g>
			<g>
				<circle class="st2" cx="66.2" cy="32.4" r="1.2"/>
			</g>
			<g>
				<circle class="st2" cx="62.2" cy="32.4" r="1.2"/>
			</g>
			<g>
				<circle class="st2" cx="58.3" cy="32.4" r="1.2"/>
			</g>
			<g>
				<circle class="st2" cx="54.3" cy="32.4" r="1.2"/>
			</g>
			<g>
				<circle class="st2" cx="86" cy="32.4" r="1.2"/>
			</g>
			<g>
				<circle class="st2" cx="89.9" cy="32.4" r="1.2"/>
			</g>
			<g>
				<circle class="st2" cx="93.9" cy="32.4" r="1.2"/>
			</g>
		</g>
	</g>
</g>
<g id="Layer_3">
</g>
</svg>
