<?xml version="1.0" encoding="utf-8"?>
<!-- Generator: Adobe Illustrator 22.0.1, SVG Export Plug-In . SVG Version: 6.00 Build 0)  -->
<svg version="1.1" id="Layer_1" xmlns="http://www.w3.org/2000/svg" xmlns:xlink="http://www.w3.org/1999/xlink" x="0px" y="0px"
	 viewBox="0 0 313.5 151.5" style="enable-background:new 0 0 313.5 151.5;" xml:space="preserve">
<style type="text/css">
	.st0{fill:none;stroke:#000000;stroke-width:3;stroke-linecap:round;stroke-miterlimit:10;}
</style>
<g>
	<path class="st0" d="M66.5,39.9c0,7.5-2,13.5-5.9,18.2c-4.2,4.9-10,7.4-17.4,7.4c-1.2,0-3.1-0.1-5.6-0.2c-2.5-0.1-4.4-0.2-5.6-0.2
		c-1.3,0-2,0.6-2,1.7c0,1.4,0.1,3.5,0.4,6.4c0.3,2.8,0.4,4.9,0.4,6.3c0,0.7-0.3,1.1-1,1.1c-1.9,0-4.7-0.1-8.5-0.2
		c-3.8-0.1-6.6-0.2-8.5-0.2c-0.9,0-1.3-0.4-1.3-1.3c0-3.4,0.1-8.6,0.2-15.5c0.1-6.9,0.2-12,0.2-15.5c0-9.7-0.4-19.9-1.3-30.6l0-0.6
		C10.5,16,11,15.7,12,15.6c2.4-0.3,7.7-0.5,16-0.5c4.9,0,9.5,0.1,14,0.2c7.3,0.2,13.2,2.5,17.7,6.9C64.2,26.7,66.5,32.6,66.5,39.9z
		 M48,40.7c0-7.2-3.5-10.8-10.5-10.8c-4.9,0-7.5,0.3-7.8,0.8c-0.2,0.4-0.3,4-0.3,10.7c0,1,0,2.4,0.1,4.2c0.1,1.9,0.1,3.3,0.1,4.2
		c0,0.6,2.8,0.9,8.3,0.9C44.6,50.8,48,47.4,48,40.7z"/>
	<path d="M108.5,61.9c0,1.9,0.1,4.7,0.3,8.4c0.2,3.7,0.3,6.5,0.3,8.3c0,1-0.4,1.5-1.3,1.6c-3,0.2-6.5,0.3-10.4,0.3
		c-0.5,0-0.8-0.7-0.9-2.1c-0.2-1.4-0.3-2.1-0.6-2.1c-0.2,0.1-0.5,0.3-0.8,0.6c-2.7,2.8-5.7,4.1-8.8,4.1c-4.8,0-8.7-1.9-11.8-5.6
		c-3-3.5-4.4-7.7-4.4-12.6c0-5.6,1.5-10.2,4.6-13.6c3.2-3.6,7.5-5.3,13-5.3c3.8,0,6.9,1.3,9.1,4C96.9,48,97,48,97.1,48
		c0.2,0,0.5-0.6,0.8-1.8c0.3-1.2,0.6-1.8,1-1.8c0.9,0,2.6,0.3,5.2,0.8c2.4,0.5,4.2,0.9,5.2,1.2c0.4,0.1,0.5,0.3,0.5,0.6
		c0,0.1,0,0.4-0.1,0.8C108.9,52.3,108.5,56.9,108.5,61.9z M96.7,62.1c0-2.1-0.7-3.8-2-5.1c-1.3-1.4-3-2-5.1-2c-2.1,0-3.8,0.7-5.1,2
		c-1.3,1.3-1.9,3.1-1.9,5.2c0,2,0.7,3.7,2.1,5.1c1.4,1.4,3,2.1,5,2.1c2.1,0,3.8-0.7,5.1-2C96,65.9,96.7,64.2,96.7,62.1z"/>
	<path d="M129.3,63.4c0,1.8,0,4.4,0.1,8s0.1,6.2,0.1,7.9c0,0.5-0.3,0.8-0.9,0.9c-0.8,0.1-2.7,0.2-5.6,0.2c-2.9,0-4.8-0.1-5.6-0.2
		c-0.5-0.1-0.9-0.3-1-0.5c0-0.1-0.1-0.5-0.1-1.1c0-1.7,0-4.2,0.1-7.6c0.1-3.4,0.1-5.9,0.1-7.6c0-6.9-0.3-12.5-0.8-16.6
		c0-0.4-0.1-0.6-0.1-0.8c0-0.5,0.3-0.7,1-0.7c0.7,0,1.7,0.1,3.1,0.2c1.4,0.1,2.5,0.2,3.2,0.2c0.7,0,1.8-0.1,3.2-0.2
		c1.4-0.1,2.5-0.2,3.2-0.2c0.6,0,0.9,0.2,0.9,0.7c0,0.1,0,0.3-0.1,0.7C129.6,51.6,129.3,57.1,129.3,63.4z M130.3,36.2
		c0,4.2-2.4,6.4-7.2,6.4c-2.1,0-3.7-0.5-5.1-1.6c-1.5-1.2-2.2-2.8-2.2-4.8c0-1.9,0.8-3.5,2.3-4.7c1.4-1.1,3.1-1.7,5-1.7
		c1.9,0,3.6,0.6,4.9,1.7C129.5,32.7,130.3,34.3,130.3,36.2z"/>
	<path d="M172.8,79.1c0,0.7-0.3,1-1,1.1c-0.7,0.1-2.5,0.1-5.3,0.1c-3.1,0-5-0.1-5.7-0.2s-1.1-0.6-1.1-1.5c0-1.1,0-2.9,0.1-5.2
		c0.1-2.3,0.1-4.1,0.1-5.2c0-0.9,0-2.3-0.1-4c0-1.8-0.1-3.1-0.1-4c0-3.3-1.5-5-4.4-5c-1,0-2.1,0.4-3.3,1.2c-1.4,0.9-2.1,1.8-2.1,2.7
		v19.8c0,0.8-0.4,1.3-1.1,1.4c-0.9,0.1-2.6,0.1-5.2,0.1c-2.9,0-4.7-0.1-5.6-0.2c-0.8-0.1-1.1-0.5-1.1-1.2c0-1.9,0-4.8,0-8.6
		c0-3.8,0-6.7,0-8.6c0-6.1-0.5-10.9-1.4-14.3c0-0.2-0.1-0.4-0.1-0.5c0-0.4,0.2-0.7,0.5-0.8c1.5-0.2,3.6-0.4,6.2-0.8
		c3.9-0.8,6.1-1.1,6.6-1.1c0.3,0,0.5,0.8,0.6,2.5c0.1,1.6,0.4,2.5,0.6,2.5c-0.3,0,1-0.8,3.9-2.5c2.9-1.7,5.4-2.5,7.6-2.5
		c3.1,0,5.7,0.7,7.8,2.2c2.3,1.7,3.5,4,3.5,7v11.7c0,1.6,0,4,0,7.1C172.8,75.2,172.8,77.5,172.8,79.1z"/>
	<path d="M203.4,69.5c0,0.7-0.1,1.8-0.3,3.3c-0.2,1.5-0.3,2.6-0.3,3.3c0,0.7-0.1,1.1-0.2,1.3c-0.1,0.2-0.5,0.5-1.2,0.8
		c-3.1,1.7-6.6,2.6-10.5,2.6c-7.1,0-10.6-2.7-10.6-8.1c0-1.6,0.1-4,0.2-7.3c0.1-3.2,0.2-5.7,0.2-7.3c0-1.1-0.6-1.6-1.9-1.6
		c-0.1,0-0.3,0-0.5,0c-0.2,0-0.4,0-0.5,0c-0.9,0-1.4-0.3-1.4-1c0-0.4,0-1,0.1-1.8c0.1-0.8,0.1-1.4,0.1-1.8c0-0.5,0-1.3-0.1-2.3
		c-0.1-1-0.1-1.8-0.1-2.3c0-0.5,0.8-0.8,2.3-0.8c0.9,0,1.4-0.3,1.4-0.7c0.1-0.9,0.2-2.4,0.1-4.4c-0.1-3.1-0.1-4.7-0.1-4.5
		c0-2.8,0.3-4.2,0.8-4.2c0.7,0,1.6,0.1,2.8,0.4c1.4,0.3,2.4,0.5,2.9,0.5c1.2,0.2,3.1,0.4,5.6,0.7c0.6,0,0.9,0.3,0.9,0.6
		c0,1-0.1,2.5-0.2,4.4s-0.2,3.5-0.2,4.5c0,1.2,0.4,1.8,1.1,1.8c0.9,0,2.1,0,3.9-0.1c1.7-0.1,3-0.1,3.9-0.1c0.5,0,0.8,0.2,0.8,0.5
		c0,0.6-0.1,1.4-0.2,2.5c-0.1,1.1-0.2,2-0.2,2.5c0,0.6,0,1.4,0,2.6c0,1.1,0,2,0,2.6c0,0.5-0.4,0.8-1.1,0.8c-0.5,0-1.3,0-2.5-0.1
		c-1.1,0-2-0.1-2.5-0.1h-2.7c-0.4,0-0.5,0.5-0.5,1.6c0,0.6,0,1.5,0,2.6c0,1.2,0,2,0,2.6c0,2.1,0.2,3.5,0.7,4.2c0.7,1,2,1.6,3.9,1.6
		c0.6,0,1.5-0.1,2.6-0.4c1.1-0.3,1.9-0.4,2.4-0.4C203.1,68.6,203.4,68.9,203.4,69.5z"/>
	<path d="M220.8,63.4c0,1.8,0,4.4,0.1,8s0.1,6.2,0.1,7.9c0,0.5-0.3,0.8-0.9,0.9c-0.8,0.1-2.7,0.2-5.6,0.2c-2.9,0-4.8-0.1-5.6-0.2
		c-0.5-0.1-0.9-0.3-1-0.5c0-0.1-0.1-0.5-0.1-1.1c0-1.7,0-4.2,0.1-7.6c0.1-3.4,0.1-5.9,0.1-7.6c0-6.9-0.3-12.5-0.8-16.6
		c0-0.4-0.1-0.6-0.1-0.8c0-0.5,0.3-0.7,1-0.7c0.7,0,1.7,0.1,3.1,0.2c1.4,0.1,2.5,0.2,3.2,0.2c0.7,0,1.8-0.1,3.2-0.2
		c1.4-0.1,2.5-0.2,3.2-0.2c0.6,0,0.9,0.2,0.9,0.7c0,0.1,0,0.3-0.1,0.7C221.1,51.6,220.8,57.1,220.8,63.4z M221.7,36.2
		c0,4.2-2.4,6.4-7.2,6.4c-2.1,0-3.7-0.5-5.1-1.6c-1.5-1.2-2.2-2.8-2.2-4.8c0-1.9,0.8-3.5,2.3-4.7c1.4-1.1,3.1-1.7,5-1.7
		c1.9,0,3.6,0.6,4.9,1.7C221,32.7,221.7,34.3,221.7,36.2z"/>
	<path d="M264.3,79.1c0,0.7-0.3,1-1,1.1c-0.7,0.1-2.5,0.1-5.3,0.1c-3.1,0-5-0.1-5.7-0.2s-1.1-0.6-1.1-1.5c0-1.1,0-2.9,0.1-5.2
		c0.1-2.3,0.1-4.1,0.1-5.2c0-0.9,0-2.3-0.1-4c0-1.8-0.1-3.1-0.1-4c0-3.3-1.5-5-4.4-5c-1,0-2.1,0.4-3.3,1.2c-1.4,0.9-2.1,1.8-2.1,2.7
		v19.8c0,0.8-0.4,1.3-1.1,1.4c-0.9,0.1-2.6,0.1-5.2,0.1c-2.9,0-4.7-0.1-5.6-0.2c-0.8-0.1-1.1-0.5-1.1-1.2c0-1.9,0-4.8,0-8.6
		c0-3.8,0-6.7,0-8.6c0-6.1-0.5-10.9-1.4-14.3c0-0.2-0.1-0.4-0.1-0.5c0-0.4,0.2-0.7,0.5-0.8c1.5-0.2,3.6-0.4,6.2-0.8
		c3.9-0.8,6.1-1.1,6.6-1.1c0.3,0,0.5,0.8,0.6,2.5c0.1,1.6,0.4,2.5,0.6,2.5c-0.3,0,1-0.8,3.9-2.5c2.9-1.7,5.4-2.5,7.6-2.5
		c3.1,0,5.7,0.7,7.8,2.2c2.3,1.7,3.5,4,3.5,7v11.7c0,1.6,0,4,0,7.1C264.2,75.2,264.3,77.5,264.3,79.1z"/>
	<path d="M306.8,70.7c0,7-1.5,12-4.4,15c-3,3.1-8.1,4.7-15.1,4.7c-2.1,0-4.8-0.3-8.4-1c-4.5-0.8-6.8-1.8-6.8-2.9
		c0-0.5,0.5-2.9,1.6-7.2c0.2-0.7,0.4-1,0.8-1c0.1,0,0.3,0.1,0.4,0.1c3.8,1.9,7.2,2.8,10.4,2.8c1.8,0,3.5-0.4,5.2-1.3
		c2.1-1,3.2-2.4,3.2-4v-2.5c-2.5,2.3-5.7,3.5-9.6,3.5c-4.6,0-8.4-1.6-11.3-4.9c-2.9-3.2-4.3-7.1-4.3-11.7c0-4.7,1.4-8.5,4.1-11.6
		c2.9-3.2,6.6-4.8,11.2-4.8c3.7,0,6.5,1.3,8.5,4c0.4,0.5,0.7,0.8,0.8,0.8c0.2,0,0.3-0.4,0.3-1.3c0-2,0.2-2.9,0.7-2.9
		c0.4,0,2.5,0.2,6.3,0.6c3.8,0.4,5.8,0.6,6,0.7c0.4,0.1,0.6,0.5,0.6,1c0,1.7-0.1,4.2-0.2,7.5c-0.1,3.3-0.2,5.9-0.2,7.5
		c0,1,0,2.5,0,4.5C306.8,68.2,306.8,69.7,306.8,70.7z M294.2,60.5c0-1.8-0.6-3.3-1.8-4.6c-1.2-1.3-2.7-2-4.4-2c-1.8,0-3.3,0.7-4.5,2
		c-1.2,1.3-1.8,2.9-1.8,4.7c0,1.8,0.6,3.3,1.8,4.6c1.2,1.3,2.7,1.9,4.4,1.9c1.8,0,3.3-0.7,4.4-2C293.6,63.9,294.2,62.3,294.2,60.5z"
		/>
	<path d="M21.6,145h-5.3l-8.4-27.4h7l4.8,17.2l5.7-17.2h4.5l6,17.2l4.7-17.2h6.8L39,145h-5.3l-6-17.8L21.6,145z"/>
	<path d="M51.7,113.9v-7.2h7.2v7.2H51.7z M51.7,145v-27.4h7.2V145H51.7z"/>
	<path d="M63.5,123.8v-6.2h13.4v6.2H63.5z M73.3,145c-2.4,0-4.2-0.6-5.3-1.9c-1.1-1.2-1.6-3-1.6-5.4v-28.1h7.2v26.3
		c0,0.7,0.1,1.2,0.4,1.5s0.6,0.6,1.2,0.6h1.8v7H73.3z"/>
	<path d="M83.2,145v-38.3h7.2V145H83.2z M99.1,145v-16.6c0-1.4-0.4-2.4-1.2-3.1c-0.8-0.7-1.9-1.1-3.2-1.1c-1.3,0-2.4,0.4-3.1,1.1
		c-0.7,0.7-1.1,1.8-1.1,3.2l-0.6-6.1c0.8-1.7,1.8-2.9,2.9-3.8s2.6-1.3,4.4-1.3c2.9,0,5.1,1,6.7,2.9c1.6,1.9,2.4,4.7,2.4,8.2V145
		H99.1z"/>
	<path d="M123.2,145v-38.3h7.2V145H123.2z M126.8,145v-7h9.2c2.4,0,4.3-0.6,5.6-1.7c1.3-1.1,2-2.8,2-4.9v-11.3c0-2.1-0.7-3.7-2-4.9
		c-1.3-1.1-3.2-1.7-5.6-1.7h-9.2v-7h9c4.8,0,8.5,1.2,11.2,3.6c2.6,2.4,3.9,5.8,3.9,10.1v10.9c0,4.4-1.3,7.7-4,10.1
		s-6.4,3.6-11.2,3.6H126.8z"/>
	<path d="M165.5,145.4c-2.9,0-5.1-0.7-6.6-2.1c-1.5-1.4-2.2-3.5-2.2-6.4c0-2.7,0.8-4.7,2.4-6.1c1.6-1.4,4.1-2,7.3-2h6.9l0.4,5.5
		h-7.2c-1.1,0-1.9,0.2-2.5,0.6c-0.5,0.4-0.8,1.1-0.8,2c0,0.9,0.3,1.6,1,2c0.7,0.4,1.7,0.6,3.1,0.6c1.9,0,3.3-0.2,4.3-0.7
		c0.9-0.4,1.4-1.1,1.4-2.1l0.6,4c-0.1,1-0.6,1.9-1.4,2.6c-0.8,0.7-1.8,1.2-3.1,1.5S166.8,145.4,165.5,145.4z M173.1,145v-17.3
		c0-1.3-0.4-2.2-1.3-2.9s-2-1-3.6-1c-2.2,0-4.1,0.6-5.7,1.9l-4.5-4.4c1.1-1.2,2.5-2.2,4.3-2.9c1.8-0.7,3.8-1,6-1
		c3.6,0,6.4,0.9,8.4,2.7c2,1.8,3,4.3,3,7.5V145H173.1z"/>
	<path d="M184.7,123.8v-6.2h13.4v6.2H184.7z M194.5,145c-2.4,0-4.2-0.6-5.3-1.9c-1.1-1.2-1.6-3-1.6-5.4v-28.1h7.2v26.3
		c0,0.7,0.1,1.2,0.4,1.5s0.6,0.6,1.2,0.6h1.8v7H194.5z"/>
	<path d="M211.9,145.4c-2.9,0-5.1-0.7-6.6-2.1c-1.5-1.4-2.2-3.5-2.2-6.4c0-2.7,0.8-4.7,2.4-6.1c1.6-1.4,4.1-2,7.3-2h6.9l0.4,5.5
		h-7.2c-1.1,0-1.9,0.2-2.5,0.6c-0.5,0.4-0.8,1.1-0.8,2c0,0.9,0.3,1.6,1,2c0.7,0.4,1.7,0.6,3.1,0.6c1.9,0,3.3-0.2,4.3-0.7
		c0.9-0.4,1.4-1.1,1.4-2.1l0.6,4c-0.1,1-0.6,1.9-1.4,2.6c-0.8,0.7-1.8,1.2-3.1,1.5S213.1,145.4,211.9,145.4z M219.5,145v-17.3
		c0-1.3-0.4-2.2-1.3-2.9s-2-1-3.6-1c-2.2,0-4.1,0.6-5.7,1.9l-4.5-4.4c1.1-1.2,2.5-2.2,4.3-2.9c1.8-0.7,3.8-1,6-1
		c3.6,0,6.4,0.9,8.4,2.7c2,1.8,3,4.3,3,7.5V145H219.5z"/>
</g>
</svg>
