<svg xmlns="http://www.w3.org/2000/svg" viewBox="0 0 1680 1140.01"><defs><style>.cls-1{opacity:0.9;}.cls-2{fill:#f22e0c;}.cls-3{fill:#f73c29;}.cls-4{fill:none;}</style></defs><title>red_circles_4</title><g id="Layer_2" data-name="Layer 2"><g id="Red_dots" data-name="Red dots"><g class="cls-1"><circle class="cls-2" cx="540" cy="320" r="20"/><circle class="cls-3" cx="640" cy="320" r="25"/><circle class="cls-3" cx="740" cy="320" r="30"/><circle class="cls-3" cx="840" cy="320" r="35"/><circle class="cls-3" cx="940" cy="320" r="35"/><circle class="cls-3" cx="1040" cy="320" r="30"/><circle class="cls-3" cx="1140" cy="320" r="25"/><circle class="cls-3" cx="1240" cy="320" r="25"/><circle class="cls-2" cx="540" cy="420" r="20"/><circle class="cls-3" cx="640" cy="420" r="25"/><circle class="cls-3" cx="740" cy="420" r="30"/><circle class="cls-3" cx="840" cy="420" r="35"/><circle class="cls-3" cx="940" cy="420" r="35"/><circle class="cls-3" cx="1040" cy="420" r="30"/><circle class="cls-3" cx="1140" cy="420" r="25"/><circle class="cls-3" cx="1240" cy="420" r="25"/><circle class="cls-2" cx="540" cy="520" r="20"/><circle class="cls-3" cx="640" cy="520" r="25"/><circle class="cls-3" cx="740" cy="520" r="30"/><circle class="cls-3" cx="840" cy="520" r="35"/><circle class="cls-3" cx="940" cy="520" r="35"/><circle class="cls-3" cx="1040" cy="520" r="30"/><circle class="cls-3" cx="1140" cy="520" r="30"/><circle class="cls-3" cx="1240" cy="520" r="30"/><circle class="cls-2" cx="540" cy="620" r="20"/><circle class="cls-3" cx="640" cy="620" r="25"/><circle class="cls-3" cx="740" cy="620" r="30"/><circle class="cls-3" cx="840" cy="620" r="35"/><circle class="cls-3" cx="940" cy="620" r="35"/><circle class="cls-3" cx="1040" cy="620" r="35"/><circle class="cls-3" cx="1140" cy="620" r="35"/><circle class="cls-3" cx="1240" cy="620" r="35"/><circle class="cls-2" cx="540" cy="720" r="25"/><circle class="cls-3" cx="640" cy="720" r="25"/><circle class="cls-3" cx="740" cy="720" r="30"/><circle class="cls-3" cx="840" cy="720" r="35"/><circle class="cls-3" cx="940" cy="720" r="40"/><circle class="cls-3" cx="1040" cy="720" r="40"/><circle class="cls-3" cx="1140" cy="720" r="40"/><circle class="cls-3" cx="1240" cy="720" r="40"/><circle class="cls-2" cx="540" cy="820" r="25"/><circle class="cls-3" cx="640" cy="820" r="25"/><circle class="cls-3" cx="740" cy="820" r="30"/><circle class="cls-3" cx="840" cy="820" r="35"/><circle class="cls-3" cx="940" cy="820" r="40"/><circle class="cls-3" cx="1040" cy="820" r="40"/><circle class="cls-3" cx="1140" cy="820" r="40"/><circle class="cls-3" cx="1240" cy="820" r="40"/><circle class="cls-2" cx="540" cy="920" r="25"/><circle class="cls-3" cx="640" cy="920" r="25"/><circle class="cls-3" cx="740" cy="920" r="30"/><circle class="cls-3" cx="840" cy="920" r="35"/><circle class="cls-3" cx="940" cy="920" r="40"/><circle class="cls-3" cx="1040" cy="920" r="40"/><circle class="cls-3" cx="1140" cy="920" r="40"/><circle class="cls-3" cx="1240" cy="920" r="40"/><circle class="cls-2" cx="540" cy="1020" r="25"/><circle class="cls-3" cx="640" cy="1020" r="25"/><circle class="cls-3" cx="740" cy="1020" r="30"/><circle class="cls-3" cx="840" cy="1020" r="35"/><circle class="cls-3" cx="940" cy="1020" r="40"/><circle class="cls-3" cx="1040" cy="1020" r="40"/><circle class="cls-3" cx="1140" cy="1020" r="40"/><circle class="cls-3" cx="1240" cy="1020" r="40"/><circle class="cls-3" cx="1340" cy="320" r="20"/><circle class="cls-3" cx="1440" cy="320" r="20"/><circle class="cls-3" cx="1340" cy="420" r="25"/><circle class="cls-3" cx="1440" cy="420" r="25"/><circle class="cls-3" cx="1340" cy="520" r="30"/><circle class="cls-3" cx="1440" cy="520" r="30"/><circle class="cls-3" cx="1340" cy="620" r="35"/><circle class="cls-3" cx="1440" cy="620" r="35"/><circle class="cls-3" cx="1340" cy="720" r="40"/><circle class="cls-3" cx="1440" cy="720" r="40"/><circle class="cls-3" cx="1340" cy="820" r="40"/><circle class="cls-3" cx="1440" cy="820" r="40"/><circle class="cls-3" cx="1340" cy="920" r="40"/><circle class="cls-3" cx="1440" cy="920" r="40"/><circle class="cls-3" cx="1340" cy="1020" r="40"/><circle class="cls-3" cx="1440" cy="1020" r="40"/><circle class="cls-3" cx="1540" cy="320" r="20"/><circle class="cls-3" cx="1640" cy="320" r="20"/><circle class="cls-2" cx="540" cy="225" r="20"/><circle class="cls-3" cx="640" cy="225" r="25"/><circle class="cls-3" cx="740" cy="225" r="30"/><circle class="cls-3" cx="840" cy="225" r="35"/><circle class="cls-3" cx="940" cy="225" r="35"/><circle class="cls-3" cx="1040" cy="225" r="30"/><circle class="cls-3" cx="1140" cy="225" r="25"/><circle class="cls-3" cx="1240" cy="225" r="25"/><circle class="cls-3" cx="1340" cy="225" r="20"/><circle class="cls-3" cx="1440" cy="225" r="15"/><circle class="cls-3" cx="1540" cy="225" r="15"/><circle class="cls-3" cx="1640" cy="225" r="15"/><circle class="cls-2" cx="540" cy="130" r="20"/><circle class="cls-3" cx="640" cy="130" r="25"/><circle class="cls-3" cx="740" cy="130" r="30"/><circle class="cls-3" cx="840" cy="130" r="35"/><circle class="cls-3" cx="940" cy="130" r="35"/><circle class="cls-3" cx="1040" cy="130" r="30"/><circle class="cls-3" cx="1140" cy="130" r="25"/><circle class="cls-3" cx="1240" cy="130" r="25"/><circle class="cls-3" cx="1340" cy="130" r="15"/><circle class="cls-3" cx="1440" cy="130" r="10"/><circle class="cls-3" cx="1540" cy="130" r="10"/><circle class="cls-3" cx="1640" cy="130" r="10"/><circle class="cls-2" cx="540" cy="35" r="20"/><circle class="cls-3" cx="640" cy="35" r="25"/><circle class="cls-3" cx="740" cy="35" r="30"/><circle class="cls-3" cx="840" cy="35" r="35"/><circle class="cls-3" cx="940" cy="35" r="35"/><circle class="cls-3" cx="1040" cy="35" r="30"/><circle class="cls-3" cx="1140" cy="35" r="25"/><circle class="cls-3" cx="1240" cy="35" r="25"/><circle class="cls-3" cx="1340" cy="35" r="15"/><circle class="cls-3" cx="1440" cy="35" r="10"/><circle class="cls-3" cx="1540" cy="35" r="10"/><circle class="cls-3" cx="1640" cy="35" r="10"/><circle class="cls-3" cx="1540" cy="420" r="25"/><circle class="cls-3" cx="1640" cy="420" r="25"/><circle class="cls-3" cx="1540" cy="520" r="30"/><circle class="cls-3" cx="1640" cy="520" r="30"/><circle class="cls-3" cx="1540" cy="620" r="35"/><circle class="cls-3" cx="1640" cy="620" r="35"/><circle class="cls-3" cx="1540" cy="720" r="40"/><circle class="cls-3" cx="1640" cy="720" r="40"/><circle class="cls-3" cx="1540" cy="820" r="40"/><circle class="cls-3" cx="1640" cy="820" r="40"/><circle class="cls-3" cx="1540" cy="920" r="40"/><circle class="cls-3" cx="1640" cy="920" r="40"/><circle class="cls-3" cx="1540" cy="1020" r="40"/><circle class="cls-3" cx="1640" cy="1020" r="40"/></g></g><g id="Blue_dots" data-name="Blue dots"><rect class="cls-4" width="40" height="60"/><rect class="cls-4" x="1580" y="1140" width="98.97" height="0.01"/></g></g></svg>