<svg xmlns="http://www.w3.org/2000/svg" viewBox="0 0 1927.12 1216.1"><defs><style>.cls-1{fill:#424f82;stroke:#424f82;}.cls-1,.cls-2{stroke-miterlimit:10;stroke-width:10px;opacity:0.7;}.cls-2{fill:#f26648;stroke:#f26648;}</style></defs><title>red_circles</title><g id="Layer_2" data-name="Layer 2"><g id="Income"><circle class="cls-1" cx="15.53" cy="15.53" r="1.57"/><circle class="cls-1" cx="15.53" cy="94.54" r="1.57"/><circle class="cls-1" cx="15.53" cy="173.54" r="1.07"/><circle class="cls-1" cx="15.53" cy="252.54" r="1.07"/><circle class="cls-1" cx="15.53" cy="331.54" r="1.07"/><circle class="cls-1" cx="15.53" cy="410.55" r="1.07"/><circle class="cls-1" cx="15.53" cy="489.55" r="0.54"/><circle class="cls-1" cx="15.53" cy="568.55" r="0.5"/><circle class="cls-1" cx="15.53" cy="647.55"/><circle class="cls-1" cx="15.53" cy="726.55" r="2.73"/><circle class="cls-1" cx="15.53" cy="805.56" r="2.73"/><circle class="cls-1" cx="15.53" cy="884.56" r="9.38"/><circle class="cls-1" cx="15.53" cy="963.56" r="9.38"/><circle class="cls-1" cx="15.53" cy="1042.56" r="10.53"/><circle class="cls-1" cx="15.53" cy="1121.57" r="10.53"/><circle class="cls-1" cx="15.53" cy="1200.57" r="10.53"/><circle class="cls-1" cx="94.54" cy="15.53" r="1.57"/><circle class="cls-1" cx="94.54" cy="94.54" r="1.07"/><circle class="cls-1" cx="94.54" cy="173.54" r="1.07"/><circle class="cls-1" cx="94.54" cy="252.54" r="1.07"/><circle class="cls-1" cx="94.54" cy="331.54" r="1.07"/><circle class="cls-1" cx="94.54" cy="410.55" r="0.54"/><circle class="cls-1" cx="94.54" cy="489.55" r="0.54"/><circle class="cls-1" cx="94.54" cy="568.55" r="0.54"/><circle class="cls-1" cx="94.54" cy="647.55" r="0.54"/><circle class="cls-1" cx="94.54" cy="726.55" r="2.73"/><circle class="cls-1" cx="94.54" cy="805.56" r="5.78"/><circle class="cls-1" cx="94.54" cy="884.56" r="9.38"/><circle class="cls-1" cx="94.54" cy="963.56" r="9.38"/><circle class="cls-1" cx="94.54" cy="1042.56" r="9.38"/><circle class="cls-1" cx="94.54" cy="1121.57" r="10.53"/><circle class="cls-1" cx="94.54" cy="1200.57" r="10.53"/><circle class="cls-1" cx="173.54" cy="15.53" r="1.57"/><circle class="cls-1" cx="173.54" cy="94.54" r="1.07"/><circle class="cls-1" cx="173.54" cy="173.54" r="1.07"/><circle class="cls-1" cx="173.54" cy="252.54" r="2.23"/><circle class="cls-1" cx="173.54" cy="331.54" r="2.23"/><circle class="cls-1" cx="173.54" cy="410.55" r="0.54"/><circle class="cls-1" cx="173.54" cy="489.55" r="0.54"/><circle class="cls-1" cx="173.54" cy="568.55" r="0.54"/><circle class="cls-1" cx="173.54" cy="647.55" r="0.91"/><circle class="cls-1" cx="173.54" cy="726.55" r="2.73"/><circle class="cls-1" cx="173.54" cy="805.56" r="8.72"/><circle class="cls-1" cx="173.54" cy="884.56" r="9.38"/><circle class="cls-1" cx="173.54" cy="963.56" r="9.38"/><circle class="cls-1" cx="173.54" cy="1042.56" r="9.38"/><circle class="cls-1" cx="173.54" cy="1121.57" r="9.38"/><circle class="cls-1" cx="173.54" cy="1200.57" r="9.38"/><circle class="cls-1" cx="252.54" cy="15.53" r="1.32"/><circle class="cls-1" cx="252.54" cy="94.54" r="1.07"/><circle class="cls-1" cx="252.54" cy="173.54" r="1.07"/><circle class="cls-1" cx="252.54" cy="252.54" r="2.23"/><circle class="cls-1" cx="252.54" cy="331.54" r="2.23"/><circle class="cls-1" cx="252.54" cy="410.55" r="2.23"/><circle class="cls-1" cx="252.54" cy="489.55" r="1.74"/><circle class="cls-1" cx="252.54" cy="568.55" r="0.54"/><circle class="cls-1" cx="252.54" cy="647.55" r="2.73"/><circle class="cls-1" cx="252.54" cy="726.55" r="2.73"/><circle class="cls-1" cx="252.54" cy="805.56" r="7.68"/><circle class="cls-1" cx="252.54" cy="884.56" r="7.68"/><circle class="cls-1" cx="252.54" cy="963.56" r="9.38"/><circle class="cls-1" cx="252.54" cy="1042.56" r="9.38"/><circle class="cls-1" cx="252.54" cy="1121.57" r="9.38"/><circle class="cls-1" cx="252.54" cy="1200.57" r="9.38"/><circle class="cls-1" cx="331.54" cy="15.53" r="1.07"/><circle class="cls-1" cx="331.54" cy="94.54" r="1.07"/><circle class="cls-1" cx="331.54" cy="173.54" r="2.23"/><circle class="cls-1" cx="331.54" cy="252.54" r="2.23"/><circle class="cls-1" cx="331.54" cy="331.54" r="2.23"/><circle class="cls-1" cx="331.54" cy="410.55" r="2.23"/><circle class="cls-1" cx="331.54" cy="489.55" r="2.23"/><circle class="cls-1" cx="331.54" cy="568.55" r="2.23"/><circle class="cls-1" cx="331.54" cy="647.55" r="2.73"/><circle class="cls-1" cx="331.54" cy="726.55" r="7.68"/><circle class="cls-1" cx="331.54" cy="805.56" r="7.68"/><circle class="cls-1" cx="331.54" cy="884.56" r="7.68"/><circle class="cls-1" cx="331.54" cy="963.56" r="7.68"/><circle class="cls-1" cx="331.54" cy="1042.56" r="9.38"/><circle class="cls-1" cx="331.54" cy="1121.57" r="9.38"/><circle class="cls-1" cx="331.54" cy="1200.57" r="8.84"/><circle class="cls-1" cx="410.55" cy="15.53" r="1.57"/><circle class="cls-1" cx="410.55" cy="94.54" r="1.57"/><circle class="cls-1" cx="410.55" cy="173.54" r="2.23"/><circle class="cls-1" cx="410.55" cy="252.54" r="2.23"/><circle class="cls-1" cx="410.55" cy="331.54" r="2.23"/><circle class="cls-1" cx="410.55" cy="410.55" r="2.23"/><circle class="cls-1" cx="410.55" cy="489.55" r="2.23"/><circle class="cls-1" cx="410.55" cy="568.55" r="7.15"/><circle class="cls-1" cx="410.55" cy="647.55" r="7.15"/><circle class="cls-1" cx="410.55" cy="726.55" r="7.68"/><circle class="cls-1" cx="410.55" cy="805.56" r="7.68"/><circle class="cls-1" cx="410.55" cy="884.56" r="7.68"/><circle class="cls-1" cx="410.55" cy="963.56" r="7.68"/><circle class="cls-1" cx="410.55" cy="1042.56" r="7.68"/><circle class="cls-1" cx="410.55" cy="1121.57" r="8.84"/><circle class="cls-1" cx="410.55" cy="1200.57" r="8.84"/><circle class="cls-1" cx="489.55" cy="15.53" r="1.57"/><circle class="cls-1" cx="489.55" cy="94.54" r="1.9"/><circle class="cls-1" cx="489.55" cy="173.54" r="3.26"/><circle class="cls-1" cx="489.55" cy="252.54" r="2.23"/><circle class="cls-1" cx="489.55" cy="331.54" r="2.23"/><circle class="cls-1" cx="489.55" cy="410.55" r="2.23"/><circle class="cls-1" cx="489.55" cy="489.55" r="2.23"/><circle class="cls-1" cx="489.55" cy="568.55" r="7.15"/><circle class="cls-1" cx="489.55" cy="647.55" r="7.15"/><circle class="cls-1" cx="489.55" cy="726.55" r="8.22"/><circle class="cls-1" cx="489.55" cy="805.56" r="8.22"/><circle class="cls-1" cx="489.55" cy="884.56" r="7.68"/><circle class="cls-1" cx="489.55" cy="963.56" r="7.68"/><circle class="cls-1" cx="489.55" cy="1042.56" r="7.68"/><circle class="cls-1" cx="489.55" cy="1121.57" r="8.84"/><circle class="cls-1" cx="489.55" cy="1200.57" r="8.84"/><circle class="cls-1" cx="568.55" cy="15.53" r="1.57"/><circle class="cls-1" cx="568.55" cy="94.54" r="3.26"/><circle class="cls-1" cx="568.55" cy="173.54" r="3.26"/><circle class="cls-1" cx="568.55" cy="252.54" r="3.26"/><circle class="cls-1" cx="568.55" cy="331.54" r="2.93"/><circle class="cls-1" cx="568.55" cy="410.55" r="2.23"/><circle class="cls-1" cx="568.55" cy="489.55" r="7.15"/><circle class="cls-1" cx="568.55" cy="568.55" r="7.15"/><circle class="cls-1" cx="568.55" cy="647.55" r="7.15"/><circle class="cls-1" cx="568.55" cy="726.55" r="8.22"/><circle class="cls-1" cx="568.55" cy="805.56" r="8.22"/><circle class="cls-1" cx="568.55" cy="884.56" r="8.22"/><circle class="cls-1" cx="568.55" cy="963.56" r="7.68"/><circle class="cls-1" cx="568.55" cy="1042.56" r="8.84"/><circle class="cls-1" cx="568.55" cy="1121.57" r="8.84"/><circle class="cls-1" cx="568.55" cy="1200.57" r="8.84"/><circle class="cls-1" cx="647.55" cy="15.53" r="1.57"/><circle class="cls-1" cx="647.55" cy="94.54" r="3.26"/><circle class="cls-1" cx="647.55" cy="173.54" r="3.26"/><circle class="cls-1" cx="647.55" cy="252.54" r="3.26"/><circle class="cls-1" cx="647.55" cy="331.54" r="3.26"/><circle class="cls-1" cx="647.55" cy="410.55" r="3.26"/><circle class="cls-1" cx="647.55" cy="489.55" r="7.15"/><circle class="cls-1" cx="647.55" cy="568.55" r="7.15"/><circle class="cls-1" cx="647.55" cy="647.55" r="8.22"/><circle class="cls-1" cx="647.55" cy="726.55" r="8.22"/><circle class="cls-1" cx="647.55" cy="805.56" r="8.22"/><circle class="cls-1" cx="647.55" cy="884.56" r="8.22"/><circle class="cls-1" cx="647.55" cy="963.56" r="7.15"/><circle class="cls-1" cx="647.55" cy="1042.56" r="8.51"/><circle class="cls-1" cx="647.55" cy="1121.57" r="8.84"/><circle class="cls-1" cx="647.55" cy="1200.57" r="8.84"/><circle class="cls-1" cx="726.55" cy="15.53" r="3.26"/><circle class="cls-1" cx="726.55" cy="94.54" r="3.26"/><circle class="cls-1" cx="726.55" cy="173.54" r="3.26"/><circle class="cls-1" cx="726.55" cy="252.54" r="5.74"/><circle class="cls-1" cx="726.55" cy="331.54" r="10.53"/><circle class="cls-1" cx="726.55" cy="410.55" r="5.62"/><circle class="cls-1" cx="726.55" cy="489.55" r="8.22"/><circle class="cls-1" cx="726.55" cy="568.55" r="7.15"/><circle class="cls-1" cx="726.55" cy="647.55" r="8.22"/><circle class="cls-1" cx="726.55" cy="726.55" r="8.22"/><circle class="cls-1" cx="726.55" cy="805.56" r="8.22"/><circle class="cls-1" cx="726.55" cy="884.56" r="8.22"/><circle class="cls-1" cx="726.55" cy="963.56" r="7.15"/><circle class="cls-1" cx="726.55" cy="1042.56" r="7.15"/><circle class="cls-1" cx="726.55" cy="1121.57" r="7.15"/><circle class="cls-1" cx="726.55" cy="1200.57" r="8.84"/><circle class="cls-1" cx="805.56" cy="15.53" r="1.57"/><circle class="cls-1" cx="805.56" cy="94.54" r="10.49"/><circle class="cls-1" cx="805.56" cy="173.54" r="10.53"/><circle class="cls-1" cx="805.56" cy="252.54" r="10.53"/><circle class="cls-1" cx="805.56" cy="331.54" r="10.53"/><circle class="cls-1" cx="805.56" cy="410.55" r="10.53"/><circle class="cls-1" cx="805.56" cy="489.55" r="8.63"/><circle class="cls-1" cx="805.56" cy="568.55" r="8.22"/><circle class="cls-1" cx="805.56" cy="647.55" r="8.22"/><circle class="cls-1" cx="805.56" cy="726.55" r="8.22"/><circle class="cls-1" cx="805.56" cy="805.56" r="8.22"/><circle class="cls-1" cx="805.56" cy="884.56" r="7.15"/><circle class="cls-1" cx="805.56" cy="963.56" r="7.15"/><circle class="cls-1" cx="805.56" cy="1042.56" r="7.15"/><circle class="cls-1" cx="805.56" cy="1121.57" r="7.15"/><circle class="cls-1" cx="805.56" cy="1200.57" r="9.38"/><circle class="cls-1" cx="884.56" cy="15.53" r="10.53"/><circle class="cls-1" cx="884.56" cy="94.54" r="10.53"/><circle class="cls-1" cx="884.56" cy="173.54" r="10.53"/><circle class="cls-1" cx="884.56" cy="252.54" r="10.53"/><circle class="cls-1" cx="884.56" cy="331.54" r="10.53"/><circle class="cls-1" cx="884.56" cy="410.55" r="10.53"/><circle class="cls-1" cx="884.56" cy="489.55" r="10.53"/><circle class="cls-1" cx="884.56" cy="568.55" r="8.22"/><circle class="cls-1" cx="884.56" cy="647.55" r="8.22"/><circle class="cls-1" cx="884.56" cy="726.55" r="8.22"/><circle class="cls-1" cx="884.56" cy="805.56" r="8.22"/><circle class="cls-1" cx="884.56" cy="884.56" r="7.15"/><circle class="cls-1" cx="884.56" cy="963.56" r="7.15"/><circle class="cls-1" cx="884.56" cy="1042.56" r="7.15"/><circle class="cls-1" cx="884.56" cy="1121.57" r="7.15"/><circle class="cls-1" cx="884.56" cy="1200.57" r="9.38"/><circle class="cls-1" cx="963.56" cy="15.53" r="10.53"/><circle class="cls-1" cx="963.56" cy="94.54" r="10.53"/><circle class="cls-1" cx="963.56" cy="173.54" r="10.53"/><circle class="cls-1" cx="963.56" cy="252.54" r="10.53"/><circle class="cls-1" cx="963.56" cy="331.54" r="10.53"/><circle class="cls-1" cx="963.56" cy="410.55" r="10.53"/><circle class="cls-1" cx="963.56" cy="489.55" r="10.53"/><circle class="cls-1" cx="963.56" cy="568.55" r="9.79"/><circle class="cls-1" cx="963.56" cy="647.55" r="8.22"/><circle class="cls-1" cx="963.56" cy="726.55" r="8.22"/><circle class="cls-1" cx="963.56" cy="805.56" r="8.22"/><circle class="cls-1" cx="963.56" cy="884.56" r="7.15"/><circle class="cls-1" cx="963.56" cy="963.56" r="7.15"/><circle class="cls-1" cx="963.56" cy="1042.56" r="7.15"/><circle class="cls-1" cx="963.56" cy="1121.57" r="9.38"/><circle class="cls-1" cx="963.56" cy="1200.57" r="9.38"/><circle class="cls-1" cx="1042.56" cy="15.53" r="10.53"/><circle class="cls-1" cx="1042.56" cy="94.54" r="10.53"/><circle class="cls-1" cx="1042.56" cy="173.54" r="10.53"/><circle class="cls-1" cx="1042.56" cy="252.54" r="10.53"/><circle class="cls-1" cx="1042.56" cy="331.54" r="10.53"/><circle class="cls-1" cx="1042.56" cy="410.55" r="10.53"/><circle class="cls-1" cx="1042.56" cy="489.55" r="10.53"/><circle class="cls-1" cx="1042.56" cy="568.55" r="10.53"/><circle class="cls-1" cx="1042.56" cy="647.55" r="8.22"/><circle class="cls-1" cx="1042.56" cy="726.55" r="8.22"/><circle class="cls-1" cx="1042.56" cy="805.56" r="8.22"/><circle class="cls-1" cx="1042.56" cy="884.56" r="8.22"/><circle class="cls-1" cx="1042.56" cy="963.56" r="8.22"/><circle class="cls-1" cx="1042.56" cy="1042.56" r="7.15"/><circle class="cls-1" cx="1042.56" cy="1121.57" r="9.38"/><circle class="cls-1" cx="1042.56" cy="1200.57" r="9.38"/><circle class="cls-1" cx="1121.57" cy="15.53" r="10.53"/><circle class="cls-1" cx="1121.57" cy="94.54" r="10.53"/><circle class="cls-1" cx="1121.57" cy="173.54" r="10.53"/><circle class="cls-1" cx="1121.57" cy="252.54" r="10.53"/><circle class="cls-1" cx="1121.57" cy="331.54" r="10.53"/><circle class="cls-1" cx="1121.57" cy="410.55" r="10.53"/><circle class="cls-1" cx="1121.57" cy="489.55" r="10.53"/><circle class="cls-1" cx="1121.57" cy="568.55" r="10.53"/><circle class="cls-1" cx="1121.57" cy="647.55" r="10.53"/><circle class="cls-1" cx="1121.57" cy="726.55" r="8.59"/><circle class="cls-1" cx="1121.57" cy="805.56" r="8.22"/><circle class="cls-1" cx="1121.57" cy="884.56" r="8.22"/><circle class="cls-1" cx="1121.57" cy="963.56" r="8.22"/><circle class="cls-1" cx="1121.57" cy="1042.56" r="8.22"/><circle class="cls-1" cx="1121.57" cy="1121.57" r="9.38"/><circle class="cls-1" cx="1121.57" cy="1200.57" r="9.38"/><circle class="cls-1" cx="1200.57" cy="15.53" r="10.53"/><circle class="cls-1" cx="1200.57" cy="94.54" r="10.53"/><circle class="cls-1" cx="1200.57" cy="173.54" r="10.53"/><circle class="cls-1" cx="1200.57" cy="252.54" r="10.53"/><circle class="cls-1" cx="1200.57" cy="331.54" r="10.53"/><circle class="cls-1" cx="1200.57" cy="410.55" r="10.53"/><circle class="cls-1" cx="1200.57" cy="489.55" r="10.53"/><circle class="cls-1" cx="1200.57" cy="568.55" r="10.53"/><circle class="cls-1" cx="1200.57" cy="647.55" r="10.53"/><circle class="cls-1" cx="1200.57" cy="726.55" r="10.53"/><circle class="cls-1" cx="1200.57" cy="805.56" r="10.53"/><circle class="cls-1" cx="1200.57" cy="884.56" r="8.22"/><circle class="cls-1" cx="1200.57" cy="963.56" r="8.22"/><circle class="cls-1" cx="1200.57" cy="1042.56" r="8.22"/><circle class="cls-1" cx="1200.57" cy="1121.57" r="7.68"/><circle class="cls-1" cx="1200.57" cy="1200.57" r="8.84"/><circle class="cls-1" cx="1279.57" cy="15.53" r="10.53"/><circle class="cls-1" cx="1279.57" cy="94.54" r="10.53"/><circle class="cls-1" cx="1279.57" cy="173.54" r="10.53"/><circle class="cls-1" cx="1279.57" cy="252.54" r="10.53"/><circle class="cls-1" cx="1279.57" cy="331.54" r="10.53"/><circle class="cls-1" cx="1279.57" cy="410.55" r="10.53"/><circle class="cls-1" cx="1279.57" cy="489.55" r="10.53"/><circle class="cls-1" cx="1279.57" cy="568.55" r="10.53"/><circle class="cls-1" cx="1279.57" cy="647.55" r="10.53"/><circle class="cls-1" cx="1279.57" cy="726.55" r="10.53"/><circle class="cls-1" cx="1279.57" cy="805.56" r="10.53"/><circle class="cls-1" cx="1279.57" cy="884.56" r="10.53"/><circle class="cls-1" cx="1279.57" cy="963.56" r="10.53"/><circle class="cls-1" cx="1279.57" cy="1042.56" r="8.22"/><circle class="cls-1" cx="1279.57" cy="1121.57" r="7.68"/><circle class="cls-1" cx="1279.57" cy="1200.57" r="7.68"/><circle class="cls-1" cx="1358.57" cy="15.53" r="3.8"/><circle class="cls-1" cx="1358.57" cy="94.54" r="10.53"/><circle class="cls-1" cx="1358.57" cy="173.54" r="10.53"/><circle class="cls-1" cx="1358.57" cy="252.54" r="10.53"/><circle class="cls-1" cx="1358.57" cy="331.54" r="10.53"/><circle class="cls-1" cx="1358.57" cy="410.55" r="10.53"/><circle class="cls-1" cx="1358.57" cy="489.55" r="10.53"/><circle class="cls-1" cx="1358.57" cy="568.55" r="10.53"/><circle class="cls-1" cx="1358.57" cy="647.55" r="10.53"/><circle class="cls-1" cx="1358.57" cy="726.55" r="10.53"/><circle class="cls-1" cx="1358.57" cy="805.56" r="10.53"/><circle class="cls-1" cx="1358.57" cy="884.56" r="10.53"/><circle class="cls-1" cx="1358.57" cy="963.56" r="10.53"/><circle class="cls-1" cx="1358.57" cy="1042.56" r="10.53"/><circle class="cls-1" cx="1358.57" cy="1121.57" r="7.68"/><circle class="cls-1" cx="1358.57" cy="1200.57" r="7.68"/><circle class="cls-1" cx="1437.58" cy="15.53" r="3.8"/><circle class="cls-1" cx="1437.58" cy="94.54" r="10.53"/><circle class="cls-1" cx="1437.58" cy="173.54" r="10.53"/><circle class="cls-1" cx="1437.58" cy="252.54" r="10.53"/><circle class="cls-1" cx="1437.58" cy="331.54" r="10.53"/><circle class="cls-1" cx="1437.58" cy="410.55" r="10.53"/><circle class="cls-1" cx="1437.58" cy="489.55" r="10.53"/><circle class="cls-1" cx="1437.58" cy="568.55" r="10.53"/><circle class="cls-1" cx="1437.58" cy="647.55" r="10.53"/><circle class="cls-1" cx="1437.58" cy="726.55" r="10.53"/><circle class="cls-1" cx="1437.58" cy="805.56" r="10.53"/><circle class="cls-1" cx="1437.58" cy="884.56" r="10.53"/><circle class="cls-1" cx="1437.58" cy="963.56" r="10.53"/><circle class="cls-1" cx="1437.58" cy="1042.56" r="10.53"/><circle class="cls-1" cx="1437.58" cy="1121.57" r="7.68"/><circle class="cls-1" cx="1437.58" cy="1200.57" r="7.68"/><circle class="cls-1" cx="1516.58" cy="15.53" r="3.8"/><circle class="cls-1" cx="1516.58" cy="94.54" r="10.53"/><circle class="cls-1" cx="1516.58" cy="173.54" r="10.53"/><circle class="cls-1" cx="1516.58" cy="252.54" r="10.53"/><circle class="cls-1" cx="1516.58" cy="331.54" r="10.53"/><circle class="cls-1" cx="1516.58" cy="410.55" r="9.34"/><circle class="cls-1" cx="1516.58" cy="489.55" r="10.53"/><circle class="cls-1" cx="1516.58" cy="568.55" r="10.53"/><circle class="cls-1" cx="1516.58" cy="647.55" r="10.53"/><circle class="cls-1" cx="1516.58" cy="726.55" r="10.53"/><circle class="cls-1" cx="1516.58" cy="805.56" r="10.53"/><circle class="cls-1" cx="1516.58" cy="884.56" r="10.53"/><circle class="cls-1" cx="1516.58" cy="963.56" r="10.53"/><circle class="cls-1" cx="1516.58" cy="1042.56" r="10.53"/><circle class="cls-1" cx="1516.58" cy="1121.57" r="10.53"/><circle class="cls-1" cx="1516.58" cy="1200.57" r="7.68"/><circle class="cls-1" cx="1595.58" cy="15.53" r="8.22"/><circle class="cls-1" cx="1595.58" cy="94.54" r="10.53"/><circle class="cls-1" cx="1595.58" cy="173.54" r="10.53"/><circle class="cls-1" cx="1595.58" cy="252.54" r="10.53"/><circle class="cls-1" cx="1595.58" cy="331.54" r="10.53"/><circle class="cls-1" cx="1595.58" cy="410.55" r="10.53"/><circle class="cls-1" cx="1595.58" cy="489.55" r="10.53"/><circle class="cls-1" cx="1595.58" cy="568.55" r="10.53"/><circle class="cls-1" cx="1595.58" cy="647.55" r="10.53"/><circle class="cls-1" cx="1595.58" cy="726.55" r="10.53"/><circle class="cls-1" cx="1595.58" cy="805.56" r="10.53"/><circle class="cls-1" cx="1595.58" cy="884.56" r="10.53"/><circle class="cls-1" cx="1595.58" cy="963.56" r="10.53"/><circle class="cls-1" cx="1595.58" cy="1042.56" r="10.53"/><circle class="cls-1" cx="1595.58" cy="1121.57" r="10.53"/><circle class="cls-1" cx="1595.58" cy="1200.57" r="10.53"/><circle class="cls-1" cx="1674.58" cy="15.53" r="10.53"/><circle class="cls-1" cx="1674.58" cy="94.54" r="10.53"/><circle class="cls-1" cx="1674.58" cy="173.54" r="10.53"/><circle class="cls-1" cx="1674.58" cy="252.54" r="10.53"/><circle class="cls-1" cx="1674.58" cy="331.54" r="10.53"/><circle class="cls-1" cx="1674.58" cy="410.55" r="10.53"/><circle class="cls-1" cx="1674.58" cy="489.55" r="10.53"/><circle class="cls-1" cx="1674.58" cy="568.55" r="10.53"/><circle class="cls-1" cx="1674.58" cy="647.55" r="10.53"/><circle class="cls-1" cx="1674.58" cy="726.55" r="10.53"/><circle class="cls-1" cx="1674.58" cy="805.56" r="10.53"/><circle class="cls-1" cx="1674.58" cy="884.56" r="10.53"/><circle class="cls-1" cx="1674.58" cy="963.56" r="10.53"/><circle class="cls-1" cx="1674.58" cy="1042.56" r="10.53"/><circle class="cls-1" cx="1674.58" cy="1121.57" r="10.53"/><circle class="cls-1" cx="1674.58" cy="1200.57" r="10.53"/><circle class="cls-1" cx="1753.59" cy="15.53" r="10.53"/><circle class="cls-1" cx="1753.59" cy="94.54" r="10.53"/><circle class="cls-1" cx="1753.59" cy="173.54" r="10.53"/><circle class="cls-1" cx="1753.59" cy="252.54" r="10.53"/><circle class="cls-1" cx="1753.59" cy="331.54" r="10.53"/><circle class="cls-1" cx="1753.59" cy="410.55" r="10.53"/><circle class="cls-1" cx="1753.59" cy="489.55" r="10.53"/><circle class="cls-1" cx="1753.59" cy="568.55" r="10.53"/><circle class="cls-1" cx="1753.59" cy="647.55" r="10.53"/><circle class="cls-1" cx="1753.59" cy="726.55" r="10.53"/><circle class="cls-1" cx="1753.59" cy="805.56" r="10.53"/><circle class="cls-1" cx="1753.59" cy="884.56" r="10.53"/><circle class="cls-1" cx="1753.59" cy="963.56" r="10.53"/><circle class="cls-1" cx="1753.59" cy="1042.56" r="10.53"/><circle class="cls-1" cx="1753.59" cy="1121.57" r="10.53"/><circle class="cls-1" cx="1753.59" cy="1200.57" r="10.53"/><circle class="cls-1" cx="1832.59" cy="15.53" r="10.53"/><circle class="cls-1" cx="1832.59" cy="94.54" r="10.53"/><circle class="cls-1" cx="1832.59" cy="173.54" r="10.53"/><circle class="cls-1" cx="1832.59" cy="252.54" r="10.53"/><circle class="cls-1" cx="1832.59" cy="331.54" r="10.53"/><circle class="cls-1" cx="1832.59" cy="410.55" r="10.53"/><circle class="cls-1" cx="1832.59" cy="489.55" r="10.53"/><circle class="cls-1" cx="1832.59" cy="568.55" r="10.53"/><circle class="cls-1" cx="1832.59" cy="647.55" r="10.53"/><circle class="cls-1" cx="1832.59" cy="726.55" r="10.53"/><circle class="cls-1" cx="1832.59" cy="805.56" r="10.53"/><circle class="cls-1" cx="1832.59" cy="884.56" r="10.53"/><circle class="cls-1" cx="1832.59" cy="963.56" r="10.53"/><circle class="cls-1" cx="1832.59" cy="1042.56" r="10.53"/><circle class="cls-1" cx="1832.59" cy="1121.57" r="10.2"/><circle class="cls-1" cx="1832.59" cy="1200.57" r="10.53"/><circle class="cls-1" cx="1911.59" cy="15.53" r="10.53"/><circle class="cls-1" cx="1911.59" cy="94.54" r="10.53"/><circle class="cls-1" cx="1911.59" cy="173.54" r="10.53"/><circle class="cls-1" cx="1911.59" cy="252.54" r="10.53"/><circle class="cls-1" cx="1911.59" cy="331.54" r="10.53"/><circle class="cls-1" cx="1911.59" cy="410.55" r="10.53"/><circle class="cls-1" cx="1911.59" cy="489.55" r="10.53"/><circle class="cls-1" cx="1911.59" cy="568.55" r="10.53"/><circle class="cls-1" cx="1911.59" cy="647.55" r="10.53"/><circle class="cls-1" cx="1911.59" cy="726.55" r="10.53"/><circle class="cls-1" cx="1911.59" cy="805.56" r="10.53"/><circle class="cls-1" cx="1911.59" cy="884.56" r="10.53"/><circle class="cls-1" cx="1911.59" cy="963.56" r="10.53"/><circle class="cls-1" cx="1911.59" cy="1042.56" r="7.68"/><circle class="cls-1" cx="1911.59" cy="1121.57" r="10.53"/><circle class="cls-1" cx="1911.59" cy="1200.57" r="7.64"/></g><g id="Asthma"><circle class="cls-2" cx="15.53" cy="15.53" r="8.84"/><circle class="cls-2" cx="15.53" cy="94.54" r="8.84"/><circle class="cls-2" cx="15.53" cy="173.54" r="8.84"/><circle class="cls-2" cx="15.53" cy="252.54" r="7.68"/><circle class="cls-2" cx="15.53" cy="331.54" r="7.68"/><circle class="cls-2" cx="15.53" cy="410.55" r="7.68"/><circle class="cls-2" cx="15.53" cy="489.55" r="7.68"/><circle class="cls-2" cx="15.53" cy="568.55" r="7.68"/><circle class="cls-2" cx="15.53" cy="647.55" r="7.68"/><circle class="cls-2" cx="15.53" cy="726.55" r="0.54"/><circle class="cls-2" cx="15.53" cy="805.56" r="0.54"/><circle class="cls-2" cx="15.53" cy="884.56" r="0.54"/><circle class="cls-2" cx="15.53" cy="963.56" r="0.54"/><circle class="cls-2" cx="15.53" cy="1042.56" r="10.53"/><circle class="cls-2" cx="15.53" cy="1121.57" r="10.53"/><circle class="cls-2" cx="15.53" cy="1200.57" r="10.53"/><circle class="cls-2" cx="94.54" cy="15.53" r="8.84"/><circle class="cls-2" cx="94.54" cy="94.54" r="8.84"/><circle class="cls-2" cx="94.54" cy="173.54" r="7.68"/><circle class="cls-2" cx="94.54" cy="252.54" r="7.68"/><circle class="cls-2" cx="94.54" cy="331.54" r="7.68"/><circle class="cls-2" cx="94.54" cy="410.55" r="7.68"/><circle class="cls-2" cx="94.54" cy="489.55" r="7.68"/><circle class="cls-2" cx="94.54" cy="568.55" r="7.68"/><circle class="cls-2" cx="94.54" cy="647.55" r="7.68"/><circle class="cls-2" cx="94.54" cy="726.55" r="0.54"/><circle class="cls-2" cx="94.54" cy="805.56" r="0.54"/><circle class="cls-2" cx="94.54" cy="884.56" r="0.54"/><circle class="cls-2" cx="94.54" cy="963.56" r="0.54"/><circle class="cls-2" cx="94.54" cy="1042.56" r="0.54"/><circle class="cls-2" cx="94.54" cy="1121.57" r="10.53"/><circle class="cls-2" cx="94.54" cy="1200.57" r="10.53"/><circle class="cls-2" cx="173.54" cy="15.53" r="8.84"/><circle class="cls-2" cx="173.54" cy="94.54" r="8.84"/><circle class="cls-2" cx="173.54" cy="173.54" r="7.68"/><circle class="cls-2" cx="173.54" cy="252.54" r="7.68"/><circle class="cls-2" cx="173.54" cy="331.54" r="7.68"/><circle class="cls-2" cx="173.54" cy="410.55" r="7.68"/><circle class="cls-2" cx="173.54" cy="489.55" r="7.68"/><circle class="cls-2" cx="173.54" cy="568.55" r="7.68"/><circle class="cls-2" cx="173.54" cy="647.55" r="6.44"/><circle class="cls-2" cx="173.54" cy="726.55" r="0.54"/><circle class="cls-2" cx="173.54" cy="805.56" r="0.54"/><circle class="cls-2" cx="173.54" cy="884.56" r="0.54"/><circle class="cls-2" cx="173.54" cy="963.56" r="0.54"/><circle class="cls-2" cx="173.54" cy="1042.56" r="0.54"/><circle class="cls-2" cx="173.54" cy="1121.57" r="0.54"/><circle class="cls-2" cx="173.54" cy="1200.57" r="0.54"/><circle class="cls-2" cx="252.54" cy="15.53" r="8.84"/><circle class="cls-2" cx="252.54" cy="94.54" r="7.68"/><circle class="cls-2" cx="252.54" cy="173.54" r="7.68"/><circle class="cls-2" cx="252.54" cy="252.54" r="7.68"/><circle class="cls-2" cx="252.54" cy="331.54" r="7.68"/><circle class="cls-2" cx="252.54" cy="410.55" r="7.68"/><circle class="cls-2" cx="252.54" cy="489.55" r="7.68"/><circle class="cls-2" cx="252.54" cy="568.55" r="7.68"/><circle class="cls-2" cx="252.54" cy="647.55" r="0.54"/><circle class="cls-2" cx="252.54" cy="726.55" r="0.54"/><circle class="cls-2" cx="252.54" cy="805.56" r="0.54"/><circle class="cls-2" cx="252.54" cy="884.56" r="0.54"/><circle class="cls-2" cx="252.54" cy="963.56" r="0.54"/><circle class="cls-2" cx="252.54" cy="1042.56" r="0.54"/><circle class="cls-2" cx="252.54" cy="1121.57" r="0.54"/><circle class="cls-2" cx="252.54" cy="1200.57" r="0.54"/><circle class="cls-2" cx="331.54" cy="15.53" r="8.84"/><circle class="cls-2" cx="331.54" cy="94.54" r="7.68"/><circle class="cls-2" cx="331.54" cy="173.54" r="7.68"/><circle class="cls-2" cx="331.54" cy="252.54" r="7.68"/><circle class="cls-2" cx="331.54" cy="331.54" r="7.68"/><circle class="cls-2" cx="331.54" cy="410.55" r="7.68"/><circle class="cls-2" cx="331.54" cy="489.55" r="7.68"/><circle class="cls-2" cx="331.54" cy="568.55" r="7.68"/><circle class="cls-2" cx="331.54" cy="647.55" r="0.54"/><circle class="cls-2" cx="331.54" cy="726.55" r="0.54"/><circle class="cls-2" cx="331.54" cy="805.56" r="0.54"/><circle class="cls-2" cx="331.54" cy="884.56" r="0.54"/><circle class="cls-2" cx="331.54" cy="963.56" r="0.54"/><circle class="cls-2" cx="331.54" cy="1042.56" r="0.54"/><circle class="cls-2" cx="331.54" cy="1121.57" r="0.54"/><circle class="cls-2" cx="331.54" cy="1200.57" r="0.54"/><circle class="cls-2" cx="410.55" cy="15.53" r="8.06"/><circle class="cls-2" cx="410.55" cy="94.54" r="7.68"/><circle class="cls-2" cx="410.55" cy="173.54" r="7.68"/><circle class="cls-2" cx="410.55" cy="252.54" r="7.68"/><circle class="cls-2" cx="410.55" cy="331.54" r="7.68"/><circle class="cls-2" cx="410.55" cy="410.55" r="7.68"/><circle class="cls-2" cx="410.55" cy="489.55" r="7.68"/><circle class="cls-2" cx="410.55" cy="568.55" r="0.54"/><circle class="cls-2" cx="410.55" cy="647.55" r="0.54"/><circle class="cls-2" cx="410.55" cy="726.55" r="0.54"/><circle class="cls-2" cx="410.55" cy="805.56" r="0.54"/><circle class="cls-2" cx="410.55" cy="884.56" r="0.54"/><circle class="cls-2" cx="410.55" cy="963.56" r="0.54"/><circle class="cls-2" cx="410.55" cy="1042.56" r="0.54"/><circle class="cls-2" cx="410.55" cy="1121.57" r="0.54"/><circle class="cls-2" cx="410.55" cy="1200.57" r="0.54"/><circle class="cls-2" cx="489.55" cy="15.53" r="7.68"/><circle class="cls-2" cx="489.55" cy="94.54" r="7.68"/><circle class="cls-2" cx="489.55" cy="173.54" r="7.68"/><circle class="cls-2" cx="489.55" cy="252.54" r="7.68"/><circle class="cls-2" cx="489.55" cy="331.54" r="7.68"/><circle class="cls-2" cx="489.55" cy="410.55" r="7.68"/><circle class="cls-2" cx="489.55" cy="489.55" r="7.68"/><circle class="cls-2" cx="489.55" cy="568.55" r="0.54"/><circle class="cls-2" cx="489.55" cy="647.55" r="0.54"/><circle class="cls-2" cx="489.55" cy="726.55" r="0.54"/><circle class="cls-2" cx="489.55" cy="805.56" r="0.54"/><circle class="cls-2" cx="489.55" cy="884.56" r="0.54"/><circle class="cls-2" cx="489.55" cy="963.56" r="0.54"/><circle class="cls-2" cx="489.55" cy="1042.56" r="0.54"/><circle class="cls-2" cx="489.55" cy="1121.57" r="0.54"/><circle class="cls-2" cx="489.55" cy="1200.57" r="0.54"/><circle class="cls-2" cx="568.55" cy="15.53" r="7.68"/><circle class="cls-2" cx="568.55" cy="94.54" r="7.68"/><circle class="cls-2" cx="568.55" cy="173.54" r="7.68"/><circle class="cls-2" cx="568.55" cy="252.54" r="7.68"/><circle class="cls-2" cx="568.55" cy="331.54" r="7.68"/><circle class="cls-2" cx="568.55" cy="410.55" r="7.68"/><circle class="cls-2" cx="568.55" cy="489.55" r="0.54"/><circle class="cls-2" cx="568.55" cy="568.55" r="0.54"/><circle class="cls-2" cx="568.55" cy="647.55" r="0.54"/><circle class="cls-2" cx="568.55" cy="726.55" r="0.54"/><circle class="cls-2" cx="568.55" cy="805.56" r="0.54"/><circle class="cls-2" cx="568.55" cy="884.56" r="0.54"/><circle class="cls-2" cx="568.55" cy="963.56" r="0.54"/><circle class="cls-2" cx="568.55" cy="1042.56" r="0.54"/><circle class="cls-2" cx="568.55" cy="1121.57" r="0.54"/><circle class="cls-2" cx="568.55" cy="1200.57" r="0.54"/><circle class="cls-2" cx="647.55" cy="15.53" r="7.68"/><circle class="cls-2" cx="647.55" cy="94.54" r="7.68"/><circle class="cls-2" cx="647.55" cy="173.54" r="7.68"/><circle class="cls-2" cx="647.55" cy="252.54" r="7.68"/><circle class="cls-2" cx="647.55" cy="331.54" r="7.68"/><circle class="cls-2" cx="647.55" cy="410.55" r="7.68"/><circle class="cls-2" cx="647.55" cy="489.55" r="0.54"/><circle class="cls-2" cx="647.55" cy="568.55" r="0.54"/><circle class="cls-2" cx="647.55" cy="647.55" r="0.54"/><circle class="cls-2" cx="647.55" cy="726.55" r="0.54"/><circle class="cls-2" cx="647.55" cy="805.56" r="0.54"/><circle class="cls-2" cx="647.55" cy="884.56" r="0.54"/><circle class="cls-2" cx="647.55" cy="963.56" r="0.54"/><circle class="cls-2" cx="647.55" cy="1042.56" r="0.54"/><circle class="cls-2" cx="647.55" cy="1121.57" r="0.54"/><circle class="cls-2" cx="647.55" cy="1200.57" r="0.54"/><circle class="cls-2" cx="726.55" cy="15.53" r="7.68"/><circle class="cls-2" cx="726.55" cy="94.54" r="7.68"/><circle class="cls-2" cx="726.55" cy="173.54" r="7.68"/><circle class="cls-2" cx="726.55" cy="252.54" r="8.67"/><circle class="cls-2" cx="726.55" cy="331.54" r="10.53"/><circle class="cls-2" cx="726.55" cy="410.55" r="7.68"/><circle class="cls-2" cx="726.55" cy="489.55" r="0.54"/><circle class="cls-2" cx="726.55" cy="568.55" r="0.54"/><circle class="cls-2" cx="726.55" cy="647.55" r="0.54"/><circle class="cls-2" cx="726.55" cy="726.55" r="0.54"/><circle class="cls-2" cx="726.55" cy="805.56" r="0.54"/><circle class="cls-2" cx="726.55" cy="884.56" r="0.54"/><circle class="cls-2" cx="726.55" cy="963.56" r="0.54"/><circle class="cls-2" cx="726.55" cy="1042.56" r="0.54"/><circle class="cls-2" cx="726.55" cy="1121.57" r="0.54"/><circle class="cls-2" cx="726.55" cy="1200.57" r="0.54"/><circle class="cls-2" cx="805.56" cy="15.53" r="8.88"/><circle class="cls-2" cx="805.56" cy="94.54" r="10.53"/><circle class="cls-2" cx="805.56" cy="173.54" r="10.53"/><circle class="cls-2" cx="805.56" cy="252.54" r="10.53"/><circle class="cls-2" cx="805.56" cy="331.54" r="10.53"/><circle class="cls-2" cx="805.56" cy="410.55" r="10.53"/><circle class="cls-2" cx="805.56" cy="489.55" r="2.31"/><circle class="cls-2" cx="805.56" cy="568.55" r="0.54"/><circle class="cls-2" cx="805.56" cy="647.55" r="0.54"/><circle class="cls-2" cx="805.56" cy="726.55" r="0.54"/><circle class="cls-2" cx="805.56" cy="805.56" r="0.54"/><circle class="cls-2" cx="805.56" cy="884.56" r="0.54"/><circle class="cls-2" cx="805.56" cy="963.56" r="0.54"/><circle class="cls-2" cx="805.56" cy="1042.56" r="0.54"/><circle class="cls-2" cx="805.56" cy="1121.57" r="0.54"/><circle class="cls-2" cx="805.56" cy="1200.57" r="0.54"/><circle class="cls-2" cx="884.56" cy="15.53" r="10.53"/><circle class="cls-2" cx="884.56" cy="94.54" r="10.53"/><circle class="cls-2" cx="884.56" cy="173.54" r="10.53"/><circle class="cls-2" cx="884.56" cy="252.54" r="10.53"/><circle class="cls-2" cx="884.56" cy="331.54" r="10.53"/><circle class="cls-2" cx="884.56" cy="410.55" r="10.53"/><circle class="cls-2" cx="884.56" cy="489.55" r="10.53"/><circle class="cls-2" cx="884.56" cy="568.55" r="0.54"/><circle class="cls-2" cx="884.56" cy="647.55" r="0.54"/><circle class="cls-2" cx="884.56" cy="726.55" r="0.54"/><circle class="cls-2" cx="884.56" cy="805.56" r="0.54"/><circle class="cls-2" cx="884.56" cy="884.56" r="0.54"/><circle class="cls-2" cx="884.56" cy="963.56" r="0.54"/><circle class="cls-2" cx="884.56" cy="1042.56" r="0.54"/><circle class="cls-2" cx="884.56" cy="1121.57" r="0.54"/><circle class="cls-2" cx="884.56" cy="1200.57" r="0.54"/><circle class="cls-2" cx="963.56" cy="15.53" r="10.53"/><circle class="cls-2" cx="963.56" cy="94.54" r="10.53"/><circle class="cls-2" cx="963.56" cy="173.54" r="10.53"/><circle class="cls-2" cx="963.56" cy="252.54" r="10.53"/><circle class="cls-2" cx="963.56" cy="331.54" r="10.53"/><circle class="cls-2" cx="963.56" cy="410.55" r="10.53"/><circle class="cls-2" cx="963.56" cy="489.55" r="10.53"/><circle class="cls-2" cx="963.56" cy="568.55" r="7.35"/><circle class="cls-2" cx="963.56" cy="647.55" r="0.54"/><circle class="cls-2" cx="963.56" cy="726.55" r="0.54"/><circle class="cls-2" cx="963.56" cy="805.56" r="0.54"/><circle class="cls-2" cx="963.56" cy="884.56" r="0.54"/><circle class="cls-2" cx="963.56" cy="963.56" r="0.54"/><circle class="cls-2" cx="963.56" cy="1042.56" r="0.54"/><circle class="cls-2" cx="963.56" cy="1121.57" r="0.54"/><circle class="cls-2" cx="963.56" cy="1200.57" r="0.54"/><circle class="cls-2" cx="1042.56" cy="15.53" r="10.53"/><circle class="cls-2" cx="1042.56" cy="94.54" r="10.53"/><circle class="cls-2" cx="1042.56" cy="173.54" r="10.53"/><circle class="cls-2" cx="1042.56" cy="252.54" r="10.53"/><circle class="cls-2" cx="1042.56" cy="331.54" r="10.53"/><circle class="cls-2" cx="1042.56" cy="410.55" r="10.53"/><circle class="cls-2" cx="1042.56" cy="489.55" r="10.53"/><circle class="cls-2" cx="1042.56" cy="568.55" r="10.53"/><circle class="cls-2" cx="1042.56" cy="647.55" r="0.54"/><circle class="cls-2" cx="1042.56" cy="726.55" r="0.54"/><circle class="cls-2" cx="1042.56" cy="805.56" r="0.54"/><circle class="cls-2" cx="1042.56" cy="884.56" r="0.54"/><circle class="cls-2" cx="1042.56" cy="963.56" r="0.54"/><circle class="cls-2" cx="1042.56" cy="1042.56" r="0.54"/><circle class="cls-2" cx="1042.56" cy="1121.57" r="0.54"/><circle class="cls-2" cx="1042.56" cy="1200.57" r="0.54"/><circle class="cls-2" cx="1121.57" cy="15.53" r="10.53"/><circle class="cls-2" cx="1121.57" cy="94.54" r="10.53"/><circle class="cls-2" cx="1121.57" cy="173.54" r="10.53"/><circle class="cls-2" cx="1121.57" cy="252.54" r="10.53"/><circle class="cls-2" cx="1121.57" cy="331.54" r="10.53"/><circle class="cls-2" cx="1121.57" cy="410.55" r="10.53"/><circle class="cls-2" cx="1121.57" cy="489.55" r="10.53"/><circle class="cls-2" cx="1121.57" cy="568.55" r="10.53"/><circle class="cls-2" cx="1121.57" cy="647.55" r="10.53"/><circle class="cls-2" cx="1121.57" cy="726.55" r="2.23"/><circle class="cls-2" cx="1121.57" cy="805.56" r="0.54"/><circle class="cls-2" cx="1121.57" cy="884.56" r="0.54"/><circle class="cls-2" cx="1121.57" cy="963.56" r="0.54"/><circle class="cls-2" cx="1121.57" cy="1042.56" r="0.54"/><circle class="cls-2" cx="1121.57" cy="1121.57" r="0.54"/><circle class="cls-2" cx="1121.57" cy="1200.57" r="0.54"/><circle class="cls-2" cx="1200.57" cy="15.53" r="10.53"/><circle class="cls-2" cx="1200.57" cy="94.54" r="10.53"/><circle class="cls-2" cx="1200.57" cy="173.54" r="10.53"/><circle class="cls-2" cx="1200.57" cy="252.54" r="10.53"/><circle class="cls-2" cx="1200.57" cy="331.54" r="10.53"/><circle class="cls-2" cx="1200.57" cy="410.55" r="10.53"/><circle class="cls-2" cx="1200.57" cy="489.55" r="10.53"/><circle class="cls-2" cx="1200.57" cy="568.55" r="10.53"/><circle class="cls-2" cx="1200.57" cy="647.55" r="10.53"/><circle class="cls-2" cx="1200.57" cy="726.55" r="10.53"/><circle class="cls-2" cx="1200.57" cy="805.56" r="10.53"/><circle class="cls-2" cx="1200.57" cy="884.56" r="0.54"/><circle class="cls-2" cx="1200.57" cy="963.56" r="0.54"/><circle class="cls-2" cx="1200.57" cy="1042.56" r="0.54"/><circle class="cls-2" cx="1200.57" cy="1121.57" r="0.54"/><circle class="cls-2" cx="1200.57" cy="1200.57" r="0.54"/><circle class="cls-2" cx="1279.57" cy="15.53" r="10.53"/><circle class="cls-2" cx="1279.57" cy="94.54" r="10.53"/><circle class="cls-2" cx="1279.57" cy="173.54" r="10.53"/><circle class="cls-2" cx="1279.57" cy="252.54" r="10.53"/><circle class="cls-2" cx="1279.57" cy="331.54" r="10.53"/><circle class="cls-2" cx="1279.57" cy="410.55" r="10.53"/><circle class="cls-2" cx="1279.57" cy="489.55" r="10.53"/><circle class="cls-2" cx="1279.57" cy="568.55" r="10.53"/><circle class="cls-2" cx="1279.57" cy="647.55" r="10.53"/><circle class="cls-2" cx="1279.57" cy="726.55" r="10.53"/><circle class="cls-2" cx="1279.57" cy="805.56" r="10.53"/><circle class="cls-2" cx="1279.57" cy="884.56" r="10.53"/><circle class="cls-2" cx="1279.57" cy="963.56" r="10.53"/><circle class="cls-2" cx="1279.57" cy="1042.56" r="0.54"/><circle class="cls-2" cx="1279.57" cy="1121.57" r="0.54"/><circle class="cls-2" cx="1279.57" cy="1200.57" r="0.54"/><circle class="cls-2" cx="1358.57" cy="15.53" r="5.99"/><circle class="cls-2" cx="1358.57" cy="94.54" r="10.53"/><circle class="cls-2" cx="1358.57" cy="173.54" r="10.53"/><circle class="cls-2" cx="1358.57" cy="252.54" r="10.53"/><circle class="cls-2" cx="1358.57" cy="331.54" r="10.53"/><circle class="cls-2" cx="1358.57" cy="410.55" r="10.53"/><circle class="cls-2" cx="1358.57" cy="489.55"/><circle class="cls-2" cx="1358.57" cy="568.55"/><circle class="cls-2" cx="1358.57" cy="647.55"/><circle class="cls-2" cx="1358.57" cy="726.55" r="10.53"/><circle class="cls-2" cx="1358.57" cy="805.56" r="10.53"/><circle class="cls-2" cx="1358.57" cy="884.56" r="10.53"/><circle class="cls-2" cx="1358.57" cy="963.56" r="10.53"/><circle class="cls-2" cx="1358.57" cy="1042.56" r="10.53"/><circle class="cls-2" cx="1358.57" cy="1121.57" r="0.54"/><circle class="cls-2" cx="1358.57" cy="1200.57" r="0.54"/><circle class="cls-2" cx="1437.58" cy="15.53" r="5.99"/><circle class="cls-2" cx="1437.58" cy="94.54" r="10.53"/><circle class="cls-2" cx="1437.58" cy="173.54" r="10.53"/><circle class="cls-2" cx="1437.58" cy="252.54" r="10.53"/><circle class="cls-2" cx="1437.58" cy="331.54" r="10.53"/><circle class="cls-2" cx="1437.58" cy="410.55" r="10.53"/><circle class="cls-2" cx="1437.58" cy="489.55"/><circle class="cls-2" cx="1437.58" cy="568.55"/><circle class="cls-2" cx="1437.58" cy="647.55"/><circle class="cls-2" cx="1437.58" cy="726.55"/><circle class="cls-2" cx="1437.58" cy="805.56" r="10.53"/><circle class="cls-2" cx="1437.58" cy="884.56" r="10.53"/><circle class="cls-2" cx="1437.58" cy="963.56" r="10.53"/><circle class="cls-2" cx="1437.58" cy="1042.56" r="10.53"/><circle class="cls-2" cx="1437.58" cy="1121.57" r="0.54"/><circle class="cls-2" cx="1437.58" cy="1200.57" r="0.54"/><circle class="cls-2" cx="1516.58" cy="15.53" r="5.99"/><circle class="cls-2" cx="1516.58" cy="94.54" r="10.53"/><circle class="cls-2" cx="1516.58" cy="173.54" r="10.53"/><circle class="cls-2" cx="1516.58" cy="252.54" r="10.53"/><circle class="cls-2" cx="1516.58" cy="331.54" r="10.53"/><circle class="cls-2" cx="1516.58" cy="410.55"/><circle class="cls-2" cx="1516.58" cy="489.55"/><circle class="cls-2" cx="1516.58" cy="568.55"/><circle class="cls-2" cx="1516.58" cy="647.55"/><circle class="cls-2" cx="1516.58" cy="726.55"/><circle class="cls-2" cx="1516.58" cy="805.56"/><circle class="cls-2" cx="1516.58" cy="884.56" r="10.53"/><circle class="cls-2" cx="1516.58" cy="963.56" r="10.53"/><circle class="cls-2" cx="1516.58" cy="1042.56" r="10.53"/><circle class="cls-2" cx="1516.58" cy="1121.57" r="10.53"/><circle class="cls-2" cx="1516.58" cy="1200.57" r="0.54"/><circle class="cls-2" cx="1595.58" cy="15.53" r="5.99"/><circle class="cls-2" cx="1595.58" cy="94.54" r="10.53"/><circle class="cls-2" cx="1595.58" cy="173.54" r="10.53"/><circle class="cls-2" cx="1595.58" cy="252.54" r="10.53"/><circle class="cls-2" cx="1595.58" cy="331.54" r="10.53"/><circle class="cls-2" cx="1595.58" cy="410.55"/><circle class="cls-2" cx="1595.58" cy="489.55"/><circle class="cls-2" cx="1595.58" cy="568.55"/><circle class="cls-2" cx="1595.58" cy="647.55"/><circle class="cls-2" cx="1595.58" cy="726.55"/><circle class="cls-2" cx="1595.58" cy="805.56"/><circle class="cls-2" cx="1595.58" cy="884.56"/><circle class="cls-2" cx="1595.58" cy="963.56" r="10.53"/><circle class="cls-2" cx="1595.58" cy="1042.56" r="10.53"/><circle class="cls-2" cx="1595.58" cy="1121.57" r="10.53"/><circle class="cls-2" cx="1595.58" cy="1200.57" r="10.53"/><circle class="cls-2" cx="1674.58" cy="15.53" r="10.53"/><circle class="cls-2" cx="1674.58" cy="94.54" r="10.53"/><circle class="cls-2" cx="1674.58" cy="173.54" r="10.53"/><circle class="cls-2" cx="1674.58" cy="252.54" r="10.53"/><circle class="cls-2" cx="1674.58" cy="331.54" r="10.53"/><circle class="cls-2" cx="1674.58" cy="410.55"/><circle class="cls-2" cx="1674.58" cy="489.55"/><circle class="cls-2" cx="1674.58" cy="568.55"/><circle class="cls-2" cx="1674.58" cy="647.55"/><circle class="cls-2" cx="1674.58" cy="726.55"/><circle class="cls-2" cx="1674.58" cy="805.56"/><circle class="cls-2" cx="1674.58" cy="884.56"/><circle class="cls-2" cx="1674.58" cy="963.56"/><circle class="cls-2" cx="1674.58" cy="1042.56" r="10.53"/><circle class="cls-2" cx="1674.58" cy="1121.57" r="10.53"/><circle class="cls-2" cx="1674.58" cy="1200.57" r="10.53"/><circle class="cls-2" cx="1753.59" cy="15.53" r="10.53"/><circle class="cls-2" cx="1753.59" cy="94.54" r="10.53"/><circle class="cls-2" cx="1753.59" cy="173.54" r="10.53"/><circle class="cls-2" cx="1753.59" cy="252.54" r="10.53"/><circle class="cls-2" cx="1753.59" cy="331.54"/><circle class="cls-2" cx="1753.59" cy="410.55"/><circle class="cls-2" cx="1753.59" cy="489.55"/><circle class="cls-2" cx="1753.59" cy="568.55"/><circle class="cls-2" cx="1753.59" cy="647.55"/><circle class="cls-2" cx="1753.59" cy="726.55"/><circle class="cls-2" cx="1753.59" cy="805.56"/><circle class="cls-2" cx="1753.59" cy="884.56"/><circle class="cls-2" cx="1753.59" cy="963.56"/><circle class="cls-2" cx="1753.59" cy="1042.56" r="10.53"/><circle class="cls-2" cx="1753.59" cy="1121.57" r="10.53"/><circle class="cls-2" cx="1753.59" cy="1200.57" r="10.53"/><circle class="cls-2" cx="1832.59" cy="15.53" r="10.53"/><circle class="cls-2" cx="1832.59" cy="94.54" r="10.53"/><circle class="cls-2" cx="1832.59" cy="173.54" r="10.53"/><circle class="cls-2" cx="1832.59" cy="252.54" r="10.53"/><circle class="cls-2" cx="1832.59" cy="331.54"/><circle class="cls-2" cx="1832.59" cy="410.55"/><circle class="cls-2" cx="1832.59" cy="489.55"/><circle class="cls-2" cx="1832.59" cy="568.55"/><circle class="cls-2" cx="1832.59" cy="647.55"/><circle class="cls-2" cx="1832.59" cy="726.55"/><circle class="cls-2" cx="1832.59" cy="805.56"/><circle class="cls-2" cx="1832.59" cy="884.56"/><circle class="cls-2" cx="1832.59" cy="963.56"/><circle class="cls-2" cx="1832.59" cy="1042.56" r="10.53"/><circle class="cls-2" cx="1832.59" cy="1121.57" r="9.29"/><circle class="cls-2" cx="1832.59" cy="1200.57" r="10.53"/><circle class="cls-2" cx="1911.59" cy="15.53" r="8.22"/><circle class="cls-2" cx="1911.59" cy="94.54" r="10.53"/><circle class="cls-2" cx="1911.59" cy="173.54" r="10.53"/><circle class="cls-2" cx="1911.59" cy="252.54" r="10.53"/><circle class="cls-2" cx="1911.59" cy="331.54"/><circle class="cls-2" cx="1911.59" cy="410.55"/><circle class="cls-2" cx="1911.59" cy="489.55"/><circle class="cls-2" cx="1911.59" cy="568.55"/><circle class="cls-2" cx="1911.59" cy="647.55"/><circle class="cls-2" cx="1911.59" cy="726.55"/><circle class="cls-2" cx="1911.59" cy="805.56"/><circle class="cls-2" cx="1911.59" cy="884.56"/><circle class="cls-2" cx="1911.59" cy="963.56"/><circle class="cls-2" cx="1911.59" cy="1042.56"/><circle class="cls-2" cx="1911.59" cy="1121.57"/><circle class="cls-2" cx="1911.59" cy="1200.57"/></g></g></svg>