<svg xmlns="http://www.w3.org/2000/svg" viewBox="0 0 394.22 308.06"><defs><style>.cls-1{fill:#4d85be;}.cls-1,.cls-2{opacity:0.8;}.cls-2{fill:#d34031;}</style></defs><title>red_circles_1</title><g id="Layer_2" data-name="Layer 2"><g id="Cancer"><circle class="cls-1" cx="13.67" cy="6.32" r="6.32"/><circle class="cls-1" cx="13.67" cy="32.59" r="6.32"/><circle class="cls-1" cx="13.67" cy="58.86" r="6.32"/><circle class="cls-1" cx="13.67" cy="85.13" r="6.32"/><circle class="cls-1" cx="13.67" cy="111.4" r="6.32"/><circle class="cls-1" cx="13.67" cy="137.67" r="6.32"/><circle class="cls-1" cx="13.67" cy="163.94" r="5.43"/><circle class="cls-1" cx="13.67" cy="190.21" r="5.43"/><circle class="cls-1" cx="13.67" cy="216.48" r="5.43"/><circle class="cls-1" cx="13.67" cy="242.75" r="6.32"/><circle class="cls-1" cx="13.67" cy="269.02" r="6.32"/><circle class="cls-1" cx="13.67" cy="295.29" r="4.53"/><circle class="cls-1" cx="39.94" cy="6.32" r="6.32"/><circle class="cls-1" cx="39.94" cy="32.59" r="6.32"/><circle class="cls-1" cx="39.94" cy="58.86" r="6.32"/><circle class="cls-1" cx="39.94" cy="85.13" r="6.32"/><circle class="cls-1" cx="39.94" cy="111.4" r="6.32"/><circle class="cls-1" cx="39.94" cy="137.67" r="6.32"/><circle class="cls-1" cx="39.94" cy="163.94" r="5.43"/><circle class="cls-1" cx="39.94" cy="190.21" r="5.43"/><circle class="cls-1" cx="39.94" cy="216.48" r="5.43"/><circle class="cls-1" cx="39.94" cy="242.75" r="6.32"/><circle class="cls-1" cx="39.94" cy="269.02" r="6.32"/><circle class="cls-1" cx="39.94" cy="295.29" r="6.32"/><circle class="cls-1" cx="66.21" cy="6.32" r="6.32"/><circle class="cls-1" cx="66.21" cy="32.59" r="6.32"/><circle class="cls-1" cx="66.21" cy="58.86" r="6.32"/><circle class="cls-1" cx="66.21" cy="85.13" r="6.32"/><circle class="cls-1" cx="66.21" cy="111.4" r="6.32"/><circle class="cls-1" cx="66.21" cy="137.67" r="5.43"/><circle class="cls-1" cx="66.21" cy="163.94" r="5.43"/><circle class="cls-1" cx="66.21" cy="190.21" r="5.43"/><circle class="cls-1" cx="66.21" cy="216.48" r="6.32"/><circle class="cls-1" cx="66.21" cy="242.75" r="6.32"/><circle class="cls-1" cx="66.21" cy="269.02" r="6.32"/><circle class="cls-1" cx="66.21" cy="295.29" r="0.89"/><circle class="cls-1" cx="92.48" cy="6.32" r="6.32"/><circle class="cls-1" cx="92.48" cy="32.59" r="6.32"/><circle class="cls-1" cx="92.48" cy="58.86" r="6.32"/><circle class="cls-1" cx="92.48" cy="85.13" r="6.32"/><circle class="cls-1" cx="92.48" cy="111.4" r="6.32"/><circle class="cls-1" cx="92.48" cy="137.67" r="17.51"/><circle class="cls-1" cx="92.48" cy="163.94" r="5.43"/><circle class="cls-1" cx="92.48" cy="190.21" r="5.43"/><circle class="cls-1" cx="92.48" cy="216.48" r="6.32"/><circle class="cls-1" cx="92.48" cy="242.75" r="6.32"/><circle class="cls-1" cx="92.48" cy="269.02" r="6.32"/><circle class="cls-1" cx="92.48" cy="295.29" r="0.89"/><circle class="cls-1" cx="118.75" cy="6.32" r="6.32"/><circle class="cls-1" cx="118.75" cy="32.59" r="6.32"/><circle class="cls-1" cx="118.75" cy="58.86" r="6.32"/><circle class="cls-1" cx="118.75" cy="85.13" r="6.32"/><circle class="cls-1" cx="118.75" cy="111.4" r="6.32"/><circle class="cls-1" cx="118.75" cy="137.67" r="17.51"/><circle class="cls-1" cx="118.75" cy="163.94" r="17.51"/><circle class="cls-1" cx="118.75" cy="190.21" r="14.29"/><circle class="cls-1" cx="118.75" cy="216.48" r="6.32"/><circle class="cls-1" cx="118.75" cy="242.75" r="6.32"/><circle class="cls-1" cx="118.75" cy="269.02" r="0.89"/><circle class="cls-1" cx="118.75" cy="295.29" r="0.89"/><circle class="cls-1" cx="145.02" cy="6.32" r="6.32"/><circle class="cls-1" cx="145.02" cy="32.59" r="6.32"/><circle class="cls-1" cx="145.02" cy="58.86" r="6.32"/><circle class="cls-1" cx="145.02" cy="85.13" r="6.32"/><circle class="cls-1" cx="145.02" cy="111.4" r="17.51"/><circle class="cls-1" cx="145.02" cy="137.67" r="17.51"/><circle class="cls-1" cx="145.02" cy="163.94" r="17.51"/><circle class="cls-1" cx="145.02" cy="190.21" r="6.32"/><circle class="cls-1" cx="145.02" cy="216.48" r="6.32"/><circle class="cls-1" cx="145.02" cy="242.75" r="6.32"/><circle class="cls-1" cx="145.02" cy="269.02" r="0.89"/><circle class="cls-1" cx="145.02" cy="295.29" r="0.89"/><circle class="cls-1" cx="171.29" cy="6.32" r="5.43"/><circle class="cls-1" cx="171.29" cy="32.59" r="6.32"/><circle class="cls-1" cx="171.29" cy="58.86" r="6.32"/><circle class="cls-1" cx="171.29" cy="85.13" r="6.32"/><circle class="cls-1" cx="171.29" cy="111.4" r="17.51"/><circle class="cls-1" cx="171.29" cy="137.67" r="17.51"/><circle class="cls-1" cx="171.29" cy="163.94" r="17.51"/><circle class="cls-1" cx="171.29" cy="190.21" r="6.32"/><circle class="cls-1" cx="171.29" cy="216.48" r="6.32"/><circle class="cls-1" cx="171.29" cy="242.75" r="6.32"/><circle class="cls-1" cx="171.29" cy="269.02" r="0.89"/><circle class="cls-1" cx="171.29" cy="295.29" r="0.89"/><circle class="cls-1" cx="197.56" cy="6.32" r="5.43"/><circle class="cls-1" cx="197.56" cy="32.59" r="5.43"/><circle class="cls-1" cx="197.56" cy="58.86" r="6.32"/><circle class="cls-1" cx="197.56" cy="85.13" r="17.51"/><circle class="cls-1" cx="197.56" cy="111.4" r="17.51"/><circle class="cls-1" cx="197.56" cy="137.67" r="17.51"/><circle class="cls-1" cx="197.56" cy="163.94" r="6.25"/><circle class="cls-1" cx="197.56" cy="190.21" r="6.32"/><circle class="cls-1" cx="197.56" cy="216.48" r="6.32"/><circle class="cls-1" cx="197.56" cy="242.75" r="5.43"/><circle class="cls-1" cx="197.56" cy="269.02" r="5.43"/><circle class="cls-1" cx="197.56" cy="295.29" r="5.43"/><circle class="cls-1" cx="223.83" cy="6.32" r="5.43"/><circle class="cls-1" cx="223.83" cy="32.59" r="5.43"/><circle class="cls-1" cx="223.83" cy="58.86" r="5.43"/><circle class="cls-1" cx="223.83" cy="85.13" r="6.32"/><circle class="cls-1" cx="223.83" cy="111.4" r="17.51"/><circle class="cls-1" cx="223.83" cy="137.67" r="17.51"/><circle class="cls-1" cx="223.83" cy="163.94" r="6.32"/><circle class="cls-1" cx="223.83" cy="190.21" r="6.32"/><circle class="cls-1" cx="223.83" cy="216.48" r="6.32"/><circle class="cls-1" cx="223.83" cy="242.75" r="5.43"/><circle class="cls-1" cx="223.83" cy="269.02" r="5.43"/><circle class="cls-1" cx="223.83" cy="295.29" r="5.43"/><circle class="cls-1" cx="250.1" cy="6.32" r="5.43"/><circle class="cls-1" cx="250.1" cy="32.59" r="5.43"/><circle class="cls-1" cx="250.1" cy="58.86" r="6.04"/><circle class="cls-1" cx="250.1" cy="85.13" r="6.32"/><circle class="cls-1" cx="250.1" cy="111.4" r="6.32"/><circle class="cls-1" cx="250.1" cy="137.67" r="9.96"/><circle class="cls-1" cx="250.1" cy="163.94" r="6.32"/><circle class="cls-1" cx="250.1" cy="190.21" r="6.32"/><circle class="cls-1" cx="250.1" cy="216.48" r="5.43"/><circle class="cls-1" cx="250.1" cy="242.75" r="5.43"/><circle class="cls-1" cx="250.1" cy="269.02" r="5.43"/><circle class="cls-1" cx="250.1" cy="295.29" r="12.77"/><circle class="cls-1" cx="276.37" cy="6.32" r="5.43"/><circle class="cls-1" cx="276.37" cy="32.59" r="5.43"/><circle class="cls-1" cx="276.37" cy="58.86" r="6.32"/><circle class="cls-1" cx="276.37" cy="85.13" r="6.32"/><circle class="cls-1" cx="276.37" cy="111.4" r="6.32"/><circle class="cls-1" cx="276.37" cy="137.67" r="6.32"/><circle class="cls-1" cx="276.37" cy="163.94" r="6.32"/><circle class="cls-1" cx="276.37" cy="190.21" r="6.32"/><circle class="cls-1" cx="276.37" cy="216.48" r="5.43"/><circle class="cls-1" cx="276.37" cy="242.75" r="5.43"/><circle class="cls-1" cx="276.37" cy="269.02" r="5.43"/><circle class="cls-1" cx="276.37" cy="295.29" r="12.77"/><circle class="cls-1" cx="302.64" cy="6.32" r="5.43"/><circle class="cls-1" cx="302.64" cy="32.59" r="5.43"/><circle class="cls-1" cx="302.64" cy="58.86" r="7.28"/><circle class="cls-1" cx="302.64" cy="85.13" r="6.32"/><circle class="cls-1" cx="302.64" cy="111.4" r="6.32"/><circle class="cls-1" cx="302.64" cy="137.67" r="6.32"/><circle class="cls-1" cx="302.64" cy="163.94" r="6.32"/><circle class="cls-1" cx="302.64" cy="190.21" r="6.32"/><circle class="cls-1" cx="302.64" cy="216.48" r="5.43"/><circle class="cls-1" cx="302.64" cy="242.75" r="5.43"/><circle class="cls-1" cx="302.64" cy="269.02" r="5.43"/><circle class="cls-1" cx="302.64" cy="295.29" r="12.77"/><circle class="cls-1" cx="328.91" cy="6.32" r="5.43"/><circle class="cls-1" cx="328.91" cy="32.59" r="7.35"/><circle class="cls-1" cx="328.91" cy="58.86" r="7.35"/><circle class="cls-1" cx="328.91" cy="85.13" r="7.35"/><circle class="cls-1" cx="328.91" cy="111.4" r="6.32"/><circle class="cls-1" cx="328.91" cy="137.67" r="6.32"/><circle class="cls-1" cx="328.91" cy="163.94" r="6.32"/><circle class="cls-1" cx="328.91" cy="190.21" r="6.32"/><circle class="cls-1" cx="328.91" cy="216.48" r="6.32"/><circle class="cls-1" cx="328.91" cy="242.75" r="5.43"/><circle class="cls-1" cx="328.91" cy="269.02" r="12.77"/><circle class="cls-1" cx="328.91" cy="295.29" r="12.77"/><circle class="cls-1" cx="355.18" cy="6.32" r="5.43"/><circle class="cls-1" cx="355.18" cy="32.59" r="7.35"/><circle class="cls-1" cx="355.18" cy="58.86" r="7.35"/><circle class="cls-1" cx="355.18" cy="85.13" r="7.35"/><circle class="cls-1" cx="355.18" cy="111.4" r="7.35"/><circle class="cls-1" cx="355.18" cy="137.67" r="6.32"/><circle class="cls-1" cx="355.18" cy="163.94" r="6.32"/><circle class="cls-1" cx="355.18" cy="190.21" r="6.32"/><circle class="cls-1" cx="355.18" cy="216.48" r="6.32"/><circle class="cls-1" cx="355.18" cy="242.75" r="6.32"/><circle class="cls-1" cx="355.18" cy="269.02" r="6.32"/><circle class="cls-1" cx="355.18" cy="295.29" r="12.77"/><circle class="cls-1" cx="381.45" cy="6.32" r="6.32"/><circle class="cls-1" cx="381.45" cy="32.59" r="6.8"/><circle class="cls-1" cx="381.45" cy="58.86" r="7.35"/><circle class="cls-1" cx="381.45" cy="85.13" r="7.35"/><circle class="cls-1" cx="381.45" cy="111.4" r="7.35"/><circle class="cls-1" cx="381.45" cy="137.67" r="5.7"/><circle class="cls-1" cx="381.45" cy="163.94" r="5.49"/><circle class="cls-1" cx="381.45" cy="190.21" r="6.32"/><circle class="cls-1" cx="381.45" cy="216.48" r="6.32"/><circle class="cls-1" cx="381.45" cy="242.75" r="6.32"/><circle class="cls-1" cx="381.45" cy="269.02" r="6.32"/><circle class="cls-1" cx="381.45" cy="295.29" r="12.77"/></g><g id="Income"><circle class="cls-2" cx="13.67" cy="6.32" r="2.61"/><circle class="cls-2" cx="13.67" cy="32.59" r="2.61"/><circle class="cls-2" cx="13.67" cy="58.86" r="3.71"/><circle class="cls-2" cx="13.67" cy="85.13" r="3.71"/><circle class="cls-2" cx="13.67" cy="111.4" r="3.71"/><circle class="cls-2" cx="13.67" cy="137.67" r="3.71"/><circle class="cls-2" cx="13.67" cy="163.94" r="13.67"/><circle class="cls-2" cx="13.67" cy="190.21" r="13.67"/><circle class="cls-2" cx="13.67" cy="216.48" r="13.67"/><circle class="cls-2" cx="13.67" cy="242.75" r="3.71"/><circle class="cls-2" cx="13.67" cy="269.02" r="3.71"/><circle class="cls-2" cx="39.94" cy="6.32" r="2.61"/><circle class="cls-2" cx="39.94" cy="32.59" r="2.61"/><circle class="cls-2" cx="39.94" cy="58.86" r="3.71"/><circle class="cls-2" cx="39.94" cy="85.13" r="3.71"/><circle class="cls-2" cx="39.94" cy="111.4" r="3.71"/><circle class="cls-2" cx="39.94" cy="137.67" r="3.71"/><circle class="cls-2" cx="39.94" cy="163.94" r="13.67"/><circle class="cls-2" cx="39.94" cy="190.21" r="13.67"/><circle class="cls-2" cx="39.94" cy="216.48" r="13.67"/><circle class="cls-2" cx="39.94" cy="242.75" r="3.71"/><circle class="cls-2" cx="39.94" cy="269.02" r="3.71"/><circle class="cls-2" cx="66.21" cy="6.32" r="2.61"/><circle class="cls-2" cx="66.21" cy="32.59" r="2.61"/><circle class="cls-2" cx="66.21" cy="58.86" r="3.71"/><circle class="cls-2" cx="66.21" cy="85.13" r="3.71"/><circle class="cls-2" cx="66.21" cy="111.4" r="3.71"/><circle class="cls-2" cx="66.21" cy="137.67" r="13.67"/><circle class="cls-2" cx="66.21" cy="163.94" r="13.67"/><circle class="cls-2" cx="66.21" cy="190.21" r="13.67"/><circle class="cls-2" cx="66.21" cy="216.48" r="3.71"/><circle class="cls-2" cx="66.21" cy="242.75" r="3.71"/><circle class="cls-2" cx="66.21" cy="269.02" r="3.71"/><circle class="cls-2" cx="92.48" cy="6.32" r="2.61"/><circle class="cls-2" cx="92.48" cy="32.59" r="2.61"/><circle class="cls-2" cx="92.48" cy="58.86" r="3.71"/><circle class="cls-2" cx="92.48" cy="85.13" r="3.71"/><circle class="cls-2" cx="92.48" cy="111.4" r="3.71"/><circle class="cls-2" cx="92.48" cy="137.67" r="3.71"/><circle class="cls-2" cx="92.48" cy="163.94" r="13.67"/><circle class="cls-2" cx="92.48" cy="190.21" r="13.67"/><circle class="cls-2" cx="92.48" cy="216.48" r="3.71"/><circle class="cls-2" cx="92.48" cy="242.75" r="3.71"/><circle class="cls-2" cx="92.48" cy="269.02" r="3.71"/><circle class="cls-2" cx="118.75" cy="6.32" r="1.79"/><circle class="cls-2" cx="118.75" cy="32.59" r="1.79"/><circle class="cls-2" cx="118.75" cy="58.86" r="1.79"/><circle class="cls-2" cx="118.75" cy="85.13" r="3.71"/><circle class="cls-2" cx="118.75" cy="111.4" r="3.71"/><circle class="cls-2" cx="118.75" cy="137.67" r="3.71"/><circle class="cls-2" cx="118.75" cy="163.94" r="3.71"/><circle class="cls-2" cx="118.75" cy="190.21" r="6.39"/><circle class="cls-2" cx="118.75" cy="216.48" r="3.71"/><circle class="cls-2" cx="118.75" cy="242.75" r="3.71"/><circle class="cls-2" cx="118.75" cy="269.02" r="5.43"/><circle class="cls-2" cx="145.02" cy="6.32" r="1.79"/><circle class="cls-2" cx="145.02" cy="32.59" r="1.79"/><circle class="cls-2" cx="145.02" cy="58.86" r="1.79"/><circle class="cls-2" cx="145.02" cy="85.13" r="1.79"/><circle class="cls-2" cx="145.02" cy="111.4" r="3.71"/><circle class="cls-2" cx="145.02" cy="137.67" r="3.71"/><circle class="cls-2" cx="145.02" cy="163.94" r="3.71"/><circle class="cls-2" cx="145.02" cy="190.21" r="1.79"/><circle class="cls-2" cx="145.02" cy="216.48" r="1.79"/><circle class="cls-2" cx="145.02" cy="242.75" r="3.71"/><circle class="cls-2" cx="145.02" cy="269.02" r="5.43"/><circle class="cls-2" cx="171.29" cy="6.32" r="0.89"/><circle class="cls-2" cx="171.29" cy="32.59" r="1.79"/><circle class="cls-2" cx="171.29" cy="58.86" r="1.79"/><circle class="cls-2" cx="171.29" cy="85.13" r="1.79"/><circle class="cls-2" cx="171.29" cy="111.4" r="3.71"/><circle class="cls-2" cx="171.29" cy="137.67" r="3.71"/><circle class="cls-2" cx="171.29" cy="163.94" r="3.71"/><circle class="cls-2" cx="171.29" cy="190.21" r="1.79"/><circle class="cls-2" cx="171.29" cy="216.48" r="1.79"/><circle class="cls-2" cx="171.29" cy="242.75" r="1.79"/><circle class="cls-2" cx="171.29" cy="269.02" r="5.49"/><circle class="cls-2" cx="197.56" cy="6.32" r="0.89"/><circle class="cls-2" cx="197.56" cy="32.59" r="0.89"/><circle class="cls-2" cx="197.56" cy="58.86" r="1.79"/><circle class="cls-2" cx="197.56" cy="85.13" r="3.71"/><circle class="cls-2" cx="197.56" cy="111.4" r="3.71"/><circle class="cls-2" cx="197.56" cy="137.67" r="3.71"/><circle class="cls-2" cx="197.56" cy="163.94" r="1.79"/><circle class="cls-2" cx="197.56" cy="190.21" r="1.79"/><circle class="cls-2" cx="197.56" cy="216.48" r="1.79"/><circle class="cls-2" cx="197.56" cy="242.75" r="1.79"/><circle class="cls-2" cx="197.56" cy="269.02" r="1.79"/><circle class="cls-2" cx="223.83" cy="6.32" r="0.89"/><circle class="cls-2" cx="223.83" cy="32.59" r="0.89"/><circle class="cls-2" cx="223.83" cy="58.86" r="0.89"/><circle class="cls-2" cx="223.83" cy="85.13" r="1.79"/><circle class="cls-2" cx="223.83" cy="111.4" r="3.71"/><circle class="cls-2" cx="223.83" cy="137.67" r="3.71"/><circle class="cls-2" cx="223.83" cy="163.94" r="1.79"/><circle class="cls-2" cx="223.83" cy="190.21" r="1.79"/><circle class="cls-2" cx="223.83" cy="216.48" r="1.79"/><circle class="cls-2" cx="223.83" cy="242.75" r="1.79"/><circle class="cls-2" cx="223.83" cy="269.02" r="1.79"/><circle class="cls-2" cx="250.1" cy="6.32" r="0.89"/><circle class="cls-2" cx="250.1" cy="32.59" r="0.89"/><circle class="cls-2" cx="250.1" cy="58.86" r="1.51"/><circle class="cls-2" cx="250.1" cy="85.13" r="1.79"/><circle class="cls-2" cx="250.1" cy="111.4" r="1.79"/><circle class="cls-2" cx="250.1" cy="137.67" r="2.4"/><circle class="cls-2" cx="250.1" cy="163.94" r="1.79"/><circle class="cls-2" cx="250.1" cy="190.21" r="1.79"/><circle class="cls-2" cx="250.1" cy="216.48" r="1.79"/><circle class="cls-2" cx="250.1" cy="242.75" r="1.79"/><circle class="cls-2" cx="250.1" cy="269.02" r="1.79"/><circle class="cls-2" cx="276.37" cy="6.32" r="1.79"/><circle class="cls-2" cx="276.37" cy="32.59" r="0.89"/><circle class="cls-2" cx="276.37" cy="58.86" r="1.79"/><circle class="cls-2" cx="276.37" cy="85.13" r="1.79"/><circle class="cls-2" cx="276.37" cy="111.4" r="1.79"/><circle class="cls-2" cx="276.37" cy="137.67" r="1.79"/><circle class="cls-2" cx="276.37" cy="163.94" r="1.79"/><circle class="cls-2" cx="276.37" cy="190.21" r="1.79"/><circle class="cls-2" cx="276.37" cy="216.48" r="1.79"/><circle class="cls-2" cx="276.37" cy="242.75" r="1.79"/><circle class="cls-2" cx="276.37" cy="269.02" r="1.79"/><circle class="cls-2" cx="302.64" cy="6.32" r="1.79"/><circle class="cls-2" cx="302.64" cy="32.59" r="1.79"/><circle class="cls-2" cx="302.64" cy="58.86" r="0.89"/><circle class="cls-2" cx="302.64" cy="85.13" r="1.79"/><circle class="cls-2" cx="302.64" cy="111.4" r="1.79"/><circle class="cls-2" cx="302.64" cy="137.67" r="1.79"/><circle class="cls-2" cx="302.64" cy="163.94" r="1.79"/><circle class="cls-2" cx="302.64" cy="190.21" r="0.89"/><circle class="cls-2" cx="302.64" cy="216.48" r="1.79"/><circle class="cls-2" cx="302.64" cy="242.75" r="1.79"/><circle class="cls-2" cx="302.64" cy="269.02" r="1.79"/><circle class="cls-2" cx="328.91" cy="6.32" r="1.79"/><circle class="cls-2" cx="328.91" cy="32.59" r="0.89"/><circle class="cls-2" cx="328.91" cy="58.86" r="0.89"/><circle class="cls-2" cx="328.91" cy="85.13" r="0.89"/><circle class="cls-2" cx="328.91" cy="111.4" r="1.79"/><circle class="cls-2" cx="328.91" cy="137.67" r="1.79"/><circle class="cls-2" cx="328.91" cy="163.94" r="0.89"/><circle class="cls-2" cx="328.91" cy="190.21" r="0.89"/><circle class="cls-2" cx="328.91" cy="216.48" r="0.89"/><circle class="cls-2" cx="328.91" cy="242.75" r="1.79"/><circle class="cls-2" cx="328.91" cy="269.02" r="1.79"/><circle class="cls-2" cx="355.18" cy="6.32" r="1.79"/><circle class="cls-2" cx="355.18" cy="32.59" r="0.89"/><circle class="cls-2" cx="355.18" cy="58.86" r="0.89"/><circle class="cls-2" cx="355.18" cy="85.13" r="0.89"/><circle class="cls-2" cx="355.18" cy="111.4" r="0.89"/><circle class="cls-2" cx="355.18" cy="137.67" r="1.72"/><circle class="cls-2" cx="355.18" cy="163.94" r="0.89"/><circle class="cls-2" cx="355.18" cy="190.21" r="0.89"/><circle class="cls-2" cx="355.18" cy="216.48" r="0.89"/><circle class="cls-2" cx="355.18" cy="242.75" r="0.89"/><circle class="cls-2" cx="355.18" cy="269.02" r="0.89"/><circle class="cls-2" cx="381.45" cy="6.32" r="0.89"/><circle class="cls-2" cx="381.45" cy="32.59" r="0.89"/><circle class="cls-2" cx="381.45" cy="58.86" r="0.89"/><circle class="cls-2" cx="381.45" cy="85.13" r="0.89"/><circle class="cls-2" cx="381.45" cy="111.4" r="0.89"/><circle class="cls-2" cx="381.45" cy="137.67" r="0.89"/><circle class="cls-2" cx="381.45" cy="163.94" r="0.89"/><circle class="cls-2" cx="381.45" cy="190.21" r="0.89"/><circle class="cls-2" cx="381.45" cy="216.48" r="0.89"/><circle class="cls-2" cx="381.45" cy="242.75" r="0.89"/><circle class="cls-2" cx="381.45" cy="269.02" r="0.89"/></g></g></svg>