<svg xmlns="http://www.w3.org/2000/svg" viewBox="0 0 917.94 767.92"><defs><style>.cls-1{opacity:0.9;}.cls-2{fill:#ff8a65;}.cls-3{fill:none;}</style></defs><title>red_circles_3</title><g id="Layer_2" data-name="Layer 2"><g id="Dots_3" data-name="Dots 3"><g class="cls-1"><circle class="cls-2" cx="891.98" cy="314.88" r="21.49"/><circle class="cls-2" cx="801.54" cy="314.88" r="21.49"/><circle class="cls-2" cx="711.1" cy="314.88" r="21.49"/><circle class="cls-2" cx="620.66" cy="314.88" r="21.49"/><circle class="cls-2" cx="542.71" cy="12.44" r="12.43" transform="translate(415.76 416.08) rotate(-30)"/><circle class="cls-2" cx="452.27" cy="12.44" r="12.43" transform="translate(403.65 370.86) rotate(-30)"/><circle class="cls-2" cx="361.83" cy="12.44" r="12.43" transform="translate(391.53 325.64) rotate(-30)"/><circle class="cls-2" cx="271.39" cy="12.44" r="12.43" transform="translate(379.42 280.42) rotate(-30)"/><circle class="cls-2" cx="891.98" cy="233.94" r="16.49"/><circle class="cls-2" cx="801.54" cy="233.94" r="16.49"/><circle class="cls-2" cx="711.1" cy="233.94" r="16.49"/><circle class="cls-2" cx="620.66" cy="233.94" r="16.49"/><circle class="cls-2" cx="891.98" cy="412.65" r="25.96"/><circle class="cls-2" cx="801.54" cy="412.65" r="25.96"/><circle class="cls-2" cx="711.1" cy="412.65" r="25.96"/><circle class="cls-2" cx="620.66" cy="412.65" r="25.96"/><circle class="cls-2" cx="521.09" cy="317.77" r="21.49"/><circle class="cls-2" cx="521.09" cy="408.21" r="21.49"/><circle class="cls-2" cx="12.44" cy="174.72" r="12.43" transform="translate(263.58 172.68) rotate(-30)"/><circle class="cls-2" cx="12.44" cy="90.89" r="12.43" transform="translate(305.5 161.45) rotate(-30)"/><circle class="cls-2" cx="12.44" cy="265.16" r="12.43" transform="translate(218.36 184.8) rotate(-30)"/><circle class="cls-2" cx="440.16" cy="317.77" r="16.49"/><circle class="cls-2" cx="440.16" cy="408.21" r="16.49"/><circle class="cls-2" cx="172.32" cy="12.44" r="12.43" transform="translate(366.14 230.88) rotate(-30)"/><circle class="cls-2" cx="90.89" cy="12.44" r="12.43" transform="translate(355.23 190.16) rotate(-30)"/><circle class="cls-2" cx="521.6" cy="233.94" r="16.49"/><circle class="cls-2" cx="440.16" cy="233.94" r="16.49"/><circle class="cls-2" cx="891.98" cy="596.1" r="21.49"/><circle class="cls-2" cx="801.54" cy="596.1" r="21.49"/><circle class="cls-2" cx="711.1" cy="596.1" r="21.49"/><circle class="cls-2" cx="620.66" cy="596.1" r="21.49"/><circle class="cls-2" cx="542.71" cy="612.43" r="12.43" transform="translate(90.25 919.27) rotate(-60)"/><circle class="cls-2" cx="452.27" cy="612.43" r="12.43" transform="translate(45.03 840.95) rotate(-60)"/><circle class="cls-2" cx="361.83" cy="612.43" r="12.43" transform="translate(-0.19 762.62) rotate(-60)"/><circle class="cls-2" cx="271.39" cy="612.43" r="12.43" transform="translate(-45.41 684.3) rotate(-60)"/><circle class="cls-2" cx="891.98" cy="677.03" r="16.49"/><circle class="cls-2" cx="801.54" cy="677.03" r="16.49"/><circle class="cls-2" cx="711.1" cy="677.03" r="16.49"/><circle class="cls-2" cx="620.66" cy="677.03" r="16.49"/><circle class="cls-2" cx="891.98" cy="498.32" r="25.96"/><circle class="cls-2" cx="801.54" cy="498.32" r="25.96"/><circle class="cls-2" cx="711.1" cy="498.32" r="25.96"/><circle class="cls-2" cx="620.66" cy="498.32" r="25.96"/><circle class="cls-2" cx="521.09" cy="593.2" r="21.49"/><circle class="cls-2" cx="521.09" cy="502.76" r="21.49"/><circle class="cls-2" cx="12.44" cy="450.14" r="12.43" transform="translate(-34.34 378.9) rotate(-60)"/><circle class="cls-2" cx="12.44" cy="533.98" r="12.43" transform="matrix(0.5, -0.87, 0.87, 0.5, -106.95, 420.81)"/><circle class="cls-2" cx="12.44" cy="359.7" r="12.43" transform="translate(43.98 333.68) rotate(-60)"/><circle class="cls-2" cx="440.16" cy="593.2" r="16.49"/><circle class="cls-2" cx="440.16" cy="502.76" r="16.49"/><circle class="cls-2" cx="172.32" cy="612.43" r="12.43" transform="translate(-94.94 598.51) rotate(-60)"/><circle class="cls-2" cx="90.89" cy="612.43" r="12.43" transform="translate(-135.66 527.98) rotate(-60)"/><circle class="cls-2" cx="521.6" cy="677.03" r="16.49"/><circle class="cls-2" cx="440.16" cy="677.03" r="16.49"/></g><rect class="cls-3" width="85" height="70.89"/></g></g></svg>