<svg xmlns="http://www.w3.org/2000/svg" viewBox="0 0 1723.49 1409.87"><defs><style>.cls-1{fill:#f22e0c;}.cls-1,.cls-2,.cls-3{opacity:0.9;}.cls-2{fill:#f73c29;}.cls-3{fill:none;}</style></defs><title>red_circles_7</title><g id="Layer_2" data-name="Layer 2"><g id="Red_dots" data-name="Red dots"><circle class="cls-1" cx="555" cy="447.93" r="20"/><circle class="cls-2" cx="655" cy="447.93" r="25"/><circle class="cls-2" cx="755" cy="447.93" r="30"/><circle class="cls-2" cx="855" cy="447.93" r="35"/><circle class="cls-2" cx="955" cy="447.93" r="35"/><circle class="cls-2" cx="1055" cy="447.93" r="30"/><circle class="cls-2" cx="1155" cy="447.93" r="25"/><circle class="cls-2" cx="1255" cy="447.93" r="25"/><circle class="cls-1" cx="555" cy="547.93" r="20"/><circle class="cls-2" cx="655" cy="547.93" r="25"/><circle class="cls-2" cx="755" cy="547.93" r="30"/><circle class="cls-2" cx="855" cy="547.93" r="35"/><circle class="cls-2" cx="955" cy="547.93" r="35"/><circle class="cls-2" cx="1055" cy="547.93" r="30"/><circle class="cls-2" cx="1155" cy="547.93" r="25"/><circle class="cls-2" cx="1255" cy="547.93" r="25"/><circle class="cls-1" cx="555" cy="647.93" r="20"/><circle class="cls-2" cx="655" cy="647.93" r="25"/><circle class="cls-2" cx="755" cy="647.93" r="30"/><circle class="cls-2" cx="855" cy="647.93" r="35"/><circle class="cls-2" cx="955" cy="647.93" r="35"/><circle class="cls-2" cx="1055" cy="647.93" r="30"/><circle class="cls-2" cx="1155" cy="647.93" r="30"/><circle class="cls-2" cx="1255" cy="647.93" r="30"/><circle class="cls-1" cx="555" cy="747.93" r="20"/><circle class="cls-2" cx="655" cy="747.93" r="25"/><circle class="cls-2" cx="755" cy="747.93" r="30"/><circle class="cls-2" cx="855" cy="747.93" r="35"/><circle class="cls-2" cx="955" cy="747.93" r="35"/><circle class="cls-2" cx="1055" cy="747.93" r="35"/><circle class="cls-2" cx="1155" cy="747.93" r="35"/><circle class="cls-2" cx="1255" cy="747.93" r="35"/><circle class="cls-1" cx="555" cy="847.93" r="25"/><circle class="cls-2" cx="655" cy="847.93" r="25"/><circle class="cls-2" cx="755" cy="847.93" r="30"/><circle class="cls-2" cx="855" cy="847.93" r="35"/><circle class="cls-2" cx="955" cy="847.93" r="40"/><circle class="cls-2" cx="1055" cy="847.93" r="40"/><circle class="cls-2" cx="1155" cy="847.93" r="40"/><circle class="cls-2" cx="1255" cy="847.93" r="40"/><circle class="cls-1" cx="555" cy="947.93" r="25"/><circle class="cls-2" cx="655" cy="947.93" r="25"/><circle class="cls-2" cx="755" cy="947.93" r="30"/><circle class="cls-2" cx="855" cy="947.93" r="35"/><circle class="cls-2" cx="955" cy="947.93" r="40"/><circle class="cls-2" cx="1055" cy="947.93" r="40"/><circle class="cls-2" cx="1155" cy="947.93" r="40"/><circle class="cls-2" cx="1255" cy="947.93" r="40"/><circle class="cls-1" cx="555" cy="1047.93" r="25"/><circle class="cls-2" cx="655" cy="1047.93" r="25"/><circle class="cls-2" cx="755" cy="1047.93" r="30"/><circle class="cls-2" cx="855" cy="1047.93" r="35"/><circle class="cls-2" cx="955" cy="1047.93" r="40"/><circle class="cls-2" cx="1055" cy="1047.93" r="40"/><circle class="cls-2" cx="1155" cy="1047.93" r="40"/><circle class="cls-2" cx="1255" cy="1047.93" r="40"/><circle class="cls-1" cx="555" cy="1147.93" r="25"/><circle class="cls-2" cx="655" cy="1147.93" r="25"/><circle class="cls-2" cx="755" cy="1147.93" r="30"/><circle class="cls-2" cx="855" cy="1147.93" r="35"/><circle class="cls-2" cx="955" cy="1147.93" r="40"/><circle class="cls-2" cx="1055" cy="1147.93" r="40"/><circle class="cls-2" cx="1155" cy="1147.93" r="40"/><circle class="cls-2" cx="1255" cy="1147.93" r="40"/><circle class="cls-2" cx="1355" cy="447.93" r="20"/><circle class="cls-2" cx="1455" cy="447.93" r="20"/><circle class="cls-2" cx="1355" cy="547.93" r="25"/><circle class="cls-2" cx="1455" cy="547.93" r="25"/><circle class="cls-2" cx="1355" cy="647.93" r="30"/><circle class="cls-2" cx="1455" cy="647.93" r="30"/><circle class="cls-2" cx="1355" cy="747.93" r="35"/><circle class="cls-2" cx="1455" cy="747.93" r="35"/><circle class="cls-2" cx="1355" cy="847.93" r="40"/><circle class="cls-2" cx="1455" cy="847.93" r="40"/><circle class="cls-2" cx="1355" cy="947.93" r="40"/><circle class="cls-2" cx="1455" cy="947.93" r="40"/><circle class="cls-2" cx="1355" cy="1047.93" r="40"/><circle class="cls-2" cx="1455" cy="1047.93" r="40"/><circle class="cls-2" cx="1355" cy="1147.93" r="40"/><circle class="cls-2" cx="1455" cy="1147.93" r="40"/><circle class="cls-2" cx="1555" cy="447.93" r="20"/><circle class="cls-2" cx="1655" cy="447.93" r="20"/><circle class="cls-1" cx="555" cy="352.93" r="20"/><circle class="cls-2" cx="655" cy="352.93" r="25"/><circle class="cls-2" cx="755" cy="352.93" r="30"/><circle class="cls-2" cx="855" cy="352.93" r="35"/><circle class="cls-2" cx="955" cy="352.93" r="35"/><circle class="cls-2" cx="1055" cy="352.93" r="30"/><circle class="cls-2" cx="1155" cy="352.93" r="25"/><circle class="cls-2" cx="1255" cy="352.93" r="25"/><circle class="cls-2" cx="1355" cy="352.93" r="20"/><circle class="cls-2" cx="1455" cy="352.93" r="15"/><circle class="cls-2" cx="1555" cy="352.93" r="15"/><circle class="cls-2" cx="1655" cy="352.93" r="15"/><circle class="cls-1" cx="555" cy="257.93" r="20"/><circle class="cls-2" cx="655" cy="257.93" r="25"/><circle class="cls-2" cx="755" cy="257.93" r="30"/><circle class="cls-2" cx="855" cy="257.93" r="35"/><circle class="cls-2" cx="955" cy="257.93" r="35"/><circle class="cls-2" cx="1055" cy="257.93" r="30"/><circle class="cls-2" cx="1155" cy="257.93" r="25"/><circle class="cls-2" cx="1255" cy="257.93" r="25"/><circle class="cls-2" cx="1355" cy="257.93" r="15"/><circle class="cls-2" cx="1455" cy="257.93" r="10"/><circle class="cls-2" cx="1555" cy="257.93" r="10"/><circle class="cls-2" cx="1655" cy="257.93" r="10"/><circle class="cls-1" cx="555" cy="162.93" r="20"/><circle class="cls-1" cx="455" cy="352.93" r="15"/><circle class="cls-1" cx="455" cy="447.93" r="15"/><circle class="cls-1" cx="455" cy="257.93" r="15"/><circle class="cls-1" cx="455" cy="162.93" r="15"/><circle class="cls-2" cx="655" cy="162.93" r="25"/><circle class="cls-2" cx="755" cy="162.93" r="30"/><circle class="cls-2" cx="855" cy="162.93" r="35"/><circle class="cls-2" cx="955" cy="162.93" r="35"/><circle class="cls-2" cx="1055" cy="162.93" r="30"/><circle class="cls-2" cx="1155" cy="162.93" r="25"/><circle class="cls-2" cx="1255" cy="162.93" r="25"/><circle class="cls-2" cx="1355" cy="162.93" r="15"/><circle class="cls-2" cx="1455" cy="162.93" r="10"/><circle class="cls-2" cx="1555" cy="162.93" r="10"/><circle class="cls-1" cx="555" cy="62.93" r="20"/><circle class="cls-1" cx="455" cy="62.93" r="15"/><circle class="cls-1" cx="355" cy="162.93" r="10"/><circle class="cls-1" cx="355" cy="62.93" r="10"/><circle class="cls-2" cx="655" cy="62.93" r="25"/><circle class="cls-2" cx="755" cy="62.93" r="30"/><circle class="cls-2" cx="855" cy="62.93" r="35"/><circle class="cls-2" cx="955" cy="62.93" r="35"/><circle class="cls-2" cx="1055" cy="62.93" r="30"/><circle class="cls-2" cx="1155" cy="62.93" r="25"/><circle class="cls-2" cx="1255" cy="62.93" r="25"/><circle class="cls-2" cx="1355" cy="62.93" r="15"/><circle class="cls-2" cx="1455" cy="62.93" r="10"/><circle class="cls-2" cx="1555" cy="62.93" r="10"/><circle class="cls-2" cx="1655" cy="162.93" r="10"/><circle class="cls-2" cx="1555" cy="547.93" r="25"/><circle class="cls-2" cx="1655" cy="547.93" r="25"/><circle class="cls-2" cx="1555" cy="647.93" r="30"/><circle class="cls-2" cx="1655" cy="647.93" r="30"/><circle class="cls-2" cx="1555" cy="747.93" r="35"/><circle class="cls-2" cx="1655" cy="747.93" r="35"/><circle class="cls-2" cx="1555" cy="847.93" r="40"/><circle class="cls-2" cx="1655" cy="847.93" r="40"/><circle class="cls-2" cx="1555" cy="947.93" r="40"/><circle class="cls-2" cx="1655" cy="947.93" r="40"/><circle class="cls-2" cx="1555" cy="1047.93" r="40"/><circle class="cls-2" cx="1655" cy="1047.93" r="40"/><circle class="cls-2" cx="1555" cy="1147.93" r="40"/><circle class="cls-2" cx="1655" cy="1147.93" r="40"/><rect class="cls-3" width="1723.49" height="1409.87"/></g></g></svg>