<svg xmlns="http://www.w3.org/2000/svg" viewBox="0 0 993.41 805.54"><defs><style>.cls-1{opacity:0.9;}.cls-2{fill:#eb5454;}.cls-3{fill:none;}</style></defs><title>red_circles_2</title><g id="Layer_2" data-name="Layer 2"><g id="Dots_3" data-name="Dots 3"><g class="cls-1"><circle class="cls-2" cx="959.95" cy="221.5" r="27.71"/><circle class="cls-2" cx="843.36" cy="221.5" r="27.71"/><circle class="cls-2" cx="726.77" cy="221.5" r="27.71"/><circle class="cls-2" cx="610.18" cy="221.5" r="27.71"/><circle class="cls-2" cx="699.63" cy="16.03" r="16.03" transform="matrix(0.87, -0.5, 0.5, 0.87, 346.04, 351.96)"/><circle class="cls-2" cx="583.04" cy="16.03" r="16.03" transform="translate(330.42 293.67) rotate(-30)"/><circle class="cls-2" cx="466.45" cy="16.03" r="16.03" transform="matrix(0.87, -0.5, 0.5, 0.87, 314.8, 235.37)"/><circle class="cls-2" cx="349.86" cy="16.03" r="16.03" transform="translate(299.18 177.08) rotate(-30)"/><circle class="cls-2" cx="959.95" cy="117.16" r="21.26"/><circle class="cls-2" cx="843.36" cy="117.16" r="21.26"/><circle class="cls-2" cx="726.77" cy="117.16" r="21.26"/><circle class="cls-2" cx="610.18" cy="117.16" r="21.26"/><circle class="cls-2" cx="959.95" cy="347.55" r="33.47"/><circle class="cls-2" cx="843.36" cy="347.55" r="33.47"/><circle class="cls-2" cx="726.77" cy="347.55" r="33.47"/><circle class="cls-2" cx="610.18" cy="347.55" r="33.47"/><circle class="cls-2" cx="481.82" cy="225.24" r="27.71"/><circle class="cls-2" cx="481.82" cy="341.83" r="27.71"/><circle class="cls-2" cx="16.03" cy="225.24" r="16.03" transform="matrix(0.87, -0.5, 0.5, 0.87, 149.85, 38.19)"/><circle class="cls-2" cx="16.03" cy="117.16" r="16.03" transform="translate(203.89 23.71) rotate(-30)"/><circle class="cls-2" cx="16.03" cy="341.83" r="16.03" transform="translate(91.55 53.81) rotate(-30)"/><circle class="cls-2" cx="377.48" cy="225.24" r="21.26"/><circle class="cls-2" cx="377.48" cy="341.83" r="21.26"/><circle class="cls-2" cx="222.15" cy="16.03" r="16.03" transform="translate(282.07 113.22) rotate(-30)"/><circle class="cls-2" cx="117.16" cy="16.03" r="16.03" transform="translate(268 60.73) rotate(-30)"/><circle class="cls-2" cx="482.47" cy="117.16" r="21.26"/><circle class="cls-2" cx="377.48" cy="117.16" r="21.26"/><circle class="cls-2" cx="959.95" cy="584.04" r="27.71"/><circle class="cls-2" cx="843.36" cy="584.04" r="27.71"/><circle class="cls-2" cx="726.77" cy="584.04" r="27.71"/><circle class="cls-2" cx="610.18" cy="584.04" r="27.71"/><circle class="cls-2" cx="699.63" cy="789.51" r="16.03" transform="translate(-73.6 1000.65) rotate(-60)"/><circle class="cls-2" cx="583.04" cy="789.51" r="16.03" transform="matrix(0.5, -0.87, 0.87, 0.5, -131.89, 899.68)"/><circle class="cls-2" cx="466.45" cy="789.51" r="16.03" transform="translate(-190.19 798.71) rotate(-60)"/><circle class="cls-2" cx="349.86" cy="789.51" r="16.03" transform="matrix(0.5, -0.87, 0.87, 0.5, -248.48, 697.74)"/><circle class="cls-2" cx="959.95" cy="688.37" r="21.26"/><circle class="cls-2" cx="843.36" cy="688.37" r="21.26"/><circle class="cls-2" cx="726.77" cy="688.37" r="21.26"/><circle class="cls-2" cx="610.18" cy="688.37" r="21.26"/><circle class="cls-2" cx="959.95" cy="457.99" r="33.47"/><circle class="cls-2" cx="843.36" cy="457.99" r="33.47"/><circle class="cls-2" cx="726.77" cy="457.99" r="33.47"/><circle class="cls-2" cx="610.18" cy="457.99" r="33.47"/><circle class="cls-2" cx="481.82" cy="580.3" r="27.71"/><circle class="cls-2" cx="481.82" cy="463.71" r="27.71"/><circle class="cls-2" cx="16.03" cy="580.3" r="16.03" transform="translate(-234.22 304.03) rotate(-60)"/><circle class="cls-2" cx="16.03" cy="688.37" r="16.03" transform="translate(-327.81 358.07) rotate(-60)"/><circle class="cls-2" cx="16.03" cy="463.71" r="16.03" transform="translate(-133.25 245.74) rotate(-60)"/><circle class="cls-2" cx="377.48" cy="580.3" r="21.26"/><circle class="cls-2" cx="377.48" cy="463.71" r="21.26"/><circle class="cls-2" cx="222.15" cy="789.51" r="16.03" transform="matrix(0.5, -0.87, 0.87, 0.5, -312.34, 587.14)"/><circle class="cls-2" cx="117.16" cy="789.51" r="16.03" transform="translate(-364.83 496.22) rotate(-60)"/><circle class="cls-2" cx="482.47" cy="688.37" r="21.26"/><circle class="cls-2" cx="377.48" cy="688.37" r="21.26"/></g><rect class="cls-3" y="33.82" width="85" height="70.89"/></g></g></svg>