<?xml version="1.0" standalone="no"?>
<!DOCTYPE svg PUBLIC "-//W3C//DTD SVG 20010904//EN"
 "http://www.w3.org/TR/2001/REC-SVG-20010904/DTD/svg10.dtd">
<svg version="1.0" xmlns="http://www.w3.org/2000/svg"
 width="1500.000000pt" height="1500.000000pt" viewBox="0 0 1500.000000 1500.000000"
 preserveAspectRatio="xMidYMid meet">
<metadata>
Created by potrace 1.11, written by Peter Selinger 2001-2013
</metadata>
<g transform="translate(0.000000,1500.000000) scale(0.100000,-0.100000)"
fill="#000000" stroke="none">
<path d="M7042 14985 c-101 -7 -228 -18 -283 -24 -55 -6 -107 -11 -116 -11
-10 0 7 -15 37 -32 176 -106 198 -341 45 -476 -142 -125 -369 -80 -456 90 -13
26 -24 69 -27 109 -6 88 16 154 75 219 25 27 41 50 36 50 -38 0 -521 -94 -530
-104 -2 -2 3 -25 11 -50 20 -59 20 -118 0 -186 -21 -71 -107 -159 -178 -183
-66 -23 -144 -21 -210 4 -95 35 -186 158 -186 250 0 16 -23 10 -177 -42 -237
-81 -239 -82 -294 -138 -62 -63 -133 -91 -229 -91 -63 0 -80 -5 -202 -60 -139
-64 -419 -207 -550 -282 l-76 -44 54 -48 c73 -64 96 -112 102 -207 4 -66 1
-84 -20 -130 -51 -111 -132 -168 -248 -177 -87 -6 -153 16 -215 70 -52 46 -72
80 -95 161 l-16 57 -130 -93 c-565 -403 -1042 -850 -1472 -1376 -56 -69 -102
-127 -102 -131 0 -4 13 -5 29 -2 52 7 137 -17 193 -56 41 -29 61 -53 87 -104
29 -57 34 -76 33 -136 -1 -164 -114 -281 -278 -290 -62 -4 -81 0 -133 23 -35
16 -76 45 -97 68 -37 41 -73 109 -74 140 0 9 -4 17 -8 17 -5 0 -54 -69 -109
-152 -165 -253 -318 -518 -451 -783 -107 -216 -299 -661 -288 -672 2 -2 24 6
48 18 59 31 173 32 239 2 146 -66 214 -244 149 -391 -65 -149 -250 -215 -396
-142 -70 35 -104 67 -137 134 l-25 50 -36 -115 c-260 -834 -379 -1813 -321
-2655 44 -645 148 -1224 315 -1764 l33 -105 16 51 c68 205 299 273 476 139 21
-16 48 -54 67 -93 28 -55 33 -78 32 -132 -1 -115 -66 -217 -169 -266 -90 -43
-223 -29 -302 32 -18 14 -33 23 -33 20 0 -10 80 -216 126 -327 l45 -107 57 -6
c163 -18 277 -141 276 -296 0 -70 -27 -146 -66 -187 l-20 -22 52 -98 c104
-194 403 -673 420 -673 3 0 6 23 7 51 8 151 138 272 293 272 265 0 395 -325
201 -506 -66 -61 -120 -80 -218 -75 -43 3 -87 8 -97 13 -40 18 253 -340 483
-590 344 -372 773 -746 1196 -1041 l100 -70 0 75 c0 59 6 87 24 125 94 192
350 228 490 70 69 -79 90 -195 54 -300 -22 -66 -101 -144 -171 -171 l-53 -19
137 -78 c1006 -574 2074 -890 3279 -971 484 -33 1065 -5 1586 75 143 22 577
107 591 116 5 4 2 14 -6 23 -34 37 -59 115 -59 181 0 166 127 292 294 291 165
0 290 -123 291 -287 0 -35 2 -64 3 -64 6 0 331 113 362 125 22 9 40 29 57 62
31 62 88 116 149 143 60 26 165 29 225 5 l42 -17 223 110 c220 109 528 280
526 291 0 3 -28 20 -62 36 -49 24 -70 42 -100 85 -104 152 -56 347 105 429 57
29 76 34 136 33 163 -1 278 -111 291 -279 l6 -72 150 109 c347 253 626 490
925 790 246 245 484 516 655 744 28 37 28 38 7 32 -35 -11 -126 -9 -170 5 -61
18 -131 77 -166 139 -28 50 -31 63 -31 140 0 69 5 93 23 127 59 111 148 167
266 166 148 -1 255 -89 289 -237 l13 -59 90 139 c105 162 228 366 307 512 l55
102 -34 66 c-28 54 -34 76 -34 128 0 34 7 83 16 109 32 95 137 177 246 192
l47 7 45 107 c42 100 116 288 116 296 0 2 -24 -7 -52 -20 -59 -28 -153 -33
-218 -14 -58 18 -130 78 -163 137 -82 146 -23 334 126 406 103 49 208 41 303
-25 41 -28 104 -110 104 -136 0 -98 125 342 200 702 135 651 187 1358 145
1976 -49 727 -171 1349 -391 1991 -61 177 -163 440 -218 561 -33 72 -36 75
-74 82 -62 10 -142 63 -179 118 -58 87 -68 179 -32 283 l22 62 -63 113 c-126
226 -354 589 -370 589 -5 0 -14 -16 -20 -35 -19 -59 -103 -141 -168 -165 -73
-28 -176 -24 -240 9 -172 88 -215 316 -87 459 49 55 114 88 195 99 l51 8 -102
125 c-152 186 -285 334 -473 527 -169 174 -234 231 -186 163 75 -106 62 -274
-30 -369 -57 -58 -112 -83 -195 -89 -100 -6 -168 21 -234 94 -139 152 -91 381
98 468 34 15 66 21 121 21 65 -1 83 -5 135 -32 l60 -32 -65 60 c-103 97 -363
312 -510 423 -140 106 -294 216 -303 216 -2 0 -8 -17 -12 -37 -23 -126 -133
-221 -266 -231 -86 -6 -152 16 -214 70 -69 61 -99 126 -99 218 -1 95 26 157
95 221 l49 47 -93 52 c-146 83 -400 214 -545 280 -109 49 -143 60 -186 60 -85
0 -148 24 -209 80 -59 54 -84 65 -335 151 -99 33 -144 45 -146 36 -37 -136
-69 -183 -157 -232 -48 -27 -63 -30 -139 -30 -73 0 -92 4 -136 27 -125 66
-183 196 -148 334 9 36 14 67 13 69 -5 4 -398 82 -471 93 l-57 9 35 -40 c56
-67 77 -120 78 -201 0 -116 -56 -210 -158 -264 -44 -23 -63 -27 -136 -27 -77
0 -90 3 -140 31 -61 34 -121 105 -139 164 -39 132 12 273 125 344 l54 33 -188
17 c-443 39 -801 46 -1160 21z m602 -59 c103 -50 160 -143 160 -261 0 -92 -29
-160 -96 -220 -64 -57 -129 -79 -218 -73 -116 9 -197 66 -248 177 -21 46 -24
64 -20 130 6 103 38 162 120 225 82 62 202 71 302 22z m-2936 -950 c62 -31
126 -103 146 -163 48 -139 -16 -298 -146 -364 -60 -31 -160 -37 -229 -14 -77
26 -159 109 -183 189 -50 160 46 336 207 377 54 14 152 2 205 -25z m974 3
c132 -66 195 -211 154 -354 -23 -75 -106 -163 -180 -188 -145 -49 -301 15
-368 152 -33 66 -32 187 1 251 42 81 112 139 196 161 49 13 150 2 197 -22z
m983 -4 c104 -50 160 -143 160 -265 0 -62 -5 -84 -27 -126 -34 -66 -106 -128
-170 -150 -66 -22 -167 -15 -226 15 -130 66 -194 225 -146 364 28 84 118 164
209 188 53 14 143 3 200 -26z m979 1 c103 -50 160 -143 160 -261 0 -92 -29
-160 -96 -220 -64 -57 -129 -79 -218 -73 -116 9 -197 66 -248 177 -21 46 -24
64 -20 130 6 103 38 162 120 225 82 62 202 71 302 22z m984 -3 c66 -33 123
-102 144 -172 43 -147 -24 -293 -163 -356 -54 -24 -71 -27 -134 -23 -91 6
-164 44 -216 112 -44 58 -59 104 -59 185 0 219 230 356 428 254z m929 22 c119
-35 204 -149 204 -273 1 -121 -50 -211 -152 -267 -48 -27 -63 -30 -139 -30
-73 0 -92 4 -136 27 -123 65 -183 197 -150 329 44 171 206 264 373 214z m1016
-14 c150 -73 211 -250 136 -399 -49 -99 -128 -152 -240 -160 -83 -6 -150 15
-208 64 -177 152 -127 428 92 506 66 24 158 19 220 -11z m-7830 -950 c103 -50
167 -149 167 -260 0 -83 -14 -128 -59 -187 -101 -132 -300 -153 -425 -43 -50
45 -92 122 -101 189 -13 91 37 210 112 267 84 65 214 79 306 34z m981 -1 c108
-51 173 -165 164 -290 -11 -151 -117 -257 -269 -268 -88 -6 -154 16 -217 73
-108 97 -130 256 -53 377 78 123 242 170 375 108z m984 -4 c135 -69 195 -226
142 -370 -40 -105 -135 -175 -251 -184 -98 -7 -159 17 -231 88 -61 61 -88 124
-88 204 0 215 236 359 428 262z m974 3 c59 -29 105 -74 136 -134 22 -42 27
-63 27 -130 0 -95 -22 -149 -87 -214 -140 -138 -381 -93 -470 88 -33 66 -32
187 1 251 42 81 112 139 196 161 49 13 150 2 197 -22z m983 -4 c129 -63 193
-213 149 -351 -24 -80 -106 -163 -183 -189 -107 -35 -228 -7 -306 70 -76 77
-105 199 -71 303 29 88 118 169 211 193 53 14 143 3 200 -26z m980 0 c102 -50
159 -143 159 -260 0 -93 -30 -160 -96 -220 -64 -57 -129 -79 -218 -73 -116 9
-197 66 -248 177 -21 46 -24 64 -20 130 6 92 28 140 92 199 93 86 216 104 331
47z m929 21 c103 -31 174 -107 202 -217 28 -108 -9 -217 -97 -293 -138 -118
-367 -71 -449 91 -28 56 -39 171 -21 226 51 153 213 239 365 193z m982 -1
c159 -49 244 -220 189 -384 -35 -107 -137 -181 -260 -189 -63 -4 -80 -1 -134
23 -108 49 -173 146 -174 259 -2 208 184 350 379 291z m1017 -14 c150 -73 211
-250 136 -399 -49 -99 -128 -152 -240 -160 -88 -6 -154 16 -217 73 -107 96
-129 256 -53 377 78 122 246 171 374 109z m985 -5 c108 -55 168 -163 160 -286
-11 -151 -117 -257 -269 -268 -86 -6 -152 16 -214 70 -116 102 -136 271 -46
395 83 115 242 153 369 89z m-8813 -946 c58 -28 113 -85 142 -148 33 -71 30
-182 -7 -255 -84 -166 -313 -210 -454 -86 -173 152 -114 433 106 505 56 18
158 11 213 -16z m977 -1 c151 -75 211 -250 137 -397 -49 -99 -128 -152 -240
-160 -88 -6 -154 16 -217 73 -109 98 -130 255 -52 378 77 122 245 170 372 106z
m986 -3 c107 -54 168 -163 160 -285 -11 -152 -120 -259 -273 -269 -100 -6
-168 21 -234 94 -76 83 -98 174 -66 281 52 175 251 261 413 179z m968 5 c62
-28 108 -72 142 -136 36 -69 38 -187 4 -256 -27 -56 -83 -113 -137 -142 -58
-31 -202 -31 -260 0 -108 57 -171 167 -162 283 14 209 222 335 413 251z m989
-6 c129 -63 193 -213 149 -351 -14 -46 -31 -72 -74 -115 -70 -70 -131 -94
-230 -87 -110 8 -192 64 -245 168 -26 51 -31 156 -11 218 29 88 118 169 211
193 53 14 143 3 200 -26z m980 0 c102 -49 159 -142 159 -260 0 -92 -29 -160
-96 -220 -64 -57 -129 -79 -218 -73 -116 9 -197 66 -248 177 -21 46 -24 64
-20 130 6 92 28 140 92 199 93 86 216 104 331 47z m968 7 c147 -65 214 -250
144 -394 -74 -151 -247 -211 -395 -137 -110 54 -162 142 -162 268 0 129 86
243 208 278 61 17 147 10 205 -15z m982 -2 c101 -49 166 -150 166 -260 1 -125
-55 -216 -166 -271 -58 -28 -71 -31 -137 -27 -220 11 -346 225 -249 422 71
145 243 205 386 136z m968 5 c51 -21 124 -89 149 -140 14 -26 23 -66 26 -116
4 -66 1 -84 -20 -130 -51 -111 -132 -168 -248 -177 -89 -6 -154 16 -218 73
-108 98 -130 260 -50 379 78 119 231 166 361 111z m995 -9 c108 -55 168 -163
160 -286 -11 -151 -117 -257 -269 -268 -86 -6 -152 16 -214 70 -116 102 -136
271 -46 395 83 115 242 153 369 89z m970 4 c179 -77 228 -328 92 -469 -57 -58
-112 -83 -195 -89 -100 -6 -168 21 -234 94 -217 237 41 591 337 464z m-9784
-950 c60 -29 114 -84 143 -148 33 -71 30 -182 -7 -255 -84 -166 -313 -210
-454 -86 -175 154 -111 443 112 506 60 17 149 9 206 -17z m984 -4 c145 -73
204 -250 131 -394 -49 -99 -128 -152 -240 -160 -88 -6 -154 16 -217 73 -109
98 -130 255 -52 378 79 125 246 170 378 103z m970 4 c218 -94 230 -411 21
-525 -40 -21 -70 -29 -123 -33 -101 -6 -168 21 -235 94 -76 83 -98 174 -66
281 51 172 234 255 403 183z m974 3 c62 -28 115 -77 146 -137 36 -70 38 -188
4 -257 -28 -58 -80 -112 -135 -142 -61 -32 -203 -32 -265 1 -176 94 -215 325
-78 470 80 86 218 113 328 65z m993 -8 c128 -62 193 -213 150 -350 -26 -80
-97 -157 -173 -185 -103 -39 -223 -18 -309 54 -78 65 -114 209 -79 314 29 88
118 169 211 193 53 14 143 3 200 -26z m982 0 c100 -49 157 -143 157 -260 1
-221 -225 -363 -422 -264 -70 35 -105 71 -140 148 -21 46 -24 64 -20 130 3 50
12 90 25 116 37 71 119 136 198 156 50 13 146 1 202 -26z m921 22 c105 -28
179 -105 208 -218 61 -237 -188 -436 -412 -330 -109 51 -164 143 -164 270 0
135 92 249 225 282 47 11 87 10 143 -4z m1028 -17 c221 -108 221 -427 0 -531
-149 -70 -320 -10 -392 137 -78 159 13 362 185 411 59 17 153 9 207 -17z m976
-1 c105 -52 159 -134 166 -250 4 -66 1 -84 -20 -130 -35 -77 -70 -113 -140
-148 -110 -55 -235 -38 -327 45 -107 96 -129 259 -50 377 81 123 245 170 371
106z m986 -3 c108 -55 168 -163 160 -286 -11 -151 -117 -257 -269 -268 -86 -6
-152 16 -214 70 -116 102 -136 271 -46 395 83 115 242 153 369 89z m970 4
c179 -77 228 -328 92 -469 -66 -68 -111 -86 -215 -86 -103 0 -143 16 -207 81
-155 155 -94 411 115 486 65 23 143 19 215 -12z m987 -5 c59 -28 103 -73 137
-138 32 -60 32 -183 0 -248 -27 -56 -83 -113 -137 -142 -59 -32 -202 -31 -263
1 -96 51 -162 157 -162 261 0 221 227 363 425 266z m-9796 -945 c177 -77 227
-314 97 -467 -15 -17 -54 -46 -88 -62 -108 -54 -233 -38 -323 41 -87 77 -122
193 -91 300 51 176 234 261 405 188z m980 0 c66 -29 134 -103 157 -172 24 -73
15 -169 -22 -237 -33 -63 -70 -96 -143 -129 -46 -21 -64 -24 -130 -20 -94 6
-142 29 -205 98 -71 80 -92 173 -61 277 51 172 235 255 404 183z m986 -5 c59
-28 103 -73 137 -138 31 -58 32 -182 2 -248 -26 -55 -79 -111 -137 -141 -61
-33 -203 -33 -265 0 -106 57 -168 165 -159 282 14 213 231 339 422 245z m982
0 c171 -84 215 -312 87 -454 -63 -70 -111 -93 -205 -99 -66 -4 -84 -1 -130 20
-111 51 -168 132 -177 248 -16 231 216 387 425 285z m980 0 c100 -49 157 -143
157 -260 0 -92 -29 -160 -95 -219 -188 -169 -489 -39 -489 210 0 33 7 81 16
107 28 84 118 164 209 188 50 13 146 1 202 -26z m913 24 c146 -33 250 -192
221 -337 -31 -153 -154 -249 -309 -240 -118 7 -221 81 -256 185 -78 228 113
445 344 392z m1034 -20 c165 -77 222 -298 113 -441 -61 -79 -139 -118 -239
-118 -114 0 -213 62 -264 166 -78 160 13 362 185 411 59 17 148 9 205 -18z
m979 0 c100 -50 157 -134 165 -241 6 -86 -10 -142 -57 -204 -102 -135 -302
-153 -430 -38 -109 98 -129 255 -47 379 80 121 243 167 369 104z m976 1 c66
-29 134 -103 157 -172 24 -73 15 -169 -22 -237 -33 -63 -70 -96 -143 -129 -46
-21 -64 -24 -130 -20 -88 5 -138 27 -192 85 -77 80 -104 185 -75 285 51 176
234 261 405 188z m977 1 c182 -81 231 -328 94 -470 -66 -68 -111 -86 -215 -86
-73 0 -98 4 -130 22 -91 49 -153 140 -162 241 -20 223 207 384 413 293z m989
-6 c59 -28 103 -73 137 -138 32 -60 32 -183 0 -248 -27 -56 -83 -113 -137
-142 -59 -32 -202 -31 -263 1 -106 57 -168 165 -159 282 14 214 230 339 422
245z m-12726 -947 c103 -50 165 -148 165 -263 0 -221 -221 -360 -420 -266
-109 51 -164 143 -164 270 1 211 228 352 419 259z m975 1 c191 -89 228 -349
70 -488 -54 -48 -118 -71 -194 -71 -76 0 -140 23 -194 71 -179 158 -105 449
129 510 46 12 140 2 189 -22z m2935 1 c66 -29 134 -103 157 -172 24 -73 15
-169 -22 -237 -33 -63 -70 -96 -143 -129 -46 -21 -64 -24 -130 -20 -87 5 -137
27 -193 84 -76 76 -104 183 -74 285 51 177 234 262 405 189z m986 -5 c59 -28
103 -73 137 -138 31 -58 32 -182 2 -248 -26 -55 -79 -111 -137 -141 -61 -33
-203 -33 -265 0 -106 57 -168 165 -159 282 14 213 231 339 422 245z m982 -1
c171 -83 215 -311 87 -453 -63 -70 -111 -93 -205 -99 -66 -4 -84 -1 -130 20
-111 51 -168 132 -177 248 -6 87 16 153 70 215 90 102 230 130 355 69z m968 7
c56 -25 122 -91 148 -150 30 -66 29 -169 -2 -239 -29 -65 -104 -134 -168 -156
-192 -66 -393 72 -393 270 0 80 23 143 72 199 87 99 223 129 343 76z m925 18
c145 -33 248 -188 221 -333 -14 -76 -42 -126 -96 -174 -117 -103 -291 -97
-401 12 -60 61 -84 122 -84 215 0 79 24 139 78 194 77 81 176 111 282 86z
m1034 -19 c190 -90 227 -350 70 -489 -54 -48 -118 -71 -194 -71 -76 0 -140 23
-194 71 -179 158 -106 449 129 510 46 12 140 2 189 -21z m973 0 c57 -25 117
-80 146 -135 32 -60 31 -202 -1 -265 -34 -65 -69 -99 -137 -131 -183 -88 -390
27 -420 231 -19 134 79 279 215 317 58 17 136 10 197 -17z m982 0 c66 -29 134
-103 157 -172 24 -73 15 -169 -22 -237 -33 -63 -70 -96 -143 -129 -46 -21 -64
-24 -130 -20 -91 6 -140 28 -199 91 -73 80 -97 179 -68 279 51 176 234 261
405 188z m976 1 c219 -97 234 -410 24 -526 -49 -27 -63 -30 -144 -30 -73 0
-98 4 -130 22 -91 49 -153 140 -162 241 -7 71 8 126 50 188 79 118 232 163
362 105z m-11738 -953 c105 -49 167 -147 167 -263 0 -93 -30 -160 -96 -220
-121 -109 -312 -99 -419 23 -52 60 -73 126 -67 216 5 80 24 124 77 179 88 94
222 119 338 65z m982 -2 c106 -54 164 -150 163 -268 -1 -163 -127 -288 -292
-288 -76 0 -140 23 -194 71 -178 157 -105 448 129 510 50 13 141 1 194 -25z
m968 4 c142 -63 209 -222 156 -376 -22 -66 -101 -145 -167 -167 -187 -64 -372
50 -401 245 -14 92 44 218 122 269 96 63 192 73 290 29z m2950 -6 c214 -104
215 -416 2 -523 -208 -104 -445 54 -427 283 17 211 234 333 425 240z m980 0
c102 -49 157 -143 158 -264 0 -88 -23 -144 -83 -204 -56 -57 -106 -79 -193
-84 -66 -4 -84 -1 -130 20 -73 33 -110 66 -143 129 -57 103 -44 241 30 327 92
108 234 138 361 76z m968 7 c182 -81 228 -329 87 -474 -63 -65 -104 -82 -207
-82 -76 0 -97 4 -138 25 -167 85 -210 313 -85 455 87 99 223 129 343 76z m979
-2 c190 -89 229 -344 75 -483 -119 -107 -294 -103 -405 8 -60 61 -84 122 -84
215 1 210 224 350 414 260z m984 -3 c196 -100 223 -368 49 -500 -72 -55 -187
-72 -280 -40 -25 8 -66 33 -91 55 -179 158 -106 449 129 510 50 13 141 1 193
-25z m969 4 c103 -45 163 -132 171 -246 11 -173 -100 -302 -270 -312 -88 -5
-153 17 -216 73 -143 129 -125 360 36 463 86 56 185 64 279 22z m984 -2 c64
-27 132 -102 155 -170 24 -73 15 -169 -22 -237 -33 -63 -70 -96 -143 -129 -46
-21 -64 -24 -130 -20 -91 6 -140 28 -199 91 -73 80 -97 179 -68 279 51 177
235 261 407 186z m2926 7 c61 -26 120 -81 150 -143 24 -48 28 -69 27 -132 -1
-89 -19 -134 -76 -197 -59 -63 -108 -85 -199 -91 -66 -4 -84 -1 -130 20 -77
35 -113 70 -148 140 -54 108 -38 233 41 323 84 96 219 128 335 80z m-13710
-947 c94 -41 150 -104 178 -202 37 -127 -21 -261 -144 -333 -59 -35 -166 -43
-242 -18 -73 25 -149 101 -174 174 -21 66 -17 179 9 231 39 76 118 138 203
160 45 11 131 5 170 -12z m990 -8 c196 -86 237 -348 77 -489 -54 -48 -118 -71
-194 -71 -76 0 -140 23 -194 71 -125 110 -133 303 -18 422 89 93 214 118 329
67z m982 -1 c140 -62 206 -222 154 -375 -22 -66 -101 -145 -167 -167 -185 -63
-369 48 -401 240 -9 55 16 152 54 207 77 111 231 152 360 95z m982 -1 c62 -26
132 -102 153 -165 26 -77 21 -160 -15 -231 -35 -70 -71 -105 -148 -140 -46
-21 -64 -24 -130 -20 -88 5 -138 27 -192 85 -61 64 -83 117 -83 203 0 90 23
149 81 207 90 90 214 113 334 61z m2946 -4 c102 -49 157 -143 158 -264 0 -88
-23 -144 -83 -204 -56 -57 -106 -79 -193 -84 -66 -4 -84 -1 -130 20 -73 33
-110 66 -143 129 -57 103 -44 241 30 327 92 108 234 138 361 76z m970 4 c183
-86 226 -326 85 -471 -53 -55 -106 -79 -184 -85 -85 -6 -141 10 -204 56 -133
100 -153 301 -42 427 88 100 226 129 345 73z m976 -1 c192 -88 231 -341 76
-481 -119 -107 -294 -103 -405 8 -60 61 -84 122 -84 215 1 212 218 347 413
258z m976 2 c194 -85 234 -348 75 -488 -54 -48 -118 -71 -194 -71 -116 0 -215
62 -266 166 -21 43 -27 70 -27 123 0 216 215 357 412 270z m980 0 c100 -44
162 -133 169 -244 6 -102 -16 -164 -82 -231 -67 -66 -129 -88 -230 -82 -83 6
-134 29 -188 85 -111 115 -111 300 2 413 36 36 92 67 145 81 44 12 132 1 184
-22z m2948 -5 c103 -50 169 -165 160 -281 -16 -213 -234 -338 -425 -242 -65
32 -99 66 -135 133 -17 33 -22 58 -22 126 0 73 4 92 27 136 76 145 247 200
395 128z m960 11 c61 -26 120 -81 150 -143 24 -48 28 -69 27 -132 -1 -89 -19
-134 -76 -197 -59 -63 -108 -85 -199 -91 -66 -4 -84 -1 -130 20 -77 35 -113
70 -148 140 -54 108 -38 233 41 323 84 95 220 128 335 80z m-13706 -949 c112
-47 183 -154 183 -275 0 -111 -62 -213 -159 -263 -57 -30 -167 -36 -236 -13
-73 25 -149 101 -174 174 -21 66 -17 179 9 231 69 136 242 203 377 146z m986
-6 c197 -87 238 -347 77 -489 -54 -48 -118 -71 -194 -71 -76 0 -140 23 -194
71 -125 110 -133 303 -18 422 89 93 214 118 329 67z m982 -1 c56 -24 116 -80
143 -134 30 -57 36 -167 13 -236 -25 -73 -101 -149 -174 -174 -76 -25 -183
-17 -242 18 -138 81 -191 239 -127 378 70 152 235 215 387 148z m982 -1 c62
-26 132 -102 153 -165 48 -140 -14 -299 -141 -363 -70 -36 -181 -40 -251 -10
-58 25 -132 98 -158 156 -25 58 -24 176 3 235 36 81 117 147 208 170 45 12
131 1 186 -23z m974 3 c59 -26 112 -76 143 -135 23 -44 27 -63 27 -136 0 -68
-5 -93 -22 -126 -36 -67 -70 -101 -135 -133 -229 -115 -486 96 -414 340 50
174 237 263 401 190z m2942 -3 c60 -28 113 -81 144 -144 33 -68 33 -179 0
-244 -54 -105 -135 -161 -247 -168 -173 -11 -302 100 -312 270 -5 86 16 152
70 213 88 100 226 129 345 73z m976 -1 c181 -83 229 -324 94 -465 -56 -59
-111 -85 -192 -90 -102 -6 -164 16 -230 82 -61 61 -85 121 -85 215 1 212 218
347 413 258z m977 2 c193 -85 232 -348 74 -488 -62 -54 -127 -75 -219 -69
-156 10 -268 130 -268 289 0 214 216 355 413 268z m2947 -5 c57 -27 101 -72
135 -137 32 -60 33 -194 1 -253 -36 -67 -70 -101 -135 -133 -230 -115 -486 95
-414 340 52 181 244 266 413 183z m980 0 c102 -49 158 -143 158 -264 0 -170
-121 -290 -291 -290 -118 0 -210 56 -267 164 -17 33 -22 58 -22 126 0 73 4 92
27 136 76 145 247 200 395 128z m972 4 c58 -28 118 -89 144 -147 31 -65 30
-178 -1 -242 -65 -134 -219 -201 -362 -158 -110 33 -200 156 -200 273 0 79 22
143 66 194 89 105 234 138 353 80z m-12729 -949 c25 -11 64 -38 87 -61 139
-136 107 -364 -66 -466 -41 -24 -56 -27 -141 -27 -85 0 -100 3 -141 27 -98 58
-151 148 -151 258 0 216 215 356 412 269z m980 0 c55 -24 115 -80 142 -134 30
-57 36 -167 13 -236 -24 -70 -101 -149 -169 -172 -201 -69 -399 67 -400 273 0
215 217 356 414 269z m987 -5 c146 -70 205 -246 132 -392 -54 -110 -142 -162
-268 -162 -230 0 -365 257 -239 453 79 123 240 166 375 101z m968 7 c59 -26
112 -76 143 -135 23 -44 27 -63 27 -136 0 -68 -5 -93 -22 -126 -36 -67 -70
-101 -135 -133 -229 -115 -486 96 -414 340 50 174 237 262 401 190z m992 -7
c215 -103 216 -416 2 -523 -207 -103 -442 51 -426 279 14 213 229 337 424 244z
m2928 2 c182 -83 227 -324 87 -469 -54 -56 -105 -79 -188 -85 -88 -6 -154 14
-213 64 -67 58 -94 113 -99 205 -6 97 13 153 72 217 91 99 218 124 341 68z
m2942 -2 c149 -72 208 -260 126 -406 -33 -59 -105 -119 -163 -137 -142 -42
-297 24 -359 153 -120 250 145 511 396 390z m980 0 c57 -27 101 -72 135 -137
32 -60 33 -194 1 -253 -36 -67 -70 -101 -135 -133 -164 -82 -362 1 -413 172
-20 68 -19 127 4 187 65 171 245 243 408 164z m980 0 c29 -14 68 -44 88 -66
127 -149 85 -372 -86 -457 -189 -95 -410 26 -426 234 -6 75 8 129 50 191 83
124 238 164 374 98z m-11757 -945 c182 -80 231 -318 95 -467 -57 -64 -123 -92
-215 -92 -62 0 -86 5 -127 26 -179 89 -222 325 -85 467 89 92 215 117 332 66z
m980 0 c99 -43 161 -133 168 -244 8 -125 -42 -221 -145 -282 -62 -36 -181 -44
-250 -18 -154 59 -230 246 -162 395 70 152 236 215 389 149z m987 -5 c144 -69
204 -243 134 -390 -51 -109 -143 -164 -270 -164 -184 0 -320 171 -282 351 41
189 244 287 418 203z m969 6 c58 -25 111 -75 142 -134 23 -44 27 -63 27 -136
0 -77 -3 -90 -31 -140 -34 -61 -105 -121 -164 -139 -65 -19 -159 -14 -216 13
-212 99 -233 389 -36 514 82 54 187 62 278 22z m991 -6 c168 -80 215 -308 93
-456 -17 -21 -59 -51 -95 -69 -58 -29 -70 -31 -142 -27 -92 4 -140 25 -199 84
-58 57 -87 139 -81 224 14 213 229 337 424 244z m972 3 c58 -27 118 -87 144
-146 30 -64 30 -178 1 -242 -47 -101 -151 -169 -263 -169 -83 0 -128 14 -187
59 -105 81 -144 229 -90 347 30 65 63 104 116 137 81 50 191 56 279 14z m3911
2 c99 -44 161 -133 168 -244 6 -102 -16 -164 -82 -230 -61 -61 -121 -85 -215
-85 -256 0 -382 317 -200 499 85 86 216 110 329 60z m987 -5 c146 -70 205
-246 132 -392 -54 -110 -142 -162 -268 -162 -114 0 -212 63 -263 169 -31 64
-32 177 -1 242 69 153 248 216 400 143z m980 0 c57 -27 101 -72 135 -137 18
-34 23 -58 23 -127 0 -77 -3 -90 -31 -140 -34 -61 -105 -121 -164 -139 -20 -6
-66 -11 -102 -11 -169 0 -302 149 -285 318 22 208 234 326 424 236z m916 22
c71 -17 128 -53 167 -108 109 -150 61 -356 -101 -437 -52 -26 -74 -31 -134
-31 -119 0 -211 56 -268 164 -17 33 -22 58 -22 126 0 68 5 93 22 126 48 89
119 146 204 163 62 12 67 12 132 -3z m-10713 -967 c99 -43 161 -133 168 -244
6 -92 -15 -157 -69 -219 -58 -65 -128 -97 -217 -97 -168 -1 -295 124 -296 291
-1 215 215 355 414 269z m987 -5 c158 -76 214 -283 114 -429 -126 -185 -414
-163 -509 39 -119 252 143 510 395 390z m969 6 c58 -25 111 -75 142 -134 23
-44 27 -63 27 -136 0 -77 -3 -90 -31 -140 -34 -61 -105 -121 -164 -139 -159
-48 -330 39 -375 192 -72 243 169 458 401 357z m991 -7 c168 -78 215 -307 93
-455 -17 -21 -59 -51 -94 -68 -206 -102 -439 52 -423 280 14 213 228 335 424
243z m945 15 c139 -41 227 -212 184 -360 -55 -190 -285 -272 -451 -159 -48 32
-100 107 -116 164 -27 99 12 230 85 295 87 76 181 95 298 60z m2958 -9 c182
-80 230 -318 95 -467 -57 -64 -123 -92 -214 -92 -59 0 -87 6 -126 24 -104 49
-168 150 -168 266 0 215 216 355 413 269z m983 -1 c28 -12 66 -41 91 -69 127
-141 93 -360 -71 -456 -62 -36 -181 -44 -250 -18 -112 43 -188 156 -187 280 2
214 215 348 417 263z m984 -4 c146 -70 205 -246 132 -392 -54 -110 -142 -162
-268 -162 -150 0 -272 112 -288 263 -11 107 46 222 135 274 98 58 192 63 289
17z m980 0 c57 -27 101 -72 135 -137 18 -34 23 -58 23 -127 0 -77 -3 -90 -31
-140 -34 -61 -105 -121 -164 -139 -159 -48 -330 39 -375 192 -19 64 -19 110 0
174 52 173 245 256 412 177z m-9797 -946 c99 -42 161 -132 168 -243 6 -92 -15
-157 -69 -219 -112 -127 -310 -133 -427 -13 -114 116 -116 295 -4 410 88 92
214 116 332 65z m987 -4 c199 -95 221 -374 40 -505 -78 -57 -199 -68 -291 -26
-169 78 -225 285 -118 438 83 117 236 156 369 93z m980 0 c57 -27 101 -72 135
-137 18 -34 23 -58 23 -127 0 -76 -3 -91 -30 -139 -127 -230 -468 -194 -541
57 -72 246 180 456 413 346z m956 10 c68 -22 138 -94 166 -169 46 -121 7 -261
-93 -336 -56 -43 -106 -60 -179 -60 -110 -2 -206 54 -261 151 -28 50 -31 63
-31 140 0 69 5 93 23 127 33 64 77 109 130 134 83 41 148 44 245 13z m2947 -6
c104 -44 173 -152 174 -268 0 -252 -298 -386 -487 -220 -21 18 -50 54 -65 79
-24 41 -27 56 -27 141 0 106 9 131 72 201 84 93 214 119 333 67z m980 0 c105
-45 171 -148 171 -268 1 -165 -124 -291 -289 -291 -168 -1 -295 124 -295 291
0 215 214 354 413 268z m987 -4 c172 -82 218 -314 92 -458 -111 -126 -310
-132 -427 -13 -116 119 -116 301 -1 416 88 88 220 110 336 55z m969 6 c149
-64 216 -246 145 -396 -126 -266 -528 -196 -558 99 -23 219 208 385 413 297z
m955 9 c80 -20 165 -112 190 -204 29 -107 -15 -238 -105 -306 -58 -44 -110
-61 -188 -60 -107 0 -207 62 -254 156 -88 181 12 384 209 425 43 9 85 6 148
-11z m-7820 -955 c61 -19 118 -69 154 -135 27 -48 30 -63 30 -139 0 -76 -3
-91 -30 -139 -79 -143 -243 -194 -391 -121 -167 82 -215 292 -100 441 55 73
171 124 256 112 19 -3 56 -11 81 -19z m2955 -9 c61 -27 115 -80 145 -143 17
-36 23 -65 23 -122 0 -57 -6 -86 -23 -122 -93 -193 -350 -231 -490 -72 -94
107 -96 276 -5 383 89 104 222 133 350 76z m964 8 c105 -38 183 -154 184 -273
0 -255 -302 -387 -492 -215 -64 57 -92 123 -92 214 0 89 19 138 76 201 81 90
200 117 324 73z m990 -5 c185 -79 231 -328 88 -475 -113 -115 -303 -115 -416
0 -57 59 -85 126 -85 207 0 214 214 353 413 268z m987 -5 c172 -80 218 -313
92 -457 -142 -161 -400 -120 -491 79 -33 72 -31 172 4 240 78 152 244 210 395
138z m-3896 -960 c203 -110 194 -410 -16 -514 -149 -73 -317 -20 -393 125 -23
44 -27 63 -27 136 0 93 16 136 76 204 81 93 240 115 360 49z m967 8 c54 -27
97 -73 129 -135 36 -69 38 -178 4 -248 -72 -149 -251 -214 -395 -144 -213 104
-224 402 -20 522 78 46 198 48 282 5z m952 12 c24 -9 65 -36 91 -60 194 -182
65 -506 -201 -506 -111 0 -199 52 -258 153 -24 40 -27 55 -27 140 0 85 3 100
27 141 79 134 220 184 368 132z"/>
</g>
</svg>
